<?xml version="1.0" encoding="utf-8" standalone="no"?>
<!DOCTYPE svg PUBLIC "-//W3C//DTD SVG 1.1//EN"
  "http://www.w3.org/Graphics/SVG/1.1/DTD/svg11.dtd">
<svg xmlns:xlink="http://www.w3.org/1999/xlink" width="432pt" height="288pt" viewBox="0 0 432 288" xmlns="http://www.w3.org/2000/svg" version="1.1">
 <metadata>
  <rdf:RDF xmlns:dc="http://purl.org/dc/elements/1.1/" xmlns:cc="http://creativecommons.org/ns#" xmlns:rdf="http://www.w3.org/1999/02/22-rdf-syntax-ns#">
   <cc:Work>
    <dc:type rdf:resource="http://purl.org/dc/dcmitype/StillImage"/>
    <dc:date>2025-10-03T14:42:05.157440</dc:date>
    <dc:format>image/svg+xml</dc:format>
    <dc:creator>
     <cc:Agent>
      <dc:title>Matplotlib v3.10.0, https://matplotlib.org/</dc:title>
     </cc:Agent>
    </dc:creator>
   </cc:Work>
  </rdf:RDF>
 </metadata>
 <defs>
  <style type="text/css">*{stroke-linejoin: round; stroke-linecap: butt}</style>
 </defs>
 <g id="figure_1">
  <g id="patch_1">
   <path d="M 0 288 
L 432 288 
L 432 0 
L 0 0 
z
" style="fill: #ffffff"/>
  </g>
  <g id="axes_1">
   <g id="patch_2">
    <path d="M 57.71 229.552 
L 416.88 229.552 
L 416.88 15.12 
L 57.71 15.12 
z
" style="fill: #ffffff"/>
   </g>
   <g id="matplotlib.axis_1">
    <g id="xtick_1">
     <g id="line2d_1">
      <path d="M 57.905472 229.552 
L 57.905472 15.12 
" clip-path="url(#p46726a8311)" style="fill: none; stroke-dasharray: 1.85,0.8; stroke-dashoffset: 0; stroke: #b0b0b0; stroke-width: 0.5"/>
     </g>
     <g id="line2d_2">
      <defs>
       <path id="m8e1cdbbcf9" d="M 0 0 
L 0 3.5 
" style="stroke: #000000; stroke-width: 0.8"/>
      </defs>
      <g>
       <use xlink:href="#m8e1cdbbcf9" x="57.905472" y="229.552" style="stroke: #000000; stroke-width: 0.8"/>
      </g>
     </g>
     <g id="text_1">
      <!-- $\mathdefault{10^{-1}}$ -->
      <g transform="translate(41.455472 247.189813) scale(0.14 -0.14)">
       <defs>
        <path id="DejaVuSans-31" d="M 794 531 
L 1825 531 
L 1825 4091 
L 703 3866 
L 703 4441 
L 1819 4666 
L 2450 4666 
L 2450 531 
L 3481 531 
L 3481 0 
L 794 0 
L 794 531 
z
" transform="scale(0.015625)"/>
        <path id="DejaVuSans-30" d="M 2034 4250 
Q 1547 4250 1301 3770 
Q 1056 3291 1056 2328 
Q 1056 1369 1301 889 
Q 1547 409 2034 409 
Q 2525 409 2770 889 
Q 3016 1369 3016 2328 
Q 3016 3291 2770 3770 
Q 2525 4250 2034 4250 
z
M 2034 4750 
Q 2819 4750 3233 4129 
Q 3647 3509 3647 2328 
Q 3647 1150 3233 529 
Q 2819 -91 2034 -91 
Q 1250 -91 836 529 
Q 422 1150 422 2328 
Q 422 3509 836 4129 
Q 1250 4750 2034 4750 
z
" transform="scale(0.015625)"/>
        <path id="DejaVuSans-2212" d="M 678 2272 
L 4684 2272 
L 4684 1741 
L 678 1741 
L 678 2272 
z
" transform="scale(0.015625)"/>
       </defs>
       <use xlink:href="#DejaVuSans-31" transform="translate(0 0.684375)"/>
       <use xlink:href="#DejaVuSans-30" transform="translate(63.623047 0.684375)"/>
       <use xlink:href="#DejaVuSans-2212" transform="translate(128.203125 38.965625) scale(0.7)"/>
       <use xlink:href="#DejaVuSans-31" transform="translate(186.855469 38.965625) scale(0.7)"/>
      </g>
     </g>
    </g>
    <g id="xtick_2">
     <g id="line2d_3">
      <path d="M 147.698565 229.552 
L 147.698565 15.12 
" clip-path="url(#p46726a8311)" style="fill: none; stroke-dasharray: 1.85,0.8; stroke-dashoffset: 0; stroke: #b0b0b0; stroke-width: 0.5"/>
     </g>
     <g id="line2d_4">
      <g>
       <use xlink:href="#m8e1cdbbcf9" x="147.698565" y="229.552" style="stroke: #000000; stroke-width: 0.8"/>
      </g>
     </g>
     <g id="text_2">
      <!-- $\mathdefault{10^{0}}$ -->
      <g transform="translate(135.378565 247.189813) scale(0.14 -0.14)">
       <use xlink:href="#DejaVuSans-31" transform="translate(0 0.765625)"/>
       <use xlink:href="#DejaVuSans-30" transform="translate(63.623047 0.765625)"/>
       <use xlink:href="#DejaVuSans-30" transform="translate(128.203125 39.046875) scale(0.7)"/>
      </g>
     </g>
    </g>
    <g id="xtick_3">
     <g id="line2d_5">
      <path d="M 237.491658 229.552 
L 237.491658 15.12 
" clip-path="url(#p46726a8311)" style="fill: none; stroke-dasharray: 1.85,0.8; stroke-dashoffset: 0; stroke: #b0b0b0; stroke-width: 0.5"/>
     </g>
     <g id="line2d_6">
      <g>
       <use xlink:href="#m8e1cdbbcf9" x="237.491658" y="229.552" style="stroke: #000000; stroke-width: 0.8"/>
      </g>
     </g>
     <g id="text_3">
      <!-- $\mathdefault{10^{1}}$ -->
      <g transform="translate(225.171658 247.189813) scale(0.14 -0.14)">
       <use xlink:href="#DejaVuSans-31" transform="translate(0 0.684375)"/>
       <use xlink:href="#DejaVuSans-30" transform="translate(63.623047 0.684375)"/>
       <use xlink:href="#DejaVuSans-31" transform="translate(128.203125 38.965625) scale(0.7)"/>
      </g>
     </g>
    </g>
    <g id="xtick_4">
     <g id="line2d_7">
      <path d="M 327.284751 229.552 
L 327.284751 15.12 
" clip-path="url(#p46726a8311)" style="fill: none; stroke-dasharray: 1.85,0.8; stroke-dashoffset: 0; stroke: #b0b0b0; stroke-width: 0.5"/>
     </g>
     <g id="line2d_8">
      <g>
       <use xlink:href="#m8e1cdbbcf9" x="327.284751" y="229.552" style="stroke: #000000; stroke-width: 0.8"/>
      </g>
     </g>
     <g id="text_4">
      <!-- $\mathdefault{10^{2}}$ -->
      <g transform="translate(314.964751 247.189813) scale(0.14 -0.14)">
       <defs>
        <path id="DejaVuSans-32" d="M 1228 531 
L 3431 531 
L 3431 0 
L 469 0 
L 469 531 
Q 828 903 1448 1529 
Q 2069 2156 2228 2338 
Q 2531 2678 2651 2914 
Q 2772 3150 2772 3378 
Q 2772 3750 2511 3984 
Q 2250 4219 1831 4219 
Q 1534 4219 1204 4116 
Q 875 4013 500 3803 
L 500 4441 
Q 881 4594 1212 4672 
Q 1544 4750 1819 4750 
Q 2544 4750 2975 4387 
Q 3406 4025 3406 3419 
Q 3406 3131 3298 2873 
Q 3191 2616 2906 2266 
Q 2828 2175 2409 1742 
Q 1991 1309 1228 531 
z
" transform="scale(0.015625)"/>
       </defs>
       <use xlink:href="#DejaVuSans-31" transform="translate(0 0.765625)"/>
       <use xlink:href="#DejaVuSans-30" transform="translate(63.623047 0.765625)"/>
       <use xlink:href="#DejaVuSans-32" transform="translate(128.203125 39.046875) scale(0.7)"/>
      </g>
     </g>
    </g>
    <g id="xtick_5">
     <g id="line2d_9">
      <path d="M 84.935887 229.552 
L 84.935887 15.12 
" clip-path="url(#p46726a8311)" style="fill: none; stroke-dasharray: 1.85,0.8; stroke-dashoffset: 0; stroke: #b0b0b0; stroke-width: 0.5"/>
     </g>
     <g id="line2d_10">
      <defs>
       <path id="maa2b847ee1" d="M 0 0 
L 0 2 
" style="stroke: #000000; stroke-width: 0.6"/>
      </defs>
      <g>
       <use xlink:href="#maa2b847ee1" x="84.935887" y="229.552" style="stroke: #000000; stroke-width: 0.6"/>
      </g>
     </g>
    </g>
    <g id="xtick_6">
     <g id="line2d_11">
      <path d="M 100.747665 229.552 
L 100.747665 15.12 
" clip-path="url(#p46726a8311)" style="fill: none; stroke-dasharray: 1.85,0.8; stroke-dashoffset: 0; stroke: #b0b0b0; stroke-width: 0.5"/>
     </g>
     <g id="line2d_12">
      <g>
       <use xlink:href="#maa2b847ee1" x="100.747665" y="229.552" style="stroke: #000000; stroke-width: 0.6"/>
      </g>
     </g>
    </g>
    <g id="xtick_7">
     <g id="line2d_13">
      <path d="M 111.966301 229.552 
L 111.966301 15.12 
" clip-path="url(#p46726a8311)" style="fill: none; stroke-dasharray: 1.85,0.8; stroke-dashoffset: 0; stroke: #b0b0b0; stroke-width: 0.5"/>
     </g>
     <g id="line2d_14">
      <g>
       <use xlink:href="#maa2b847ee1" x="111.966301" y="229.552" style="stroke: #000000; stroke-width: 0.6"/>
      </g>
     </g>
    </g>
    <g id="xtick_8">
     <g id="line2d_15">
      <path d="M 120.668151 229.552 
L 120.668151 15.12 
" clip-path="url(#p46726a8311)" style="fill: none; stroke-dasharray: 1.85,0.8; stroke-dashoffset: 0; stroke: #b0b0b0; stroke-width: 0.5"/>
     </g>
     <g id="line2d_16">
      <g>
       <use xlink:href="#maa2b847ee1" x="120.668151" y="229.552" style="stroke: #000000; stroke-width: 0.6"/>
      </g>
     </g>
    </g>
    <g id="xtick_9">
     <g id="line2d_17">
      <path d="M 127.77808 229.552 
L 127.77808 15.12 
" clip-path="url(#p46726a8311)" style="fill: none; stroke-dasharray: 1.85,0.8; stroke-dashoffset: 0; stroke: #b0b0b0; stroke-width: 0.5"/>
     </g>
     <g id="line2d_18">
      <g>
       <use xlink:href="#maa2b847ee1" x="127.77808" y="229.552" style="stroke: #000000; stroke-width: 0.6"/>
      </g>
     </g>
    </g>
    <g id="xtick_10">
     <g id="line2d_19">
      <path d="M 133.789439 229.552 
L 133.789439 15.12 
" clip-path="url(#p46726a8311)" style="fill: none; stroke-dasharray: 1.85,0.8; stroke-dashoffset: 0; stroke: #b0b0b0; stroke-width: 0.5"/>
     </g>
     <g id="line2d_20">
      <g>
       <use xlink:href="#maa2b847ee1" x="133.789439" y="229.552" style="stroke: #000000; stroke-width: 0.6"/>
      </g>
     </g>
    </g>
    <g id="xtick_11">
     <g id="line2d_21">
      <path d="M 138.996715 229.552 
L 138.996715 15.12 
" clip-path="url(#p46726a8311)" style="fill: none; stroke-dasharray: 1.85,0.8; stroke-dashoffset: 0; stroke: #b0b0b0; stroke-width: 0.5"/>
     </g>
     <g id="line2d_22">
      <g>
       <use xlink:href="#maa2b847ee1" x="138.996715" y="229.552" style="stroke: #000000; stroke-width: 0.6"/>
      </g>
     </g>
    </g>
    <g id="xtick_12">
     <g id="line2d_23">
      <path d="M 143.589859 229.552 
L 143.589859 15.12 
" clip-path="url(#p46726a8311)" style="fill: none; stroke-dasharray: 1.85,0.8; stroke-dashoffset: 0; stroke: #b0b0b0; stroke-width: 0.5"/>
     </g>
     <g id="line2d_24">
      <g>
       <use xlink:href="#maa2b847ee1" x="143.589859" y="229.552" style="stroke: #000000; stroke-width: 0.6"/>
      </g>
     </g>
    </g>
    <g id="xtick_13">
     <g id="line2d_25">
      <path d="M 174.728979 229.552 
L 174.728979 15.12 
" clip-path="url(#p46726a8311)" style="fill: none; stroke-dasharray: 1.85,0.8; stroke-dashoffset: 0; stroke: #b0b0b0; stroke-width: 0.5"/>
     </g>
     <g id="line2d_26">
      <g>
       <use xlink:href="#maa2b847ee1" x="174.728979" y="229.552" style="stroke: #000000; stroke-width: 0.6"/>
      </g>
     </g>
    </g>
    <g id="xtick_14">
     <g id="line2d_27">
      <path d="M 190.540758 229.552 
L 190.540758 15.12 
" clip-path="url(#p46726a8311)" style="fill: none; stroke-dasharray: 1.85,0.8; stroke-dashoffset: 0; stroke: #b0b0b0; stroke-width: 0.5"/>
     </g>
     <g id="line2d_28">
      <g>
       <use xlink:href="#maa2b847ee1" x="190.540758" y="229.552" style="stroke: #000000; stroke-width: 0.6"/>
      </g>
     </g>
    </g>
    <g id="xtick_15">
     <g id="line2d_29">
      <path d="M 201.759394 229.552 
L 201.759394 15.12 
" clip-path="url(#p46726a8311)" style="fill: none; stroke-dasharray: 1.85,0.8; stroke-dashoffset: 0; stroke: #b0b0b0; stroke-width: 0.5"/>
     </g>
     <g id="line2d_30">
      <g>
       <use xlink:href="#maa2b847ee1" x="201.759394" y="229.552" style="stroke: #000000; stroke-width: 0.6"/>
      </g>
     </g>
    </g>
    <g id="xtick_16">
     <g id="line2d_31">
      <path d="M 210.461244 229.552 
L 210.461244 15.12 
" clip-path="url(#p46726a8311)" style="fill: none; stroke-dasharray: 1.85,0.8; stroke-dashoffset: 0; stroke: #b0b0b0; stroke-width: 0.5"/>
     </g>
     <g id="line2d_32">
      <g>
       <use xlink:href="#maa2b847ee1" x="210.461244" y="229.552" style="stroke: #000000; stroke-width: 0.6"/>
      </g>
     </g>
    </g>
    <g id="xtick_17">
     <g id="line2d_33">
      <path d="M 217.571173 229.552 
L 217.571173 15.12 
" clip-path="url(#p46726a8311)" style="fill: none; stroke-dasharray: 1.85,0.8; stroke-dashoffset: 0; stroke: #b0b0b0; stroke-width: 0.5"/>
     </g>
     <g id="line2d_34">
      <g>
       <use xlink:href="#maa2b847ee1" x="217.571173" y="229.552" style="stroke: #000000; stroke-width: 0.6"/>
      </g>
     </g>
    </g>
    <g id="xtick_18">
     <g id="line2d_35">
      <path d="M 223.582532 229.552 
L 223.582532 15.12 
" clip-path="url(#p46726a8311)" style="fill: none; stroke-dasharray: 1.85,0.8; stroke-dashoffset: 0; stroke: #b0b0b0; stroke-width: 0.5"/>
     </g>
     <g id="line2d_36">
      <g>
       <use xlink:href="#maa2b847ee1" x="223.582532" y="229.552" style="stroke: #000000; stroke-width: 0.6"/>
      </g>
     </g>
    </g>
    <g id="xtick_19">
     <g id="line2d_37">
      <path d="M 228.789808 229.552 
L 228.789808 15.12 
" clip-path="url(#p46726a8311)" style="fill: none; stroke-dasharray: 1.85,0.8; stroke-dashoffset: 0; stroke: #b0b0b0; stroke-width: 0.5"/>
     </g>
     <g id="line2d_38">
      <g>
       <use xlink:href="#maa2b847ee1" x="228.789808" y="229.552" style="stroke: #000000; stroke-width: 0.6"/>
      </g>
     </g>
    </g>
    <g id="xtick_20">
     <g id="line2d_39">
      <path d="M 233.382951 229.552 
L 233.382951 15.12 
" clip-path="url(#p46726a8311)" style="fill: none; stroke-dasharray: 1.85,0.8; stroke-dashoffset: 0; stroke: #b0b0b0; stroke-width: 0.5"/>
     </g>
     <g id="line2d_40">
      <g>
       <use xlink:href="#maa2b847ee1" x="233.382951" y="229.552" style="stroke: #000000; stroke-width: 0.6"/>
      </g>
     </g>
    </g>
    <g id="xtick_21">
     <g id="line2d_41">
      <path d="M 264.522072 229.552 
L 264.522072 15.12 
" clip-path="url(#p46726a8311)" style="fill: none; stroke-dasharray: 1.85,0.8; stroke-dashoffset: 0; stroke: #b0b0b0; stroke-width: 0.5"/>
     </g>
     <g id="line2d_42">
      <g>
       <use xlink:href="#maa2b847ee1" x="264.522072" y="229.552" style="stroke: #000000; stroke-width: 0.6"/>
      </g>
     </g>
    </g>
    <g id="xtick_22">
     <g id="line2d_43">
      <path d="M 280.333851 229.552 
L 280.333851 15.12 
" clip-path="url(#p46726a8311)" style="fill: none; stroke-dasharray: 1.85,0.8; stroke-dashoffset: 0; stroke: #b0b0b0; stroke-width: 0.5"/>
     </g>
     <g id="line2d_44">
      <g>
       <use xlink:href="#maa2b847ee1" x="280.333851" y="229.552" style="stroke: #000000; stroke-width: 0.6"/>
      </g>
     </g>
    </g>
    <g id="xtick_23">
     <g id="line2d_45">
      <path d="M 291.552487 229.552 
L 291.552487 15.12 
" clip-path="url(#p46726a8311)" style="fill: none; stroke-dasharray: 1.85,0.8; stroke-dashoffset: 0; stroke: #b0b0b0; stroke-width: 0.5"/>
     </g>
     <g id="line2d_46">
      <g>
       <use xlink:href="#maa2b847ee1" x="291.552487" y="229.552" style="stroke: #000000; stroke-width: 0.6"/>
      </g>
     </g>
    </g>
    <g id="xtick_24">
     <g id="line2d_47">
      <path d="M 300.254336 229.552 
L 300.254336 15.12 
" clip-path="url(#p46726a8311)" style="fill: none; stroke-dasharray: 1.85,0.8; stroke-dashoffset: 0; stroke: #b0b0b0; stroke-width: 0.5"/>
     </g>
     <g id="line2d_48">
      <g>
       <use xlink:href="#maa2b847ee1" x="300.254336" y="229.552" style="stroke: #000000; stroke-width: 0.6"/>
      </g>
     </g>
    </g>
    <g id="xtick_25">
     <g id="line2d_49">
      <path d="M 307.364265 229.552 
L 307.364265 15.12 
" clip-path="url(#p46726a8311)" style="fill: none; stroke-dasharray: 1.85,0.8; stroke-dashoffset: 0; stroke: #b0b0b0; stroke-width: 0.5"/>
     </g>
     <g id="line2d_50">
      <g>
       <use xlink:href="#maa2b847ee1" x="307.364265" y="229.552" style="stroke: #000000; stroke-width: 0.6"/>
      </g>
     </g>
    </g>
    <g id="xtick_26">
     <g id="line2d_51">
      <path d="M 313.375625 229.552 
L 313.375625 15.12 
" clip-path="url(#p46726a8311)" style="fill: none; stroke-dasharray: 1.85,0.8; stroke-dashoffset: 0; stroke: #b0b0b0; stroke-width: 0.5"/>
     </g>
     <g id="line2d_52">
      <g>
       <use xlink:href="#maa2b847ee1" x="313.375625" y="229.552" style="stroke: #000000; stroke-width: 0.6"/>
      </g>
     </g>
    </g>
    <g id="xtick_27">
     <g id="line2d_53">
      <path d="M 318.582901 229.552 
L 318.582901 15.12 
" clip-path="url(#p46726a8311)" style="fill: none; stroke-dasharray: 1.85,0.8; stroke-dashoffset: 0; stroke: #b0b0b0; stroke-width: 0.5"/>
     </g>
     <g id="line2d_54">
      <g>
       <use xlink:href="#maa2b847ee1" x="318.582901" y="229.552" style="stroke: #000000; stroke-width: 0.6"/>
      </g>
     </g>
    </g>
    <g id="xtick_28">
     <g id="line2d_55">
      <path d="M 323.176044 229.552 
L 323.176044 15.12 
" clip-path="url(#p46726a8311)" style="fill: none; stroke-dasharray: 1.85,0.8; stroke-dashoffset: 0; stroke: #b0b0b0; stroke-width: 0.5"/>
     </g>
     <g id="line2d_56">
      <g>
       <use xlink:href="#maa2b847ee1" x="323.176044" y="229.552" style="stroke: #000000; stroke-width: 0.6"/>
      </g>
     </g>
    </g>
    <g id="xtick_29">
     <g id="line2d_57">
      <path d="M 354.315165 229.552 
L 354.315165 15.12 
" clip-path="url(#p46726a8311)" style="fill: none; stroke-dasharray: 1.85,0.8; stroke-dashoffset: 0; stroke: #b0b0b0; stroke-width: 0.5"/>
     </g>
     <g id="line2d_58">
      <g>
       <use xlink:href="#maa2b847ee1" x="354.315165" y="229.552" style="stroke: #000000; stroke-width: 0.6"/>
      </g>
     </g>
    </g>
    <g id="xtick_30">
     <g id="line2d_59">
      <path d="M 370.126944 229.552 
L 370.126944 15.12 
" clip-path="url(#p46726a8311)" style="fill: none; stroke-dasharray: 1.85,0.8; stroke-dashoffset: 0; stroke: #b0b0b0; stroke-width: 0.5"/>
     </g>
     <g id="line2d_60">
      <g>
       <use xlink:href="#maa2b847ee1" x="370.126944" y="229.552" style="stroke: #000000; stroke-width: 0.6"/>
      </g>
     </g>
    </g>
    <g id="xtick_31">
     <g id="line2d_61">
      <path d="M 381.345579 229.552 
L 381.345579 15.12 
" clip-path="url(#p46726a8311)" style="fill: none; stroke-dasharray: 1.85,0.8; stroke-dashoffset: 0; stroke: #b0b0b0; stroke-width: 0.5"/>
     </g>
     <g id="line2d_62">
      <g>
       <use xlink:href="#maa2b847ee1" x="381.345579" y="229.552" style="stroke: #000000; stroke-width: 0.6"/>
      </g>
     </g>
    </g>
    <g id="xtick_32">
     <g id="line2d_63">
      <path d="M 390.047429 229.552 
L 390.047429 15.12 
" clip-path="url(#p46726a8311)" style="fill: none; stroke-dasharray: 1.85,0.8; stroke-dashoffset: 0; stroke: #b0b0b0; stroke-width: 0.5"/>
     </g>
     <g id="line2d_64">
      <g>
       <use xlink:href="#maa2b847ee1" x="390.047429" y="229.552" style="stroke: #000000; stroke-width: 0.6"/>
      </g>
     </g>
    </g>
    <g id="xtick_33">
     <g id="line2d_65">
      <path d="M 397.157358 229.552 
L 397.157358 15.12 
" clip-path="url(#p46726a8311)" style="fill: none; stroke-dasharray: 1.85,0.8; stroke-dashoffset: 0; stroke: #b0b0b0; stroke-width: 0.5"/>
     </g>
     <g id="line2d_66">
      <g>
       <use xlink:href="#maa2b847ee1" x="397.157358" y="229.552" style="stroke: #000000; stroke-width: 0.6"/>
      </g>
     </g>
    </g>
    <g id="xtick_34">
     <g id="line2d_67">
      <path d="M 403.168717 229.552 
L 403.168717 15.12 
" clip-path="url(#p46726a8311)" style="fill: none; stroke-dasharray: 1.85,0.8; stroke-dashoffset: 0; stroke: #b0b0b0; stroke-width: 0.5"/>
     </g>
     <g id="line2d_68">
      <g>
       <use xlink:href="#maa2b847ee1" x="403.168717" y="229.552" style="stroke: #000000; stroke-width: 0.6"/>
      </g>
     </g>
    </g>
    <g id="xtick_35">
     <g id="line2d_69">
      <path d="M 408.375994 229.552 
L 408.375994 15.12 
" clip-path="url(#p46726a8311)" style="fill: none; stroke-dasharray: 1.85,0.8; stroke-dashoffset: 0; stroke: #b0b0b0; stroke-width: 0.5"/>
     </g>
     <g id="line2d_70">
      <g>
       <use xlink:href="#maa2b847ee1" x="408.375994" y="229.552" style="stroke: #000000; stroke-width: 0.6"/>
      </g>
     </g>
    </g>
    <g id="xtick_36">
     <g id="line2d_71">
      <path d="M 412.969137 229.552 
L 412.969137 15.12 
" clip-path="url(#p46726a8311)" style="fill: none; stroke-dasharray: 1.85,0.8; stroke-dashoffset: 0; stroke: #b0b0b0; stroke-width: 0.5"/>
     </g>
     <g id="line2d_72">
      <g>
       <use xlink:href="#maa2b847ee1" x="412.969137" y="229.552" style="stroke: #000000; stroke-width: 0.6"/>
      </g>
     </g>
    </g>
    <g id="text_5">
     <!-- D ($\mu$m) -->
     <g transform="translate(212.935 264.741375) scale(0.14 -0.14)">
      <defs>
       <path id="DejaVuSans-44" d="M 1259 4147 
L 1259 519 
L 2022 519 
Q 2988 519 3436 956 
Q 3884 1394 3884 2338 
Q 3884 3275 3436 3711 
Q 2988 4147 2022 4147 
L 1259 4147 
z
M 628 4666 
L 1925 4666 
Q 3281 4666 3915 4102 
Q 4550 3538 4550 2338 
Q 4550 1131 3912 565 
Q 3275 0 1925 0 
L 628 0 
L 628 4666 
z
" transform="scale(0.015625)"/>
       <path id="DejaVuSans-20" transform="scale(0.015625)"/>
       <path id="DejaVuSans-28" d="M 1984 4856 
Q 1566 4138 1362 3434 
Q 1159 2731 1159 2009 
Q 1159 1288 1364 580 
Q 1569 -128 1984 -844 
L 1484 -844 
Q 1016 -109 783 600 
Q 550 1309 550 2009 
Q 550 2706 781 3412 
Q 1013 4119 1484 4856 
L 1984 4856 
z
" transform="scale(0.015625)"/>
       <path id="DejaVuSans-Oblique-3bc" d="M -84 -1331 
L 856 3500 
L 1434 3500 
L 1009 1322 
Q 997 1256 987 1175 
Q 978 1094 978 1013 
Q 978 722 1161 565 
Q 1344 409 1684 409 
Q 2147 409 2431 671 
Q 2716 934 2816 1459 
L 3213 3500 
L 3788 3500 
L 3266 809 
Q 3253 750 3248 706 
Q 3244 663 3244 628 
Q 3244 531 3283 486 
Q 3322 441 3406 441 
Q 3438 441 3492 456 
Q 3547 472 3647 513 
L 3559 50 
Q 3422 -19 3297 -55 
Q 3172 -91 3053 -91 
Q 2847 -91 2730 40 
Q 2613 172 2613 403 
Q 2438 153 2195 31 
Q 1953 -91 1625 -91 
Q 1334 -91 1117 43 
Q 900 178 831 397 
L 494 -1331 
L -84 -1331 
z
" transform="scale(0.015625)"/>
       <path id="DejaVuSans-6d" d="M 3328 2828 
Q 3544 3216 3844 3400 
Q 4144 3584 4550 3584 
Q 5097 3584 5394 3201 
Q 5691 2819 5691 2113 
L 5691 0 
L 5113 0 
L 5113 2094 
Q 5113 2597 4934 2840 
Q 4756 3084 4391 3084 
Q 3944 3084 3684 2787 
Q 3425 2491 3425 1978 
L 3425 0 
L 2847 0 
L 2847 2094 
Q 2847 2600 2669 2842 
Q 2491 3084 2119 3084 
Q 1678 3084 1418 2786 
Q 1159 2488 1159 1978 
L 1159 0 
L 581 0 
L 581 3500 
L 1159 3500 
L 1159 2956 
Q 1356 3278 1631 3431 
Q 1906 3584 2284 3584 
Q 2666 3584 2933 3390 
Q 3200 3197 3328 2828 
z
" transform="scale(0.015625)"/>
       <path id="DejaVuSans-29" d="M 513 4856 
L 1013 4856 
Q 1481 4119 1714 3412 
Q 1947 2706 1947 2009 
Q 1947 1309 1714 600 
Q 1481 -109 1013 -844 
L 513 -844 
Q 928 -128 1133 580 
Q 1338 1288 1338 2009 
Q 1338 2731 1133 3434 
Q 928 4138 513 4856 
z
" transform="scale(0.015625)"/>
      </defs>
      <use xlink:href="#DejaVuSans-44" transform="translate(0 0.125)"/>
      <use xlink:href="#DejaVuSans-20" transform="translate(77.001953 0.125)"/>
      <use xlink:href="#DejaVuSans-28" transform="translate(108.789062 0.125)"/>
      <use xlink:href="#DejaVuSans-Oblique-3bc" transform="translate(147.802734 0.125)"/>
      <use xlink:href="#DejaVuSans-6d" transform="translate(211.425781 0.125)"/>
      <use xlink:href="#DejaVuSans-29" transform="translate(308.837891 0.125)"/>
     </g>
    </g>
   </g>
   <g id="matplotlib.axis_2">
    <g id="ytick_1">
     <g id="line2d_73">
      <path d="M 57.71 179.584884 
L 416.88 179.584884 
" clip-path="url(#p46726a8311)" style="fill: none; stroke-dasharray: 1.85,0.8; stroke-dashoffset: 0; stroke: #b0b0b0; stroke-width: 0.5"/>
     </g>
     <g id="line2d_74">
      <defs>
       <path id="m9ca049a7ed" d="M 0 0 
L -3.5 0 
" style="stroke: #000000; stroke-width: 0.8"/>
      </defs>
      <g>
       <use xlink:href="#m9ca049a7ed" x="57.71" y="179.584884" style="stroke: #000000; stroke-width: 0.8"/>
      </g>
     </g>
     <g id="text_6">
      <!-- 5 -->
      <g transform="translate(41.8025 184.903791) scale(0.14 -0.14)">
       <defs>
        <path id="DejaVuSans-35" d="M 691 4666 
L 3169 4666 
L 3169 4134 
L 1269 4134 
L 1269 2991 
Q 1406 3038 1543 3061 
Q 1681 3084 1819 3084 
Q 2600 3084 3056 2656 
Q 3513 2228 3513 1497 
Q 3513 744 3044 326 
Q 2575 -91 1722 -91 
Q 1428 -91 1123 -41 
Q 819 9 494 109 
L 494 744 
Q 775 591 1075 516 
Q 1375 441 1709 441 
Q 2250 441 2565 725 
Q 2881 1009 2881 1497 
Q 2881 1984 2565 2268 
Q 2250 2553 1709 2553 
Q 1456 2553 1204 2497 
Q 953 2441 691 2322 
L 691 4666 
z
" transform="scale(0.015625)"/>
       </defs>
       <use xlink:href="#DejaVuSans-35"/>
      </g>
     </g>
    </g>
    <g id="ytick_2">
     <g id="line2d_75">
      <path d="M 57.71 128.598032 
L 416.88 128.598032 
" clip-path="url(#p46726a8311)" style="fill: none; stroke-dasharray: 1.85,0.8; stroke-dashoffset: 0; stroke: #b0b0b0; stroke-width: 0.5"/>
     </g>
     <g id="line2d_76">
      <g>
       <use xlink:href="#m9ca049a7ed" x="57.71" y="128.598032" style="stroke: #000000; stroke-width: 0.8"/>
      </g>
     </g>
     <g id="text_7">
      <!-- 10 -->
      <g transform="translate(32.895 133.916938) scale(0.14 -0.14)">
       <use xlink:href="#DejaVuSans-31"/>
       <use xlink:href="#DejaVuSans-30" transform="translate(63.623047 0)"/>
      </g>
     </g>
    </g>
    <g id="ytick_3">
     <g id="line2d_77">
      <path d="M 57.71 77.611179 
L 416.88 77.611179 
" clip-path="url(#p46726a8311)" style="fill: none; stroke-dasharray: 1.85,0.8; stroke-dashoffset: 0; stroke: #b0b0b0; stroke-width: 0.5"/>
     </g>
     <g id="line2d_78">
      <g>
       <use xlink:href="#m9ca049a7ed" x="57.71" y="77.611179" style="stroke: #000000; stroke-width: 0.8"/>
      </g>
     </g>
     <g id="text_8">
      <!-- 15 -->
      <g transform="translate(32.895 82.930085) scale(0.14 -0.14)">
       <use xlink:href="#DejaVuSans-31"/>
       <use xlink:href="#DejaVuSans-35" transform="translate(63.623047 0)"/>
      </g>
     </g>
    </g>
    <g id="ytick_4">
     <g id="line2d_79">
      <path d="M 57.71 26.624327 
L 416.88 26.624327 
" clip-path="url(#p46726a8311)" style="fill: none; stroke-dasharray: 1.85,0.8; stroke-dashoffset: 0; stroke: #b0b0b0; stroke-width: 0.5"/>
     </g>
     <g id="line2d_80">
      <g>
       <use xlink:href="#m9ca049a7ed" x="57.71" y="26.624327" style="stroke: #000000; stroke-width: 0.8"/>
      </g>
     </g>
     <g id="text_9">
      <!-- 20 -->
      <g transform="translate(32.895 31.943233) scale(0.14 -0.14)">
       <use xlink:href="#DejaVuSans-32"/>
       <use xlink:href="#DejaVuSans-30" transform="translate(63.623047 0)"/>
      </g>
     </g>
    </g>
    <g id="text_10">
     <!-- Number distribution (%) -->
     <g transform="translate(25.983438 206.909125) rotate(-90) scale(0.14 -0.14)">
      <defs>
       <path id="DejaVuSans-4e" d="M 628 4666 
L 1478 4666 
L 3547 763 
L 3547 4666 
L 4159 4666 
L 4159 0 
L 3309 0 
L 1241 3903 
L 1241 0 
L 628 0 
L 628 4666 
z
" transform="scale(0.015625)"/>
       <path id="DejaVuSans-75" d="M 544 1381 
L 544 3500 
L 1119 3500 
L 1119 1403 
Q 1119 906 1312 657 
Q 1506 409 1894 409 
Q 2359 409 2629 706 
Q 2900 1003 2900 1516 
L 2900 3500 
L 3475 3500 
L 3475 0 
L 2900 0 
L 2900 538 
Q 2691 219 2414 64 
Q 2138 -91 1772 -91 
Q 1169 -91 856 284 
Q 544 659 544 1381 
z
M 1991 3584 
L 1991 3584 
z
" transform="scale(0.015625)"/>
       <path id="DejaVuSans-62" d="M 3116 1747 
Q 3116 2381 2855 2742 
Q 2594 3103 2138 3103 
Q 1681 3103 1420 2742 
Q 1159 2381 1159 1747 
Q 1159 1113 1420 752 
Q 1681 391 2138 391 
Q 2594 391 2855 752 
Q 3116 1113 3116 1747 
z
M 1159 2969 
Q 1341 3281 1617 3432 
Q 1894 3584 2278 3584 
Q 2916 3584 3314 3078 
Q 3713 2572 3713 1747 
Q 3713 922 3314 415 
Q 2916 -91 2278 -91 
Q 1894 -91 1617 61 
Q 1341 213 1159 525 
L 1159 0 
L 581 0 
L 581 4863 
L 1159 4863 
L 1159 2969 
z
" transform="scale(0.015625)"/>
       <path id="DejaVuSans-65" d="M 3597 1894 
L 3597 1613 
L 953 1613 
Q 991 1019 1311 708 
Q 1631 397 2203 397 
Q 2534 397 2845 478 
Q 3156 559 3463 722 
L 3463 178 
Q 3153 47 2828 -22 
Q 2503 -91 2169 -91 
Q 1331 -91 842 396 
Q 353 884 353 1716 
Q 353 2575 817 3079 
Q 1281 3584 2069 3584 
Q 2775 3584 3186 3129 
Q 3597 2675 3597 1894 
z
M 3022 2063 
Q 3016 2534 2758 2815 
Q 2500 3097 2075 3097 
Q 1594 3097 1305 2825 
Q 1016 2553 972 2059 
L 3022 2063 
z
" transform="scale(0.015625)"/>
       <path id="DejaVuSans-72" d="M 2631 2963 
Q 2534 3019 2420 3045 
Q 2306 3072 2169 3072 
Q 1681 3072 1420 2755 
Q 1159 2438 1159 1844 
L 1159 0 
L 581 0 
L 581 3500 
L 1159 3500 
L 1159 2956 
Q 1341 3275 1631 3429 
Q 1922 3584 2338 3584 
Q 2397 3584 2469 3576 
Q 2541 3569 2628 3553 
L 2631 2963 
z
" transform="scale(0.015625)"/>
       <path id="DejaVuSans-64" d="M 2906 2969 
L 2906 4863 
L 3481 4863 
L 3481 0 
L 2906 0 
L 2906 525 
Q 2725 213 2448 61 
Q 2172 -91 1784 -91 
Q 1150 -91 751 415 
Q 353 922 353 1747 
Q 353 2572 751 3078 
Q 1150 3584 1784 3584 
Q 2172 3584 2448 3432 
Q 2725 3281 2906 2969 
z
M 947 1747 
Q 947 1113 1208 752 
Q 1469 391 1925 391 
Q 2381 391 2643 752 
Q 2906 1113 2906 1747 
Q 2906 2381 2643 2742 
Q 2381 3103 1925 3103 
Q 1469 3103 1208 2742 
Q 947 2381 947 1747 
z
" transform="scale(0.015625)"/>
       <path id="DejaVuSans-69" d="M 603 3500 
L 1178 3500 
L 1178 0 
L 603 0 
L 603 3500 
z
M 603 4863 
L 1178 4863 
L 1178 4134 
L 603 4134 
L 603 4863 
z
" transform="scale(0.015625)"/>
       <path id="DejaVuSans-73" d="M 2834 3397 
L 2834 2853 
Q 2591 2978 2328 3040 
Q 2066 3103 1784 3103 
Q 1356 3103 1142 2972 
Q 928 2841 928 2578 
Q 928 2378 1081 2264 
Q 1234 2150 1697 2047 
L 1894 2003 
Q 2506 1872 2764 1633 
Q 3022 1394 3022 966 
Q 3022 478 2636 193 
Q 2250 -91 1575 -91 
Q 1294 -91 989 -36 
Q 684 19 347 128 
L 347 722 
Q 666 556 975 473 
Q 1284 391 1588 391 
Q 1994 391 2212 530 
Q 2431 669 2431 922 
Q 2431 1156 2273 1281 
Q 2116 1406 1581 1522 
L 1381 1569 
Q 847 1681 609 1914 
Q 372 2147 372 2553 
Q 372 3047 722 3315 
Q 1072 3584 1716 3584 
Q 2034 3584 2315 3537 
Q 2597 3491 2834 3397 
z
" transform="scale(0.015625)"/>
       <path id="DejaVuSans-74" d="M 1172 4494 
L 1172 3500 
L 2356 3500 
L 2356 3053 
L 1172 3053 
L 1172 1153 
Q 1172 725 1289 603 
Q 1406 481 1766 481 
L 2356 481 
L 2356 0 
L 1766 0 
Q 1100 0 847 248 
Q 594 497 594 1153 
L 594 3053 
L 172 3053 
L 172 3500 
L 594 3500 
L 594 4494 
L 1172 4494 
z
" transform="scale(0.015625)"/>
       <path id="DejaVuSans-6f" d="M 1959 3097 
Q 1497 3097 1228 2736 
Q 959 2375 959 1747 
Q 959 1119 1226 758 
Q 1494 397 1959 397 
Q 2419 397 2687 759 
Q 2956 1122 2956 1747 
Q 2956 2369 2687 2733 
Q 2419 3097 1959 3097 
z
M 1959 3584 
Q 2709 3584 3137 3096 
Q 3566 2609 3566 1747 
Q 3566 888 3137 398 
Q 2709 -91 1959 -91 
Q 1206 -91 779 398 
Q 353 888 353 1747 
Q 353 2609 779 3096 
Q 1206 3584 1959 3584 
z
" transform="scale(0.015625)"/>
       <path id="DejaVuSans-6e" d="M 3513 2113 
L 3513 0 
L 2938 0 
L 2938 2094 
Q 2938 2591 2744 2837 
Q 2550 3084 2163 3084 
Q 1697 3084 1428 2787 
Q 1159 2491 1159 1978 
L 1159 0 
L 581 0 
L 581 3500 
L 1159 3500 
L 1159 2956 
Q 1366 3272 1645 3428 
Q 1925 3584 2291 3584 
Q 2894 3584 3203 3211 
Q 3513 2838 3513 2113 
z
" transform="scale(0.015625)"/>
       <path id="DejaVuSans-25" d="M 4653 2053 
Q 4381 2053 4226 1822 
Q 4072 1591 4072 1178 
Q 4072 772 4226 539 
Q 4381 306 4653 306 
Q 4919 306 5073 539 
Q 5228 772 5228 1178 
Q 5228 1588 5073 1820 
Q 4919 2053 4653 2053 
z
M 4653 2450 
Q 5147 2450 5437 2106 
Q 5728 1763 5728 1178 
Q 5728 594 5436 251 
Q 5144 -91 4653 -91 
Q 4153 -91 3862 251 
Q 3572 594 3572 1178 
Q 3572 1766 3864 2108 
Q 4156 2450 4653 2450 
z
M 1428 4353 
Q 1159 4353 1004 4120 
Q 850 3888 850 3481 
Q 850 3069 1003 2837 
Q 1156 2606 1428 2606 
Q 1700 2606 1854 2837 
Q 2009 3069 2009 3481 
Q 2009 3884 1853 4118 
Q 1697 4353 1428 4353 
z
M 4250 4750 
L 4750 4750 
L 1831 -91 
L 1331 -91 
L 4250 4750 
z
M 1428 4750 
Q 1922 4750 2215 4408 
Q 2509 4066 2509 3481 
Q 2509 2891 2217 2550 
Q 1925 2209 1428 2209 
Q 931 2209 642 2551 
Q 353 2894 353 3481 
Q 353 4063 643 4406 
Q 934 4750 1428 4750 
z
" transform="scale(0.015625)"/>
      </defs>
      <use xlink:href="#DejaVuSans-4e"/>
      <use xlink:href="#DejaVuSans-75" transform="translate(74.804688 0)"/>
      <use xlink:href="#DejaVuSans-6d" transform="translate(138.183594 0)"/>
      <use xlink:href="#DejaVuSans-62" transform="translate(235.595703 0)"/>
      <use xlink:href="#DejaVuSans-65" transform="translate(299.072266 0)"/>
      <use xlink:href="#DejaVuSans-72" transform="translate(360.595703 0)"/>
      <use xlink:href="#DejaVuSans-20" transform="translate(401.708984 0)"/>
      <use xlink:href="#DejaVuSans-64" transform="translate(433.496094 0)"/>
      <use xlink:href="#DejaVuSans-69" transform="translate(496.972656 0)"/>
      <use xlink:href="#DejaVuSans-73" transform="translate(524.755859 0)"/>
      <use xlink:href="#DejaVuSans-74" transform="translate(576.855469 0)"/>
      <use xlink:href="#DejaVuSans-72" transform="translate(616.064453 0)"/>
      <use xlink:href="#DejaVuSans-69" transform="translate(657.177734 0)"/>
      <use xlink:href="#DejaVuSans-62" transform="translate(684.960938 0)"/>
      <use xlink:href="#DejaVuSans-75" transform="translate(748.4375 0)"/>
      <use xlink:href="#DejaVuSans-74" transform="translate(811.816406 0)"/>
      <use xlink:href="#DejaVuSans-69" transform="translate(851.025391 0)"/>
      <use xlink:href="#DejaVuSans-6f" transform="translate(878.808594 0)"/>
      <use xlink:href="#DejaVuSans-6e" transform="translate(939.990234 0)"/>
      <use xlink:href="#DejaVuSans-20" transform="translate(1003.369141 0)"/>
      <use xlink:href="#DejaVuSans-28" transform="translate(1035.15625 0)"/>
      <use xlink:href="#DejaVuSans-25" transform="translate(1074.169922 0)"/>
      <use xlink:href="#DejaVuSans-29" transform="translate(1169.189453 0)"/>
     </g>
    </g>
   </g>
   <g id="line2d_81">
    <path d="M 61.086818 230.571737 
L 323.455517 230.48677 
L 327.400911 230.325487 
L 331.346305 229.912916 
L 333.319002 229.525967 
L 335.291699 228.944612 
L 337.264396 228.090196 
L 339.237093 226.862048 
L 341.20979 225.135864 
L 343.182487 222.764151 
L 345.155184 219.579656 
L 347.127881 215.402672 
L 349.100578 210.05287 
L 351.073275 203.365803 
L 353.045972 195.21358 
L 355.018669 185.528324 
L 356.991366 174.326124 
L 358.964063 161.72843 
L 360.93676 147.977358 
L 368.827548 90.463858 
L 370.800245 78.471523 
L 372.772942 68.721706 
L 374.745639 61.756574 
L 376.718336 57.977689 
L 378.691033 57.607675 
L 380.66373 60.668506 
L 382.636427 66.979347 
L 384.609124 76.174239 
L 386.581821 87.737238 
L 388.554518 101.050294 
L 396.445306 158.869467 
L 398.418003 171.738877 
L 400.3907 183.254137 
L 402.363397 193.26896 
L 404.336094 201.746339 
L 406.308791 208.738146 
L 408.281488 214.361449 
L 410.254185 218.774726 
L 412.226882 222.15645 
L 414.199579 224.687616 
L 414.199579 224.687616 
" clip-path="url(#p46726a8311)" style="fill: none; stroke: #1f77b4; stroke-width: 1.5; stroke-linecap: square"/>
   </g>
   <g id="line2d_82">
    <path d="M 61.086818 178.973634 
L 67.004909 178.135811 
L 72.923 177.612609 
L 78.841091 177.413645 
L 84.759182 177.542595 
L 90.677273 177.997074 
L 96.595364 178.768719 
L 102.513455 179.843439 
L 108.431546 181.201843 
L 114.349637 182.819825 
L 120.267728 184.669272 
L 126.185819 186.718877 
L 134.076607 189.704708 
L 143.940091 193.726303 
L 179.448637 208.557417 
L 187.339425 211.522374 
L 195.230213 214.26807 
L 203.121001 216.770445 
L 211.011789 219.016367 
L 218.902577 221.002494 
L 226.793365 222.733815 
L 234.684153 224.222026 
L 242.574941 225.48386 
L 250.465729 226.539474 
L 260.329214 227.602767 
L 270.192699 228.422872 
L 282.02888 229.146476 
L 293.865062 229.649493 
L 309.646638 230.075047 
L 329.373608 230.356309 
L 358.964063 230.517634 
L 414.199579 230.569023 
L 414.199579 230.569023 
" clip-path="url(#p46726a8311)" style="fill: none; stroke: #ff7f0e; stroke-width: 1.5; stroke-linecap: square"/>
   </g>
   <g id="line2d_83">
    <path d="M 61.086818 230.571737 
L 258.356517 230.484511 
L 266.247305 230.283018 
L 272.165396 229.913022 
L 276.11079 229.469077 
L 280.056183 228.776473 
L 284.001577 227.72886 
L 285.974274 227.031342 
L 287.946971 226.193179 
L 289.919668 225.19404 
L 291.892365 224.012592 
L 293.865062 222.626919 
L 295.837759 221.015069 
L 297.810456 219.155716 
L 299.783153 217.028926 
L 301.75585 214.617036 
L 303.728547 211.905607 
L 305.701244 208.884426 
L 307.673941 205.548535 
L 309.646638 201.899218 
L 311.619335 197.944929 
L 313.592032 193.702079 
L 317.537426 184.459575 
L 321.48282 174.479213 
L 329.373608 154.2034 
L 331.346305 149.498061 
L 333.319002 145.0981 
L 335.291699 141.082609 
L 337.264396 137.526499 
L 339.237093 134.498194 
L 341.20979 132.057446 
L 343.182487 130.253371 
L 345.155184 129.122814 
L 347.127881 128.689091 
L 349.100578 128.961196 
L 351.073275 129.933482 
L 353.045972 131.585867 
L 355.018669 133.884512 
L 356.991366 136.782983 
L 358.964063 140.223806 
L 360.93676 144.140358 
L 362.909457 148.459015 
L 366.854851 157.986918 
L 378.691033 188.128298 
L 382.636427 196.996554 
L 384.609124 201.018778 
L 386.581821 204.739065 
L 388.554518 208.147201 
L 390.527215 211.240333 
L 392.499912 214.022076 
L 394.472609 216.501527 
L 396.445306 218.692246 
L 398.418003 220.611243 
L 400.3907 222.278011 
L 402.363397 223.71363 
L 404.336094 224.93997 
L 406.308791 225.979008 
L 408.281488 226.852253 
L 410.254185 227.580296 
L 414.199579 228.676632 
L 414.199579 228.676632 
" clip-path="url(#p46726a8311)" style="fill: none; stroke: #d62728; stroke-width: 1.5; stroke-linecap: square"/>
   </g>
   <g id="line2d_84">
    <path d="M 61.086818 230.571737 
L 287.946971 230.500529 
L 289.919668 230.40091 
L 291.892365 230.18625 
L 293.865062 229.753478 
L 295.837759 228.93794 
L 297.810456 227.5032 
L 299.783153 225.15059 
L 301.75585 221.562714 
L 303.728547 216.48886 
L 305.701244 209.863979 
L 307.673941 201.929684 
L 311.619335 184.963235 
L 313.592032 178.063372 
L 315.564729 173.703491 
L 317.537426 172.629033 
L 319.510123 175.023072 
L 321.48282 180.451154 
L 323.455517 187.983629 
L 327.400911 204.707205 
L 329.373608 211.895459 
L 331.346305 217.508605 
L 333.319002 221.392565 
L 335.291699 223.642187 
L 337.264396 224.474797 
L 339.237093 224.122162 
L 341.20979 222.76328 
L 343.182487 220.499059 
L 345.155184 217.357647 
L 347.127881 213.316244 
L 349.100578 208.328381 
L 351.073275 202.350291 
L 353.045972 195.363743 
L 355.018669 187.39464 
L 356.991366 178.527098 
L 360.93676 158.773263 
L 364.882154 138.136892 
L 366.854851 128.374682 
L 368.827548 119.517289 
L 370.800245 111.959786 
L 372.772942 106.058406 
L 374.745639 102.10279 
L 376.718336 100.292444 
L 378.691033 100.720069 
L 380.66373 103.36369 
L 382.636427 108.08853 
L 384.609124 114.658396 
L 386.581821 122.755241 
L 388.554518 132.004652 
L 392.499912 152.353134 
L 396.445306 172.646497 
L 398.418003 181.999388 
L 400.3907 190.539922 
L 402.363397 198.144021 
L 404.336094 204.753751 
L 406.308791 210.368392 
L 408.281488 215.032879 
L 410.254185 218.825201 
L 412.226882 221.844124 
L 414.199579 224.198266 
L 414.199579 224.198266 
" clip-path="url(#p46726a8311)" style="fill: none; stroke: #bcbd22; stroke-width: 1.5; stroke-linecap: square"/>
   </g>
   <g id="line2d_85">
    <path d="M 61.086818 230.571737 
L 337.264396 230.494549 
L 341.20979 230.295275 
L 343.182487 230.070135 
L 345.155184 229.686889 
L 347.127881 229.054113 
L 349.100578 228.041006 
L 351.073275 226.468619 
L 353.045972 224.103763 
L 355.018669 220.658654 
L 356.991366 215.79987 
L 358.964063 209.170039 
L 360.93676 200.424514 
L 362.909457 189.282905 
L 364.882154 175.591818 
L 366.854851 159.391111 
L 368.827548 140.972208 
L 372.772942 100.089258 
L 374.745639 79.614216 
L 376.718336 60.769456 
L 378.691033 44.868917 
L 380.66373 33.111485 
L 382.636427 26.432218 
L 384.609124 25.379607 
L 386.581821 30.041196 
L 388.554518 40.031562 
L 390.527215 54.544931 
L 392.499912 72.462491 
L 396.445306 113.332544 
L 398.418003 133.786323 
L 400.3907 152.887444 
L 402.363397 169.947996 
L 404.336094 184.573788 
L 406.308791 196.638882 
L 408.281488 206.233531 
L 410.254185 213.59935 
L 412.226882 219.064171 
L 414.199579 222.985782 
L 414.199579 222.985782 
" clip-path="url(#p46726a8311)" style="fill: none; stroke: #17becf; stroke-width: 1.5; stroke-linecap: square"/>
   </g>
   <g id="line2d_86">
    <path d="M 61.086818 230.571737 
L 285.974274 230.488851 
L 293.865062 230.245345 
L 297.810456 229.95798 
L 301.75585 229.458285 
L 305.701244 228.622945 
L 307.673941 228.028016 
L 309.646638 227.281113 
L 311.619335 226.352911 
L 313.592032 225.211183 
L 315.564729 223.821291 
L 317.537426 222.146931 
L 319.510123 220.151153 
L 321.48282 217.797679 
L 323.455517 215.052499 
L 325.428214 211.885725 
L 327.400911 208.273655 
L 329.373608 204.200949 
L 331.346305 199.662849 
L 333.319002 194.667281 
L 335.291699 189.236731 
L 339.237093 177.24176 
L 343.182487 164.190775 
L 349.100578 144.385695 
L 351.073275 138.220203 
L 353.045972 132.497264 
L 355.018669 127.349673 
L 356.991366 122.901966 
L 358.964063 119.265442 
L 360.93676 116.533537 
L 362.909457 114.77784 
L 364.882154 114.044975 
L 366.854851 114.354546 
L 368.827548 115.698261 
L 370.800245 118.040307 
L 372.772942 121.31893 
L 374.745639 125.449145 
L 376.718336 130.326393 
L 378.691033 135.830937 
L 380.66373 141.832728 
L 384.609124 154.78666 
L 390.527215 174.651043 
L 394.472609 186.91125 
L 396.445306 192.508684 
L 398.418003 197.684805 
L 400.3907 202.410756 
L 402.363397 206.672893 
L 404.336094 210.471059 
L 406.308791 213.816553 
L 408.281488 216.729943 
L 410.254185 219.238858 
L 412.226882 221.375867 
L 414.199579 223.176534 
L 414.199579 223.176534 
" clip-path="url(#p46726a8311)" style="fill: none; stroke: #7f7f7f; stroke-width: 1.5; stroke-linecap: square"/>
   </g>
   <g id="patch_3">
    <path d="M 57.71 229.552 
L 57.71 15.12 
" style="fill: none; stroke: #000000; stroke-width: 0.8; stroke-linejoin: miter; stroke-linecap: square"/>
   </g>
   <g id="patch_4">
    <path d="M 416.88 229.552 
L 416.88 15.12 
" style="fill: none; stroke: #000000; stroke-width: 0.8; stroke-linejoin: miter; stroke-linecap: square"/>
   </g>
   <g id="patch_5">
    <path d="M 57.71 229.552 
L 416.88 229.552 
" style="fill: none; stroke: #000000; stroke-width: 0.8; stroke-linejoin: miter; stroke-linecap: square"/>
   </g>
   <g id="patch_6">
    <path d="M 57.71 15.12 
L 416.88 15.12 
" style="fill: none; stroke: #000000; stroke-width: 0.8; stroke-linejoin: miter; stroke-linecap: square"/>
   </g>
  </g>
 </g>
 <defs>
  <clipPath id="p46726a8311">
   <rect x="57.71" y="15.12" width="359.17" height="214.432"/>
  </clipPath>
 </defs>
</svg>
