<?xml version="1.0" encoding="utf-8" standalone="no"?>
<!DOCTYPE svg PUBLIC "-//W3C//DTD SVG 1.1//EN"
  "http://www.w3.org/Graphics/SVG/1.1/DTD/svg11.dtd">
<svg xmlns:xlink="http://www.w3.org/1999/xlink" width="576pt" height="432pt" viewBox="0 0 576 432" xmlns="http://www.w3.org/2000/svg" version="1.1">
 <metadata>
  <rdf:RDF xmlns:dc="http://purl.org/dc/elements/1.1/" xmlns:cc="http://creativecommons.org/ns#" xmlns:rdf="http://www.w3.org/1999/02/22-rdf-syntax-ns#">
   <cc:Work>
    <dc:type rdf:resource="http://purl.org/dc/dcmitype/StillImage"/>
    <dc:date>2025-10-07T14:37:59.069547</dc:date>
    <dc:format>image/svg+xml</dc:format>
    <dc:creator>
     <cc:Agent>
      <dc:title>Matplotlib v3.10.0, https://matplotlib.org/</dc:title>
     </cc:Agent>
    </dc:creator>
   </cc:Work>
  </rdf:RDF>
 </metadata>
 <defs>
  <style type="text/css">*{stroke-linejoin: round; stroke-linecap: butt}</style>
 </defs>
 <g id="figure_1">
  <g id="patch_1">
   <path d="M 0 432 
L 576 432 
L 576 0 
L 0 0 
z
" style="fill: #ffffff"/>
  </g>
  <g id="axes_1">
   <g id="patch_2">
    <path d="M 72 384.48 
L 274.909091 384.48 
L 274.909091 51.84 
L 72 51.84 
z
" style="fill: #ffffff"/>
   </g>
   <g id="matplotlib.axis_1">
    <g id="xtick_1">
     <g id="line2d_1">
      <path d="M 75.326379 384.48 
L 75.326379 51.84 
" clip-path="url(#p248f2dc3cc)" style="fill: none; stroke-dasharray: 1.85,0.8; stroke-dashoffset: 0; stroke: #b0b0b0; stroke-width: 0.5"/>
     </g>
     <g id="line2d_2">
      <defs>
       <path id="m78e8b7f0aa" d="M 0 0 
L 0 3.5 
" style="stroke: #000000; stroke-width: 0.8"/>
      </defs>
      <g>
       <use xlink:href="#m78e8b7f0aa" x="75.326379" y="384.48" style="stroke: #000000; stroke-width: 0.8"/>
      </g>
     </g>
     <g id="text_1">
      <!-- 0 -->
      <g transform="translate(71.508879 400.598125) scale(0.12 -0.12)">
       <defs>
        <path id="DejaVuSans-30" d="M 2034 4250 
Q 1547 4250 1301 3770 
Q 1056 3291 1056 2328 
Q 1056 1369 1301 889 
Q 1547 409 2034 409 
Q 2525 409 2770 889 
Q 3016 1369 3016 2328 
Q 3016 3291 2770 3770 
Q 2525 4250 2034 4250 
z
M 2034 4750 
Q 2819 4750 3233 4129 
Q 3647 3509 3647 2328 
Q 3647 1150 3233 529 
Q 2819 -91 2034 -91 
Q 1250 -91 836 529 
Q 422 1150 422 2328 
Q 422 3509 836 4129 
Q 1250 4750 2034 4750 
z
" transform="scale(0.015625)"/>
       </defs>
       <use xlink:href="#DejaVuSans-30"/>
      </g>
     </g>
    </g>
    <g id="xtick_2">
     <g id="line2d_3">
      <path d="M 141.853949 384.48 
L 141.853949 51.84 
" clip-path="url(#p248f2dc3cc)" style="fill: none; stroke-dasharray: 1.85,0.8; stroke-dashoffset: 0; stroke: #b0b0b0; stroke-width: 0.5"/>
     </g>
     <g id="line2d_4">
      <g>
       <use xlink:href="#m78e8b7f0aa" x="141.853949" y="384.48" style="stroke: #000000; stroke-width: 0.8"/>
      </g>
     </g>
     <g id="text_2">
      <!-- 10 -->
      <g transform="translate(134.218949 400.598125) scale(0.12 -0.12)">
       <defs>
        <path id="DejaVuSans-31" d="M 794 531 
L 1825 531 
L 1825 4091 
L 703 3866 
L 703 4441 
L 1819 4666 
L 2450 4666 
L 2450 531 
L 3481 531 
L 3481 0 
L 794 0 
L 794 531 
z
" transform="scale(0.015625)"/>
       </defs>
       <use xlink:href="#DejaVuSans-31"/>
       <use xlink:href="#DejaVuSans-30" transform="translate(63.623047 0)"/>
      </g>
     </g>
    </g>
    <g id="xtick_3">
     <g id="line2d_5">
      <path d="M 208.38152 384.48 
L 208.38152 51.84 
" clip-path="url(#p248f2dc3cc)" style="fill: none; stroke-dasharray: 1.85,0.8; stroke-dashoffset: 0; stroke: #b0b0b0; stroke-width: 0.5"/>
     </g>
     <g id="line2d_6">
      <g>
       <use xlink:href="#m78e8b7f0aa" x="208.38152" y="384.48" style="stroke: #000000; stroke-width: 0.8"/>
      </g>
     </g>
     <g id="text_3">
      <!-- 20 -->
      <g transform="translate(200.74652 400.598125) scale(0.12 -0.12)">
       <defs>
        <path id="DejaVuSans-32" d="M 1228 531 
L 3431 531 
L 3431 0 
L 469 0 
L 469 531 
Q 828 903 1448 1529 
Q 2069 2156 2228 2338 
Q 2531 2678 2651 2914 
Q 2772 3150 2772 3378 
Q 2772 3750 2511 3984 
Q 2250 4219 1831 4219 
Q 1534 4219 1204 4116 
Q 875 4013 500 3803 
L 500 4441 
Q 881 4594 1212 4672 
Q 1544 4750 1819 4750 
Q 2544 4750 2975 4387 
Q 3406 4025 3406 3419 
Q 3406 3131 3298 2873 
Q 3191 2616 2906 2266 
Q 2828 2175 2409 1742 
Q 1991 1309 1228 531 
z
" transform="scale(0.015625)"/>
       </defs>
       <use xlink:href="#DejaVuSans-32"/>
       <use xlink:href="#DejaVuSans-30" transform="translate(63.623047 0)"/>
      </g>
     </g>
    </g>
    <g id="xtick_4">
     <g id="line2d_7">
      <path d="M 274.909091 384.48 
L 274.909091 51.84 
" clip-path="url(#p248f2dc3cc)" style="fill: none; stroke-dasharray: 1.85,0.8; stroke-dashoffset: 0; stroke: #b0b0b0; stroke-width: 0.5"/>
     </g>
     <g id="line2d_8">
      <g>
       <use xlink:href="#m78e8b7f0aa" x="274.909091" y="384.48" style="stroke: #000000; stroke-width: 0.8"/>
      </g>
     </g>
     <g id="text_4">
      <!-- 30 -->
      <g transform="translate(267.274091 400.598125) scale(0.12 -0.12)">
       <defs>
        <path id="DejaVuSans-33" d="M 2597 2516 
Q 3050 2419 3304 2112 
Q 3559 1806 3559 1356 
Q 3559 666 3084 287 
Q 2609 -91 1734 -91 
Q 1441 -91 1130 -33 
Q 819 25 488 141 
L 488 750 
Q 750 597 1062 519 
Q 1375 441 1716 441 
Q 2309 441 2620 675 
Q 2931 909 2931 1356 
Q 2931 1769 2642 2001 
Q 2353 2234 1838 2234 
L 1294 2234 
L 1294 2753 
L 1863 2753 
Q 2328 2753 2575 2939 
Q 2822 3125 2822 3475 
Q 2822 3834 2567 4026 
Q 2313 4219 1838 4219 
Q 1578 4219 1281 4162 
Q 984 4106 628 3988 
L 628 4550 
Q 988 4650 1302 4700 
Q 1616 4750 1894 4750 
Q 2613 4750 3031 4423 
Q 3450 4097 3450 3541 
Q 3450 3153 3228 2886 
Q 3006 2619 2597 2516 
z
" transform="scale(0.015625)"/>
       </defs>
       <use xlink:href="#DejaVuSans-33"/>
       <use xlink:href="#DejaVuSans-30" transform="translate(63.623047 0)"/>
      </g>
     </g>
    </g>
    <g id="text_5">
     <!-- De -->
     <g transform="translate(165.14267 416.211875) scale(0.12 -0.12)">
      <defs>
       <path id="DejaVuSans-44" d="M 1259 4147 
L 1259 519 
L 2022 519 
Q 2988 519 3436 956 
Q 3884 1394 3884 2338 
Q 3884 3275 3436 3711 
Q 2988 4147 2022 4147 
L 1259 4147 
z
M 628 4666 
L 1925 4666 
Q 3281 4666 3915 4102 
Q 4550 3538 4550 2338 
Q 4550 1131 3912 565 
Q 3275 0 1925 0 
L 628 0 
L 628 4666 
z
" transform="scale(0.015625)"/>
       <path id="DejaVuSans-65" d="M 3597 1894 
L 3597 1613 
L 953 1613 
Q 991 1019 1311 708 
Q 1631 397 2203 397 
Q 2534 397 2845 478 
Q 3156 559 3463 722 
L 3463 178 
Q 3153 47 2828 -22 
Q 2503 -91 2169 -91 
Q 1331 -91 842 396 
Q 353 884 353 1716 
Q 353 2575 817 3079 
Q 1281 3584 2069 3584 
Q 2775 3584 3186 3129 
Q 3597 2675 3597 1894 
z
M 3022 2063 
Q 3016 2534 2758 2815 
Q 2500 3097 2075 3097 
Q 1594 3097 1305 2825 
Q 1016 2553 972 2059 
L 3022 2063 
z
" transform="scale(0.015625)"/>
      </defs>
      <use xlink:href="#DejaVuSans-44"/>
      <use xlink:href="#DejaVuSans-65" transform="translate(77.001953 0)"/>
     </g>
    </g>
   </g>
   <g id="matplotlib.axis_2">
    <g id="ytick_1">
     <g id="line2d_9">
      <path d="M 72 384.48 
L 274.909091 384.48 
" clip-path="url(#p248f2dc3cc)" style="fill: none; stroke-dasharray: 1.85,0.8; stroke-dashoffset: 0; stroke: #b0b0b0; stroke-width: 0.5"/>
     </g>
     <g id="line2d_10">
      <defs>
       <path id="ma572a37e58" d="M 0 0 
L -3.5 0 
" style="stroke: #000000; stroke-width: 0.8"/>
      </defs>
      <g>
       <use xlink:href="#ma572a37e58" x="72" y="384.48" style="stroke: #000000; stroke-width: 0.8"/>
      </g>
     </g>
     <g id="text_6">
      <!-- 6 -->
      <g transform="translate(57.365 389.039063) scale(0.12 -0.12)">
       <defs>
        <path id="DejaVuSans-36" d="M 2113 2584 
Q 1688 2584 1439 2293 
Q 1191 2003 1191 1497 
Q 1191 994 1439 701 
Q 1688 409 2113 409 
Q 2538 409 2786 701 
Q 3034 994 3034 1497 
Q 3034 2003 2786 2293 
Q 2538 2584 2113 2584 
z
M 3366 4563 
L 3366 3988 
Q 3128 4100 2886 4159 
Q 2644 4219 2406 4219 
Q 1781 4219 1451 3797 
Q 1122 3375 1075 2522 
Q 1259 2794 1537 2939 
Q 1816 3084 2150 3084 
Q 2853 3084 3261 2657 
Q 3669 2231 3669 1497 
Q 3669 778 3244 343 
Q 2819 -91 2113 -91 
Q 1303 -91 875 529 
Q 447 1150 447 2328 
Q 447 3434 972 4092 
Q 1497 4750 2381 4750 
Q 2619 4750 2861 4703 
Q 3103 4656 3366 4563 
z
" transform="scale(0.015625)"/>
       </defs>
       <use xlink:href="#DejaVuSans-36"/>
      </g>
     </g>
    </g>
    <g id="ytick_2">
     <g id="line2d_11">
      <path d="M 72 278.902125 
L 274.909091 278.902125 
" clip-path="url(#p248f2dc3cc)" style="fill: none; stroke-dasharray: 1.85,0.8; stroke-dashoffset: 0; stroke: #b0b0b0; stroke-width: 0.5"/>
     </g>
     <g id="line2d_12">
      <g>
       <use xlink:href="#ma572a37e58" x="72" y="278.902125" style="stroke: #000000; stroke-width: 0.8"/>
      </g>
     </g>
     <g id="text_7">
      <!-- 10 -->
      <g transform="translate(49.73 283.461187) scale(0.12 -0.12)">
       <use xlink:href="#DejaVuSans-31"/>
       <use xlink:href="#DejaVuSans-30" transform="translate(63.623047 0)"/>
      </g>
     </g>
    </g>
    <g id="ytick_3">
     <g id="line2d_13">
      <path d="M 72 135.641874 
L 274.909091 135.641874 
" clip-path="url(#p248f2dc3cc)" style="fill: none; stroke-dasharray: 1.85,0.8; stroke-dashoffset: 0; stroke: #b0b0b0; stroke-width: 0.5"/>
     </g>
     <g id="line2d_14">
      <g>
       <use xlink:href="#ma572a37e58" x="72" y="135.641874" style="stroke: #000000; stroke-width: 0.8"/>
      </g>
     </g>
     <g id="text_8">
      <!-- 20 -->
      <g transform="translate(49.73 140.200937) scale(0.12 -0.12)">
       <use xlink:href="#DejaVuSans-32"/>
       <use xlink:href="#DejaVuSans-30" transform="translate(63.623047 0)"/>
      </g>
     </g>
    </g>
    <g id="ytick_4">
     <g id="line2d_15">
      <path d="M 72 51.84 
L 274.909091 51.84 
" clip-path="url(#p248f2dc3cc)" style="fill: none; stroke-dasharray: 1.85,0.8; stroke-dashoffset: 0; stroke: #b0b0b0; stroke-width: 0.5"/>
     </g>
     <g id="line2d_16">
      <g>
       <use xlink:href="#ma572a37e58" x="72" y="51.84" style="stroke: #000000; stroke-width: 0.8"/>
      </g>
     </g>
     <g id="text_9">
      <!-- 30 -->
      <g transform="translate(49.73 56.399063) scale(0.12 -0.12)">
       <use xlink:href="#DejaVuSans-33"/>
       <use xlink:href="#DejaVuSans-30" transform="translate(63.623047 0)"/>
      </g>
     </g>
    </g>
    <g id="ytick_5">
     <g id="line2d_17">
      <path d="M 72 352.620006 
L 274.909091 352.620006 
" clip-path="url(#p248f2dc3cc)" style="fill: none; stroke-dasharray: 1.85,0.8; stroke-dashoffset: 0; stroke: #b0b0b0; stroke-width: 0.5"/>
     </g>
     <g id="line2d_18">
      <defs>
       <path id="m9526a0b7e2" d="M 0 0 
L -2 0 
" style="stroke: #000000; stroke-width: 0.6"/>
      </defs>
      <g>
       <use xlink:href="#m9526a0b7e2" x="72" y="352.620006" style="stroke: #000000; stroke-width: 0.6"/>
      </g>
     </g>
    </g>
    <g id="ytick_6">
     <g id="line2d_19">
      <path d="M 72 325.021624 
L 274.909091 325.021624 
" clip-path="url(#p248f2dc3cc)" style="fill: none; stroke-dasharray: 1.85,0.8; stroke-dashoffset: 0; stroke: #b0b0b0; stroke-width: 0.5"/>
     </g>
     <g id="line2d_20">
      <g>
       <use xlink:href="#m9526a0b7e2" x="72" y="325.021624" style="stroke: #000000; stroke-width: 0.6"/>
      </g>
     </g>
    </g>
    <g id="ytick_7">
     <g id="line2d_21">
      <path d="M 72 300.678126 
L 274.909091 300.678126 
" clip-path="url(#p248f2dc3cc)" style="fill: none; stroke-dasharray: 1.85,0.8; stroke-dashoffset: 0; stroke: #b0b0b0; stroke-width: 0.5"/>
     </g>
     <g id="line2d_22">
      <g>
       <use xlink:href="#m9526a0b7e2" x="72" y="300.678126" style="stroke: #000000; stroke-width: 0.6"/>
      </g>
     </g>
    </g>
    <g id="text_10">
     <!-- Mode diameter (μm) -->
     <g transform="translate(43.234375 279.86625) rotate(-90) scale(0.12 -0.12)">
      <defs>
       <path id="DejaVuSans-4d" d="M 628 4666 
L 1569 4666 
L 2759 1491 
L 3956 4666 
L 4897 4666 
L 4897 0 
L 4281 0 
L 4281 4097 
L 3078 897 
L 2444 897 
L 1241 4097 
L 1241 0 
L 628 0 
L 628 4666 
z
" transform="scale(0.015625)"/>
       <path id="DejaVuSans-6f" d="M 1959 3097 
Q 1497 3097 1228 2736 
Q 959 2375 959 1747 
Q 959 1119 1226 758 
Q 1494 397 1959 397 
Q 2419 397 2687 759 
Q 2956 1122 2956 1747 
Q 2956 2369 2687 2733 
Q 2419 3097 1959 3097 
z
M 1959 3584 
Q 2709 3584 3137 3096 
Q 3566 2609 3566 1747 
Q 3566 888 3137 398 
Q 2709 -91 1959 -91 
Q 1206 -91 779 398 
Q 353 888 353 1747 
Q 353 2609 779 3096 
Q 1206 3584 1959 3584 
z
" transform="scale(0.015625)"/>
       <path id="DejaVuSans-64" d="M 2906 2969 
L 2906 4863 
L 3481 4863 
L 3481 0 
L 2906 0 
L 2906 525 
Q 2725 213 2448 61 
Q 2172 -91 1784 -91 
Q 1150 -91 751 415 
Q 353 922 353 1747 
Q 353 2572 751 3078 
Q 1150 3584 1784 3584 
Q 2172 3584 2448 3432 
Q 2725 3281 2906 2969 
z
M 947 1747 
Q 947 1113 1208 752 
Q 1469 391 1925 391 
Q 2381 391 2643 752 
Q 2906 1113 2906 1747 
Q 2906 2381 2643 2742 
Q 2381 3103 1925 3103 
Q 1469 3103 1208 2742 
Q 947 2381 947 1747 
z
" transform="scale(0.015625)"/>
       <path id="DejaVuSans-20" transform="scale(0.015625)"/>
       <path id="DejaVuSans-69" d="M 603 3500 
L 1178 3500 
L 1178 0 
L 603 0 
L 603 3500 
z
M 603 4863 
L 1178 4863 
L 1178 4134 
L 603 4134 
L 603 4863 
z
" transform="scale(0.015625)"/>
       <path id="DejaVuSans-61" d="M 2194 1759 
Q 1497 1759 1228 1600 
Q 959 1441 959 1056 
Q 959 750 1161 570 
Q 1363 391 1709 391 
Q 2188 391 2477 730 
Q 2766 1069 2766 1631 
L 2766 1759 
L 2194 1759 
z
M 3341 1997 
L 3341 0 
L 2766 0 
L 2766 531 
Q 2569 213 2275 61 
Q 1981 -91 1556 -91 
Q 1019 -91 701 211 
Q 384 513 384 1019 
Q 384 1609 779 1909 
Q 1175 2209 1959 2209 
L 2766 2209 
L 2766 2266 
Q 2766 2663 2505 2880 
Q 2244 3097 1772 3097 
Q 1472 3097 1187 3025 
Q 903 2953 641 2809 
L 641 3341 
Q 956 3463 1253 3523 
Q 1550 3584 1831 3584 
Q 2591 3584 2966 3190 
Q 3341 2797 3341 1997 
z
" transform="scale(0.015625)"/>
       <path id="DejaVuSans-6d" d="M 3328 2828 
Q 3544 3216 3844 3400 
Q 4144 3584 4550 3584 
Q 5097 3584 5394 3201 
Q 5691 2819 5691 2113 
L 5691 0 
L 5113 0 
L 5113 2094 
Q 5113 2597 4934 2840 
Q 4756 3084 4391 3084 
Q 3944 3084 3684 2787 
Q 3425 2491 3425 1978 
L 3425 0 
L 2847 0 
L 2847 2094 
Q 2847 2600 2669 2842 
Q 2491 3084 2119 3084 
Q 1678 3084 1418 2786 
Q 1159 2488 1159 1978 
L 1159 0 
L 581 0 
L 581 3500 
L 1159 3500 
L 1159 2956 
Q 1356 3278 1631 3431 
Q 1906 3584 2284 3584 
Q 2666 3584 2933 3390 
Q 3200 3197 3328 2828 
z
" transform="scale(0.015625)"/>
       <path id="DejaVuSans-74" d="M 1172 4494 
L 1172 3500 
L 2356 3500 
L 2356 3053 
L 1172 3053 
L 1172 1153 
Q 1172 725 1289 603 
Q 1406 481 1766 481 
L 2356 481 
L 2356 0 
L 1766 0 
Q 1100 0 847 248 
Q 594 497 594 1153 
L 594 3053 
L 172 3053 
L 172 3500 
L 594 3500 
L 594 4494 
L 1172 4494 
z
" transform="scale(0.015625)"/>
       <path id="DejaVuSans-72" d="M 2631 2963 
Q 2534 3019 2420 3045 
Q 2306 3072 2169 3072 
Q 1681 3072 1420 2755 
Q 1159 2438 1159 1844 
L 1159 0 
L 581 0 
L 581 3500 
L 1159 3500 
L 1159 2956 
Q 1341 3275 1631 3429 
Q 1922 3584 2338 3584 
Q 2397 3584 2469 3576 
Q 2541 3569 2628 3553 
L 2631 2963 
z
" transform="scale(0.015625)"/>
       <path id="DejaVuSans-28" d="M 1984 4856 
Q 1566 4138 1362 3434 
Q 1159 2731 1159 2009 
Q 1159 1288 1364 580 
Q 1569 -128 1984 -844 
L 1484 -844 
Q 1016 -109 783 600 
Q 550 1309 550 2009 
Q 550 2706 781 3412 
Q 1013 4119 1484 4856 
L 1984 4856 
z
" transform="scale(0.015625)"/>
       <path id="DejaVuSans-3bc" d="M 544 -1331 
L 544 3500 
L 1119 3500 
L 1119 1325 
Q 1119 872 1334 640 
Q 1550 409 1972 409 
Q 2434 409 2667 671 
Q 2900 934 2900 1459 
L 2900 3500 
L 3475 3500 
L 3475 806 
Q 3475 619 3529 530 
Q 3584 441 3700 441 
Q 3728 441 3778 458 
Q 3828 475 3916 513 
L 3916 50 
Q 3788 -22 3673 -56 
Q 3559 -91 3450 -91 
Q 3234 -91 3106 31 
Q 2978 153 2931 403 
Q 2775 156 2548 32 
Q 2322 -91 2016 -91 
Q 1697 -91 1473 31 
Q 1250 153 1119 397 
L 1119 -1331 
L 544 -1331 
z
" transform="scale(0.015625)"/>
       <path id="DejaVuSans-29" d="M 513 4856 
L 1013 4856 
Q 1481 4119 1714 3412 
Q 1947 2706 1947 2009 
Q 1947 1309 1714 600 
Q 1481 -109 1013 -844 
L 513 -844 
Q 928 -128 1133 580 
Q 1338 1288 1338 2009 
Q 1338 2731 1133 3434 
Q 928 4138 513 4856 
z
" transform="scale(0.015625)"/>
      </defs>
      <use xlink:href="#DejaVuSans-4d"/>
      <use xlink:href="#DejaVuSans-6f" transform="translate(86.279297 0)"/>
      <use xlink:href="#DejaVuSans-64" transform="translate(147.460938 0)"/>
      <use xlink:href="#DejaVuSans-65" transform="translate(210.9375 0)"/>
      <use xlink:href="#DejaVuSans-20" transform="translate(272.460938 0)"/>
      <use xlink:href="#DejaVuSans-64" transform="translate(304.248047 0)"/>
      <use xlink:href="#DejaVuSans-69" transform="translate(367.724609 0)"/>
      <use xlink:href="#DejaVuSans-61" transform="translate(395.507812 0)"/>
      <use xlink:href="#DejaVuSans-6d" transform="translate(456.787109 0)"/>
      <use xlink:href="#DejaVuSans-65" transform="translate(554.199219 0)"/>
      <use xlink:href="#DejaVuSans-74" transform="translate(615.722656 0)"/>
      <use xlink:href="#DejaVuSans-65" transform="translate(654.931641 0)"/>
      <use xlink:href="#DejaVuSans-72" transform="translate(716.455078 0)"/>
      <use xlink:href="#DejaVuSans-20" transform="translate(757.568359 0)"/>
      <use xlink:href="#DejaVuSans-28" transform="translate(789.355469 0)"/>
      <use xlink:href="#DejaVuSans-3bc" transform="translate(828.369141 0)"/>
      <use xlink:href="#DejaVuSans-6d" transform="translate(891.992188 0)"/>
      <use xlink:href="#DejaVuSans-29" transform="translate(989.404297 0)"/>
     </g>
    </g>
   </g>
   <g id="LineCollection_1">
    <path d="M 95.28465 372.859826 
L 95.28465 341.141764 
" clip-path="url(#p248f2dc3cc)" style="fill: none; stroke: #1f77b4; stroke-width: 1.5"/>
    <path d="M 248.298063 309.414484 
L 248.298063 277.686291 
" clip-path="url(#p248f2dc3cc)" style="fill: none; stroke: #1f77b4; stroke-width: 1.5"/>
    <path clip-path="url(#p248f2dc3cc)" style="fill: none; stroke: #1f77b4; stroke-width: 1.5"/>
    <path clip-path="url(#p248f2dc3cc)" style="fill: none; stroke: #1f77b4; stroke-width: 1.5"/>
    <path d="M 75.326379 309.414484 
L 75.326379 277.686291 
" clip-path="url(#p248f2dc3cc)" style="fill: none; stroke: #1f77b4; stroke-width: 1.5"/>
   </g>
   <g id="line2d_23">
    <defs>
     <path id="m24ae3e9558" d="M 3 0 
L -3 -0 
" style="stroke: #1f77b4"/>
    </defs>
    <g clip-path="url(#p248f2dc3cc)">
     <use xlink:href="#m24ae3e9558" x="95.28465" y="372.859826" style="fill: #1f77b4; stroke: #1f77b4"/>
     <use xlink:href="#m24ae3e9558" x="248.298063" y="309.414484" style="fill: #1f77b4; stroke: #1f77b4"/>
     <use xlink:href="#m24ae3e9558" x="529.000321" y="-1" style="fill: #1f77b4; stroke: #1f77b4"/>
     <use xlink:href="#m24ae3e9558" x="776.301032" y="-1" style="fill: #1f77b4; stroke: #1f77b4"/>
     <use xlink:href="#m24ae3e9558" x="75.326379" y="309.414484" style="fill: #1f77b4; stroke: #1f77b4"/>
    </g>
   </g>
   <g id="line2d_24">
    <g clip-path="url(#p248f2dc3cc)">
     <use xlink:href="#m24ae3e9558" x="95.28465" y="341.141764" style="fill: #1f77b4; stroke: #1f77b4"/>
     <use xlink:href="#m24ae3e9558" x="248.298063" y="277.686291" style="fill: #1f77b4; stroke: #1f77b4"/>
     <use xlink:href="#m24ae3e9558" x="500.309757" y="-1" style="fill: #1f77b4; stroke: #1f77b4"/>
     <use xlink:href="#m24ae3e9558" x="704.653887" y="-1" style="fill: #1f77b4; stroke: #1f77b4"/>
     <use xlink:href="#m24ae3e9558" x="75.326379" y="277.686291" style="fill: #1f77b4; stroke: #1f77b4"/>
    </g>
   </g>
   <g id="LineCollection_2">
    <path d="M 82.910522 245.958426 
L 82.910522 214.229386 
" clip-path="url(#p248f2dc3cc)" style="fill: none; stroke: #ff7f0e; stroke-width: 1.5"/>
    <path d="M 87.301341 341.141764 
L 87.301341 309.414484 
" clip-path="url(#p248f2dc3cc)" style="fill: none; stroke: #ff7f0e; stroke-width: 1.5"/>
    <path d="M 93.488405 341.141764 
L 93.488405 309.414484 
" clip-path="url(#p248f2dc3cc)" style="fill: none; stroke: #ff7f0e; stroke-width: 1.5"/>
    <path d="M 115.109866 341.141764 
L 115.109866 309.414484 
" clip-path="url(#p248f2dc3cc)" style="fill: none; stroke: #ff7f0e; stroke-width: 1.5"/>
    <path d="M 75.326379 150.777012 
L 75.326379 119.052479 
" clip-path="url(#p248f2dc3cc)" style="fill: none; stroke: #ff7f0e; stroke-width: 1.5"/>
   </g>
   <g id="line2d_25">
    <defs>
     <path id="m44cf817352" d="M 3 0 
L -3 -0 
" style="stroke: #ff7f0e"/>
    </defs>
    <g clip-path="url(#p248f2dc3cc)">
     <use xlink:href="#m44cf817352" x="82.910522" y="245.958426" style="fill: #ff7f0e; stroke: #ff7f0e"/>
     <use xlink:href="#m44cf817352" x="87.301341" y="341.141764" style="fill: #ff7f0e; stroke: #ff7f0e"/>
     <use xlink:href="#m44cf817352" x="93.488405" y="341.141764" style="fill: #ff7f0e; stroke: #ff7f0e"/>
     <use xlink:href="#m44cf817352" x="115.109866" y="341.141764" style="fill: #ff7f0e; stroke: #ff7f0e"/>
     <use xlink:href="#m44cf817352" x="75.326379" y="150.777012" style="fill: #ff7f0e; stroke: #ff7f0e"/>
    </g>
   </g>
   <g id="line2d_26">
    <g clip-path="url(#p248f2dc3cc)">
     <use xlink:href="#m44cf817352" x="82.910522" y="214.229386" style="fill: #ff7f0e; stroke: #ff7f0e"/>
     <use xlink:href="#m44cf817352" x="87.301341" y="309.414484" style="fill: #ff7f0e; stroke: #ff7f0e"/>
     <use xlink:href="#m44cf817352" x="93.488405" y="309.414484" style="fill: #ff7f0e; stroke: #ff7f0e"/>
     <use xlink:href="#m44cf817352" x="115.109866" y="309.414484" style="fill: #ff7f0e; stroke: #ff7f0e"/>
     <use xlink:href="#m44cf817352" x="75.326379" y="119.052479" style="fill: #ff7f0e; stroke: #ff7f0e"/>
    </g>
   </g>
   <g id="line2d_27">
    <defs>
     <path id="m28f75a605f" d="M 0 2 
C 0.530406 2 1.03916 1.789267 1.414214 1.414214 
C 1.789267 1.03916 2 0.530406 2 0 
C 2 -0.530406 1.789267 -1.03916 1.414214 -1.414214 
C 1.03916 -1.789267 0.530406 -2 0 -2 
C -0.530406 -2 -1.03916 -1.789267 -1.414214 -1.414214 
C -1.789267 -1.03916 -2 -0.530406 -2 0 
C -2 0.530406 -1.789267 1.03916 -1.414214 1.414214 
C -1.03916 1.789267 -0.530406 2 0 2 
z
" style="stroke: #1f77b4"/>
    </defs>
    <g clip-path="url(#p248f2dc3cc)">
     <use xlink:href="#m28f75a605f" x="95.28465" y="356.392944" style="fill: #1f77b4; stroke: #1f77b4"/>
     <use xlink:href="#m28f75a605f" x="248.298063" y="292.942148" style="fill: #1f77b4; stroke: #1f77b4"/>
     <use xlink:href="#m28f75a605f" x="514.105065" y="-1" style="fill: #1f77b4; stroke: #1f77b4"/>
     <use xlink:href="#m28f75a605f" x="739.104016" y="-1" style="fill: #1f77b4; stroke: #1f77b4"/>
     <use xlink:href="#m28f75a605f" x="75.326379" y="292.942148" style="fill: #1f77b4; stroke: #1f77b4"/>
    </g>
   </g>
   <g id="line2d_28">
    <defs>
     <path id="m5bff16946a" d="M 0 2 
C 0.530406 2 1.03916 1.789267 1.414214 1.414214 
C 1.789267 1.03916 2 0.530406 2 0 
C 2 -0.530406 1.789267 -1.03916 1.414214 -1.414214 
C 1.03916 -1.789267 0.530406 -2 0 -2 
C -0.530406 -2 -1.03916 -1.789267 -1.414214 -1.414214 
C -1.789267 -1.03916 -2 -0.530406 -2 0 
C -2 0.530406 -1.789267 1.03916 -1.414214 1.414214 
C -1.03916 1.789267 -0.530406 2 0 2 
z
" style="stroke: #ff7f0e"/>
    </defs>
    <g clip-path="url(#p248f2dc3cc)">
     <use xlink:href="#m5bff16946a" x="82.910522" y="229.485634" style="fill: #ff7f0e; stroke: #ff7f0e"/>
     <use xlink:href="#m5bff16946a" x="87.301341" y="324.66992" style="fill: #ff7f0e; stroke: #ff7f0e"/>
     <use xlink:href="#m5bff16946a" x="93.488405" y="324.66992" style="fill: #ff7f0e; stroke: #ff7f0e"/>
     <use xlink:href="#m5bff16946a" x="115.109866" y="324.66992" style="fill: #ff7f0e; stroke: #ff7f0e"/>
     <use xlink:href="#m5bff16946a" x="75.326379" y="134.306646" style="fill: #ff7f0e; stroke: #ff7f0e"/>
    </g>
   </g>
   <g id="patch_3">
    <path d="M 72 384.48 
L 72 51.84 
" style="fill: none; stroke: #000000; stroke-width: 0.8; stroke-linejoin: miter; stroke-linecap: square"/>
   </g>
   <g id="patch_4">
    <path d="M 274.909091 384.48 
L 274.909091 51.84 
" style="fill: none; stroke: #000000; stroke-width: 0.8; stroke-linejoin: miter; stroke-linecap: square"/>
   </g>
   <g id="patch_5">
    <path d="M 72 384.48 
L 274.909091 384.48 
" style="fill: none; stroke: #000000; stroke-width: 0.8; stroke-linejoin: miter; stroke-linecap: square"/>
   </g>
   <g id="patch_6">
    <path d="M 72 51.84 
L 274.909091 51.84 
" style="fill: none; stroke: #000000; stroke-width: 0.8; stroke-linejoin: miter; stroke-linecap: square"/>
   </g>
   <g id="text_11">
    <!-- a. -->
    <g transform="translate(75.576477 75.955575) scale(0.12 -0.12)">
     <defs>
      <path id="DejaVuSans-Bold-61" d="M 2106 1575 
Q 1756 1575 1579 1456 
Q 1403 1338 1403 1106 
Q 1403 894 1545 773 
Q 1688 653 1941 653 
Q 2256 653 2472 879 
Q 2688 1106 2688 1447 
L 2688 1575 
L 2106 1575 
z
M 3816 1997 
L 3816 0 
L 2688 0 
L 2688 519 
Q 2463 200 2181 54 
Q 1900 -91 1497 -91 
Q 953 -91 614 226 
Q 275 544 275 1050 
Q 275 1666 698 1953 
Q 1122 2241 2028 2241 
L 2688 2241 
L 2688 2328 
Q 2688 2594 2478 2717 
Q 2269 2841 1825 2841 
Q 1466 2841 1156 2769 
Q 847 2697 581 2553 
L 581 3406 
Q 941 3494 1303 3539 
Q 1666 3584 2028 3584 
Q 2975 3584 3395 3211 
Q 3816 2838 3816 1997 
z
" transform="scale(0.015625)"/>
      <path id="DejaVuSans-Bold-2e" d="M 653 1209 
L 1778 1209 
L 1778 0 
L 653 0 
L 653 1209 
z
" transform="scale(0.015625)"/>
     </defs>
     <use xlink:href="#DejaVuSans-Bold-61"/>
     <use xlink:href="#DejaVuSans-Bold-2e" transform="translate(67.480469 0)"/>
    </g>
   </g>
  </g>
  <g id="axes_2">
   <g id="patch_7">
    <path d="M 315.490909 384.48 
L 518.4 384.48 
L 518.4 51.84 
L 315.490909 51.84 
z
" style="fill: #ffffff"/>
   </g>
   <g id="matplotlib.axis_3">
    <g id="xtick_5">
     <g id="line2d_29">
      <path d="M 324.71405 384.48 
L 324.71405 51.84 
" clip-path="url(#p96a8cd5dd4)" style="fill: none; stroke-dasharray: 1.85,0.8; stroke-dashoffset: 0; stroke: #b0b0b0; stroke-width: 0.5"/>
     </g>
     <g id="line2d_30">
      <g>
       <use xlink:href="#m78e8b7f0aa" x="324.71405" y="384.48" style="stroke: #000000; stroke-width: 0.8"/>
      </g>
     </g>
     <g id="text_12">
      <!-- 0 -->
      <g transform="translate(320.89655 400.598125) scale(0.12 -0.12)">
       <use xlink:href="#DejaVuSans-30"/>
      </g>
     </g>
    </g>
    <g id="xtick_6">
     <g id="line2d_31">
      <path d="M 390.593625 384.48 
L 390.593625 51.84 
" clip-path="url(#p96a8cd5dd4)" style="fill: none; stroke-dasharray: 1.85,0.8; stroke-dashoffset: 0; stroke: #b0b0b0; stroke-width: 0.5"/>
     </g>
     <g id="line2d_32">
      <g>
       <use xlink:href="#m78e8b7f0aa" x="390.593625" y="384.48" style="stroke: #000000; stroke-width: 0.8"/>
      </g>
     </g>
     <g id="text_13">
      <!-- 100 -->
      <g transform="translate(379.141125 400.598125) scale(0.12 -0.12)">
       <use xlink:href="#DejaVuSans-31"/>
       <use xlink:href="#DejaVuSans-30" transform="translate(63.623047 0)"/>
       <use xlink:href="#DejaVuSans-30" transform="translate(127.246094 0)"/>
      </g>
     </g>
    </g>
    <g id="xtick_7">
     <g id="line2d_33">
      <path d="M 456.4732 384.48 
L 456.4732 51.84 
" clip-path="url(#p96a8cd5dd4)" style="fill: none; stroke-dasharray: 1.85,0.8; stroke-dashoffset: 0; stroke: #b0b0b0; stroke-width: 0.5"/>
     </g>
     <g id="line2d_34">
      <g>
       <use xlink:href="#m78e8b7f0aa" x="456.4732" y="384.48" style="stroke: #000000; stroke-width: 0.8"/>
      </g>
     </g>
     <g id="text_14">
      <!-- 200 -->
      <g transform="translate(445.0207 400.598125) scale(0.12 -0.12)">
       <use xlink:href="#DejaVuSans-32"/>
       <use xlink:href="#DejaVuSans-30" transform="translate(63.623047 0)"/>
       <use xlink:href="#DejaVuSans-30" transform="translate(127.246094 0)"/>
      </g>
     </g>
    </g>
    <g id="text_15">
     <!-- De -->
     <g transform="translate(408.63358 416.211875) scale(0.12 -0.12)">
      <use xlink:href="#DejaVuSans-44"/>
      <use xlink:href="#DejaVuSans-65" transform="translate(77.001953 0)"/>
     </g>
    </g>
   </g>
   <g id="matplotlib.axis_4">
    <g id="ytick_8">
     <g id="line2d_35">
      <path d="M 315.490909 338.478807 
L 518.4 338.478807 
" clip-path="url(#p96a8cd5dd4)" style="fill: none; stroke-dasharray: 1.85,0.8; stroke-dashoffset: 0; stroke: #b0b0b0; stroke-width: 0.5"/>
     </g>
     <g id="line2d_36">
      <g>
       <use xlink:href="#ma572a37e58" x="315.490909" y="338.478807" style="stroke: #000000; stroke-width: 0.8"/>
      </g>
     </g>
     <g id="text_16">
      <!-- $\mathdefault{10^{1}}$ -->
      <g transform="translate(287.370909 343.03787) scale(0.12 -0.12)">
       <use xlink:href="#DejaVuSans-31" transform="translate(0 0.684375)"/>
       <use xlink:href="#DejaVuSans-30" transform="translate(63.623047 0.684375)"/>
       <use xlink:href="#DejaVuSans-31" transform="translate(128.203125 38.965625) scale(0.7)"/>
      </g>
     </g>
    </g>
    <g id="ytick_9">
     <g id="line2d_37">
      <path d="M 315.490909 182.064089 
L 518.4 182.064089 
" clip-path="url(#p96a8cd5dd4)" style="fill: none; stroke-dasharray: 1.85,0.8; stroke-dashoffset: 0; stroke: #b0b0b0; stroke-width: 0.5"/>
     </g>
     <g id="line2d_38">
      <g>
       <use xlink:href="#ma572a37e58" x="315.490909" y="182.064089" style="stroke: #000000; stroke-width: 0.8"/>
      </g>
     </g>
     <g id="text_17">
      <!-- $\mathdefault{10^{2}}$ -->
      <g transform="translate(287.370909 186.623151) scale(0.12 -0.12)">
       <use xlink:href="#DejaVuSans-31" transform="translate(0 0.765625)"/>
       <use xlink:href="#DejaVuSans-30" transform="translate(63.623047 0.765625)"/>
       <use xlink:href="#DejaVuSans-32" transform="translate(128.203125 39.046875) scale(0.7)"/>
      </g>
     </g>
    </g>
    <g id="ytick_10">
     <g id="line2d_39">
      <path d="M 315.490909 373.179217 
L 518.4 373.179217 
" clip-path="url(#p96a8cd5dd4)" style="fill: none; stroke-dasharray: 1.85,0.8; stroke-dashoffset: 0; stroke: #b0b0b0; stroke-width: 0.5"/>
     </g>
     <g id="line2d_40">
      <g>
       <use xlink:href="#m9526a0b7e2" x="315.490909" y="373.179217" style="stroke: #000000; stroke-width: 0.6"/>
      </g>
     </g>
    </g>
    <g id="ytick_11">
     <g id="line2d_41">
      <path d="M 315.490909 362.707754 
L 518.4 362.707754 
" clip-path="url(#p96a8cd5dd4)" style="fill: none; stroke-dasharray: 1.85,0.8; stroke-dashoffset: 0; stroke: #b0b0b0; stroke-width: 0.5"/>
     </g>
     <g id="line2d_42">
      <g>
       <use xlink:href="#m9526a0b7e2" x="315.490909" y="362.707754" style="stroke: #000000; stroke-width: 0.6"/>
      </g>
     </g>
    </g>
    <g id="ytick_12">
     <g id="line2d_43">
      <path d="M 315.490909 353.63696 
L 518.4 353.63696 
" clip-path="url(#p96a8cd5dd4)" style="fill: none; stroke-dasharray: 1.85,0.8; stroke-dashoffset: 0; stroke: #b0b0b0; stroke-width: 0.5"/>
     </g>
     <g id="line2d_44">
      <g>
       <use xlink:href="#m9526a0b7e2" x="315.490909" y="353.63696" style="stroke: #000000; stroke-width: 0.6"/>
      </g>
     </g>
    </g>
    <g id="ytick_13">
     <g id="line2d_45">
      <path d="M 315.490909 345.635952 
L 518.4 345.635952 
" clip-path="url(#p96a8cd5dd4)" style="fill: none; stroke-dasharray: 1.85,0.8; stroke-dashoffset: 0; stroke: #b0b0b0; stroke-width: 0.5"/>
     </g>
     <g id="line2d_46">
      <g>
       <use xlink:href="#m9526a0b7e2" x="315.490909" y="345.635952" style="stroke: #000000; stroke-width: 0.6"/>
      </g>
     </g>
    </g>
    <g id="ytick_14">
     <g id="line2d_47">
      <path d="M 315.490909 291.393285 
L 518.4 291.393285 
" clip-path="url(#p96a8cd5dd4)" style="fill: none; stroke-dasharray: 1.85,0.8; stroke-dashoffset: 0; stroke: #b0b0b0; stroke-width: 0.5"/>
     </g>
     <g id="line2d_48">
      <g>
       <use xlink:href="#m9526a0b7e2" x="315.490909" y="291.393285" style="stroke: #000000; stroke-width: 0.6"/>
      </g>
     </g>
    </g>
    <g id="ytick_15">
     <g id="line2d_49">
      <path d="M 315.490909 263.850021 
L 518.4 263.850021 
" clip-path="url(#p96a8cd5dd4)" style="fill: none; stroke-dasharray: 1.85,0.8; stroke-dashoffset: 0; stroke: #b0b0b0; stroke-width: 0.5"/>
     </g>
     <g id="line2d_50">
      <g>
       <use xlink:href="#m9526a0b7e2" x="315.490909" y="263.850021" style="stroke: #000000; stroke-width: 0.6"/>
      </g>
     </g>
    </g>
    <g id="ytick_16">
     <g id="line2d_51">
      <path d="M 315.490909 244.307763 
L 518.4 244.307763 
" clip-path="url(#p96a8cd5dd4)" style="fill: none; stroke-dasharray: 1.85,0.8; stroke-dashoffset: 0; stroke: #b0b0b0; stroke-width: 0.5"/>
     </g>
     <g id="line2d_52">
      <g>
       <use xlink:href="#m9526a0b7e2" x="315.490909" y="244.307763" style="stroke: #000000; stroke-width: 0.6"/>
      </g>
     </g>
    </g>
    <g id="ytick_17">
     <g id="line2d_53">
      <path d="M 315.490909 229.149611 
L 518.4 229.149611 
" clip-path="url(#p96a8cd5dd4)" style="fill: none; stroke-dasharray: 1.85,0.8; stroke-dashoffset: 0; stroke: #b0b0b0; stroke-width: 0.5"/>
     </g>
     <g id="line2d_54">
      <g>
       <use xlink:href="#m9526a0b7e2" x="315.490909" y="229.149611" style="stroke: #000000; stroke-width: 0.6"/>
      </g>
     </g>
    </g>
    <g id="ytick_18">
     <g id="line2d_55">
      <path d="M 315.490909 216.764498 
L 518.4 216.764498 
" clip-path="url(#p96a8cd5dd4)" style="fill: none; stroke-dasharray: 1.85,0.8; stroke-dashoffset: 0; stroke: #b0b0b0; stroke-width: 0.5"/>
     </g>
     <g id="line2d_56">
      <g>
       <use xlink:href="#m9526a0b7e2" x="315.490909" y="216.764498" style="stroke: #000000; stroke-width: 0.6"/>
      </g>
     </g>
    </g>
    <g id="ytick_19">
     <g id="line2d_57">
      <path d="M 315.490909 206.293035 
L 518.4 206.293035 
" clip-path="url(#p96a8cd5dd4)" style="fill: none; stroke-dasharray: 1.85,0.8; stroke-dashoffset: 0; stroke: #b0b0b0; stroke-width: 0.5"/>
     </g>
     <g id="line2d_58">
      <g>
       <use xlink:href="#m9526a0b7e2" x="315.490909" y="206.293035" style="stroke: #000000; stroke-width: 0.6"/>
      </g>
     </g>
    </g>
    <g id="ytick_20">
     <g id="line2d_59">
      <path d="M 315.490909 197.222241 
L 518.4 197.222241 
" clip-path="url(#p96a8cd5dd4)" style="fill: none; stroke-dasharray: 1.85,0.8; stroke-dashoffset: 0; stroke: #b0b0b0; stroke-width: 0.5"/>
     </g>
     <g id="line2d_60">
      <g>
       <use xlink:href="#m9526a0b7e2" x="315.490909" y="197.222241" style="stroke: #000000; stroke-width: 0.6"/>
      </g>
     </g>
    </g>
    <g id="ytick_21">
     <g id="line2d_61">
      <path d="M 315.490909 189.221234 
L 518.4 189.221234 
" clip-path="url(#p96a8cd5dd4)" style="fill: none; stroke-dasharray: 1.85,0.8; stroke-dashoffset: 0; stroke: #b0b0b0; stroke-width: 0.5"/>
     </g>
     <g id="line2d_62">
      <g>
       <use xlink:href="#m9526a0b7e2" x="315.490909" y="189.221234" style="stroke: #000000; stroke-width: 0.6"/>
      </g>
     </g>
    </g>
    <g id="ytick_22">
     <g id="line2d_63">
      <path d="M 315.490909 134.978567 
L 518.4 134.978567 
" clip-path="url(#p96a8cd5dd4)" style="fill: none; stroke-dasharray: 1.85,0.8; stroke-dashoffset: 0; stroke: #b0b0b0; stroke-width: 0.5"/>
     </g>
     <g id="line2d_64">
      <g>
       <use xlink:href="#m9526a0b7e2" x="315.490909" y="134.978567" style="stroke: #000000; stroke-width: 0.6"/>
      </g>
     </g>
    </g>
    <g id="ytick_23">
     <g id="line2d_65">
      <path d="M 315.490909 107.435302 
L 518.4 107.435302 
" clip-path="url(#p96a8cd5dd4)" style="fill: none; stroke-dasharray: 1.85,0.8; stroke-dashoffset: 0; stroke: #b0b0b0; stroke-width: 0.5"/>
     </g>
     <g id="line2d_66">
      <g>
       <use xlink:href="#m9526a0b7e2" x="315.490909" y="107.435302" style="stroke: #000000; stroke-width: 0.6"/>
      </g>
     </g>
    </g>
    <g id="ytick_24">
     <g id="line2d_67">
      <path d="M 315.490909 87.893045 
L 518.4 87.893045 
" clip-path="url(#p96a8cd5dd4)" style="fill: none; stroke-dasharray: 1.85,0.8; stroke-dashoffset: 0; stroke: #b0b0b0; stroke-width: 0.5"/>
     </g>
     <g id="line2d_68">
      <g>
       <use xlink:href="#m9526a0b7e2" x="315.490909" y="87.893045" style="stroke: #000000; stroke-width: 0.6"/>
      </g>
     </g>
    </g>
    <g id="ytick_25">
     <g id="line2d_69">
      <path d="M 315.490909 72.734892 
L 518.4 72.734892 
" clip-path="url(#p96a8cd5dd4)" style="fill: none; stroke-dasharray: 1.85,0.8; stroke-dashoffset: 0; stroke: #b0b0b0; stroke-width: 0.5"/>
     </g>
     <g id="line2d_70">
      <g>
       <use xlink:href="#m9526a0b7e2" x="315.490909" y="72.734892" style="stroke: #000000; stroke-width: 0.6"/>
      </g>
     </g>
    </g>
    <g id="ytick_26">
     <g id="line2d_71">
      <path d="M 315.490909 60.34978 
L 518.4 60.34978 
" clip-path="url(#p96a8cd5dd4)" style="fill: none; stroke-dasharray: 1.85,0.8; stroke-dashoffset: 0; stroke: #b0b0b0; stroke-width: 0.5"/>
     </g>
     <g id="line2d_72">
      <g>
       <use xlink:href="#m9526a0b7e2" x="315.490909" y="60.34978" style="stroke: #000000; stroke-width: 0.6"/>
      </g>
     </g>
    </g>
   </g>
   <g id="LineCollection_3">
    <path d="M 326.690437 369.36 
L 326.690437 358.935186 
" clip-path="url(#p96a8cd5dd4)" style="fill: none; stroke: #1f77b4; stroke-width: 1.5"/>
    <path d="M 341.842739 348.507342 
L 341.842739 338.079198 
" clip-path="url(#p96a8cd5dd4)" style="fill: none; stroke: #1f77b4; stroke-width: 1.5"/>
    <path d="M 387.299646 181.664142 
L 387.299646 171.236443 
" clip-path="url(#p96a8cd5dd4)" style="fill: none; stroke: #1f77b4; stroke-width: 1.5"/>
    <path d="M 509.17686 77.387661 
L 509.17686 66.96 
" clip-path="url(#p96a8cd5dd4)" style="fill: none; stroke: #1f77b4; stroke-width: 1.5"/>
    <path d="M 324.71405 348.507342 
L 324.71405 338.079198 
" clip-path="url(#p96a8cd5dd4)" style="fill: none; stroke: #1f77b4; stroke-width: 1.5"/>
   </g>
   <g id="line2d_73">
    <g clip-path="url(#p96a8cd5dd4)">
     <use xlink:href="#m24ae3e9558" x="326.690437" y="369.36" style="fill: #1f77b4; stroke: #1f77b4"/>
     <use xlink:href="#m24ae3e9558" x="341.842739" y="348.507342" style="fill: #1f77b4; stroke: #1f77b4"/>
     <use xlink:href="#m24ae3e9558" x="387.299646" y="181.664142" style="fill: #1f77b4; stroke: #1f77b4"/>
     <use xlink:href="#m24ae3e9558" x="509.17686" y="77.387661" style="fill: #1f77b4; stroke: #1f77b4"/>
     <use xlink:href="#m24ae3e9558" x="324.71405" y="348.507342" style="fill: #1f77b4; stroke: #1f77b4"/>
    </g>
   </g>
   <g id="line2d_74">
    <g clip-path="url(#p96a8cd5dd4)">
     <use xlink:href="#m24ae3e9558" x="326.690437" y="358.935186" style="fill: #1f77b4; stroke: #1f77b4"/>
     <use xlink:href="#m24ae3e9558" x="341.842739" y="338.079198" style="fill: #1f77b4; stroke: #1f77b4"/>
     <use xlink:href="#m24ae3e9558" x="387.299646" y="171.236443" style="fill: #1f77b4; stroke: #1f77b4"/>
     <use xlink:href="#m24ae3e9558" x="509.17686" y="66.96" style="fill: #1f77b4; stroke: #1f77b4"/>
     <use xlink:href="#m24ae3e9558" x="324.71405" y="338.079198" style="fill: #1f77b4; stroke: #1f77b4"/>
    </g>
   </g>
   <g id="LineCollection_4">
    <path d="M 325.465077 327.651161 
L 325.465077 317.222739 
" clip-path="url(#p96a8cd5dd4)" style="fill: none; stroke: #ff7f0e; stroke-width: 1.5"/>
    <path d="M 325.899882 358.935186 
L 325.899882 348.507342 
" clip-path="url(#p96a8cd5dd4)" style="fill: none; stroke: #ff7f0e; stroke-width: 1.5"/>
    <path d="M 326.512562 358.935186 
L 326.512562 348.507342 
" clip-path="url(#p96a8cd5dd4)" style="fill: none; stroke: #ff7f0e; stroke-width: 1.5"/>
    <path d="M 328.653648 358.935186 
L 328.653648 348.507342 
" clip-path="url(#p96a8cd5dd4)" style="fill: none; stroke: #ff7f0e; stroke-width: 1.5"/>
    <path d="M 324.71405 296.36777 
L 324.71405 285.940828 
" clip-path="url(#p96a8cd5dd4)" style="fill: none; stroke: #ff7f0e; stroke-width: 1.5"/>
   </g>
   <g id="line2d_75">
    <g clip-path="url(#p96a8cd5dd4)">
     <use xlink:href="#m44cf817352" x="325.465077" y="327.651161" style="fill: #ff7f0e; stroke: #ff7f0e"/>
     <use xlink:href="#m44cf817352" x="325.899882" y="358.935186" style="fill: #ff7f0e; stroke: #ff7f0e"/>
     <use xlink:href="#m44cf817352" x="326.512562" y="358.935186" style="fill: #ff7f0e; stroke: #ff7f0e"/>
     <use xlink:href="#m44cf817352" x="328.653648" y="358.935186" style="fill: #ff7f0e; stroke: #ff7f0e"/>
     <use xlink:href="#m44cf817352" x="324.71405" y="296.36777" style="fill: #ff7f0e; stroke: #ff7f0e"/>
    </g>
   </g>
   <g id="line2d_76">
    <g clip-path="url(#p96a8cd5dd4)">
     <use xlink:href="#m44cf817352" x="325.465077" y="317.222739" style="fill: #ff7f0e; stroke: #ff7f0e"/>
     <use xlink:href="#m44cf817352" x="325.899882" y="348.507342" style="fill: #ff7f0e; stroke: #ff7f0e"/>
     <use xlink:href="#m44cf817352" x="326.512562" y="348.507342" style="fill: #ff7f0e; stroke: #ff7f0e"/>
     <use xlink:href="#m44cf817352" x="328.653648" y="348.507342" style="fill: #ff7f0e; stroke: #ff7f0e"/>
     <use xlink:href="#m44cf817352" x="324.71405" y="285.940828" style="fill: #ff7f0e; stroke: #ff7f0e"/>
    </g>
   </g>
   <g id="line2d_77">
    <g clip-path="url(#p96a8cd5dd4)">
     <use xlink:href="#m28f75a605f" x="326.690437" y="363.94781" style="fill: #1f77b4; stroke: #1f77b4"/>
     <use xlink:href="#m28f75a605f" x="341.842739" y="343.093359" style="fill: #1f77b4; stroke: #1f77b4"/>
     <use xlink:href="#m28f75a605f" x="387.299646" y="176.250399" style="fill: #1f77b4; stroke: #1f77b4"/>
     <use xlink:href="#m28f75a605f" x="509.17686" y="71.973938" style="fill: #1f77b4; stroke: #1f77b4"/>
     <use xlink:href="#m28f75a605f" x="324.71405" y="343.093359" style="fill: #1f77b4; stroke: #1f77b4"/>
    </g>
   </g>
   <g id="line2d_78">
    <g clip-path="url(#p96a8cd5dd4)">
     <use xlink:href="#m5bff16946a" x="325.465077" y="322.237029" style="fill: #ff7f0e; stroke: #ff7f0e"/>
     <use xlink:href="#m5bff16946a" x="325.899882" y="353.521365" style="fill: #ff7f0e; stroke: #ff7f0e"/>
     <use xlink:href="#m5bff16946a" x="326.512562" y="353.521365" style="fill: #ff7f0e; stroke: #ff7f0e"/>
     <use xlink:href="#m5bff16946a" x="328.653648" y="353.521365" style="fill: #ff7f0e; stroke: #ff7f0e"/>
     <use xlink:href="#m5bff16946a" x="324.71405" y="290.954434" style="fill: #ff7f0e; stroke: #ff7f0e"/>
    </g>
   </g>
   <g id="patch_8">
    <path d="M 315.490909 384.48 
L 315.490909 51.84 
" style="fill: none; stroke: #000000; stroke-width: 0.8; stroke-linejoin: miter; stroke-linecap: square"/>
   </g>
   <g id="patch_9">
    <path d="M 518.4 384.48 
L 518.4 51.84 
" style="fill: none; stroke: #000000; stroke-width: 0.8; stroke-linejoin: miter; stroke-linecap: square"/>
   </g>
   <g id="patch_10">
    <path d="M 315.490909 384.48 
L 518.4 384.48 
" style="fill: none; stroke: #000000; stroke-width: 0.8; stroke-linejoin: miter; stroke-linecap: square"/>
   </g>
   <g id="patch_11">
    <path d="M 315.490909 51.84 
L 518.4 51.84 
" style="fill: none; stroke: #000000; stroke-width: 0.8; stroke-linejoin: miter; stroke-linecap: square"/>
   </g>
   <g id="text_18">
    <!-- b. -->
    <g transform="translate(318.576136 75.955575) scale(0.12 -0.12)">
     <defs>
      <path id="DejaVuSans-Bold-62" d="M 2400 722 
Q 2759 722 2948 984 
Q 3138 1247 3138 1747 
Q 3138 2247 2948 2509 
Q 2759 2772 2400 2772 
Q 2041 2772 1848 2508 
Q 1656 2244 1656 1747 
Q 1656 1250 1848 986 
Q 2041 722 2400 722 
z
M 1656 2988 
Q 1888 3294 2169 3439 
Q 2450 3584 2816 3584 
Q 3463 3584 3878 3070 
Q 4294 2556 4294 1747 
Q 4294 938 3878 423 
Q 3463 -91 2816 -91 
Q 2450 -91 2169 54 
Q 1888 200 1656 506 
L 1656 0 
L 538 0 
L 538 4863 
L 1656 4863 
L 1656 2988 
z
" transform="scale(0.015625)"/>
     </defs>
     <use xlink:href="#DejaVuSans-Bold-62"/>
     <use xlink:href="#DejaVuSans-Bold-2e" transform="translate(71.582031 0)"/>
    </g>
   </g>
  </g>
 </g>
 <defs>
  <clipPath id="p248f2dc3cc">
   <rect x="72" y="51.84" width="202.909091" height="332.64"/>
  </clipPath>
  <clipPath id="p96a8cd5dd4">
   <rect x="315.490909" y="51.84" width="202.909091" height="332.64"/>
  </clipPath>
 </defs>
</svg>
