<?xml version="1.0" encoding="utf-8" standalone="no"?>
<!DOCTYPE svg PUBLIC "-//W3C//DTD SVG 1.1//EN"
  "http://www.w3.org/Graphics/SVG/1.1/DTD/svg11.dtd">
<svg xmlns:xlink="http://www.w3.org/1999/xlink" width="432pt" height="288pt" viewBox="0 0 432 288" xmlns="http://www.w3.org/2000/svg" version="1.1">
 <metadata>
  <rdf:RDF xmlns:dc="http://purl.org/dc/elements/1.1/" xmlns:cc="http://creativecommons.org/ns#" xmlns:rdf="http://www.w3.org/1999/02/22-rdf-syntax-ns#">
   <cc:Work>
    <dc:type rdf:resource="http://purl.org/dc/dcmitype/StillImage"/>
    <dc:date>2025-10-03T14:43:39.030619</dc:date>
    <dc:format>image/svg+xml</dc:format>
    <dc:creator>
     <cc:Agent>
      <dc:title>Matplotlib v3.10.0, https://matplotlib.org/</dc:title>
     </cc:Agent>
    </dc:creator>
   </cc:Work>
  </rdf:RDF>
 </metadata>
 <defs>
  <style type="text/css">*{stroke-linejoin: round; stroke-linecap: butt}</style>
 </defs>
 <g id="figure_1">
  <g id="patch_1">
   <path d="M 0 288 
L 432 288 
L 432 0 
L 0 0 
z
" style="fill: #ffffff"/>
  </g>
  <g id="axes_1">
   <g id="patch_2">
    <path d="M 71.12 229.552 
L 416.88 229.552 
L 416.88 15.12 
L 71.12 15.12 
z
" style="fill: #ffffff"/>
   </g>
   <g id="matplotlib.axis_1">
    <g id="xtick_1">
     <g id="line2d_1">
      <path d="M 71.308174 229.552 
L 71.308174 15.12 
" clip-path="url(#p26d3685c06)" style="fill: none; stroke-dasharray: 1.85,0.8; stroke-dashoffset: 0; stroke: #b0b0b0; stroke-width: 0.5"/>
     </g>
     <g id="line2d_2">
      <defs>
       <path id="m2c87aa08b8" d="M 0 0 
L 0 3.5 
" style="stroke: #000000; stroke-width: 0.8"/>
      </defs>
      <g>
       <use xlink:href="#m2c87aa08b8" x="71.308174" y="229.552" style="stroke: #000000; stroke-width: 0.8"/>
      </g>
     </g>
     <g id="text_1">
      <!-- $\mathdefault{10^{-1}}$ -->
      <g transform="translate(54.858174 247.189813) scale(0.14 -0.14)">
       <defs>
        <path id="DejaVuSans-31" d="M 794 531 
L 1825 531 
L 1825 4091 
L 703 3866 
L 703 4441 
L 1819 4666 
L 2450 4666 
L 2450 531 
L 3481 531 
L 3481 0 
L 794 0 
L 794 531 
z
" transform="scale(0.015625)"/>
        <path id="DejaVuSans-30" d="M 2034 4250 
Q 1547 4250 1301 3770 
Q 1056 3291 1056 2328 
Q 1056 1369 1301 889 
Q 1547 409 2034 409 
Q 2525 409 2770 889 
Q 3016 1369 3016 2328 
Q 3016 3291 2770 3770 
Q 2525 4250 2034 4250 
z
M 2034 4750 
Q 2819 4750 3233 4129 
Q 3647 3509 3647 2328 
Q 3647 1150 3233 529 
Q 2819 -91 2034 -91 
Q 1250 -91 836 529 
Q 422 1150 422 2328 
Q 422 3509 836 4129 
Q 1250 4750 2034 4750 
z
" transform="scale(0.015625)"/>
        <path id="DejaVuSans-2212" d="M 678 2272 
L 4684 2272 
L 4684 1741 
L 678 1741 
L 678 2272 
z
" transform="scale(0.015625)"/>
       </defs>
       <use xlink:href="#DejaVuSans-31" transform="translate(0 0.684375)"/>
       <use xlink:href="#DejaVuSans-30" transform="translate(63.623047 0.684375)"/>
       <use xlink:href="#DejaVuSans-2212" transform="translate(128.203125 38.965625) scale(0.7)"/>
       <use xlink:href="#DejaVuSans-31" transform="translate(186.855469 38.965625) scale(0.7)"/>
      </g>
     </g>
    </g>
    <g id="xtick_2">
     <g id="line2d_3">
      <path d="M 157.748745 229.552 
L 157.748745 15.12 
" clip-path="url(#p26d3685c06)" style="fill: none; stroke-dasharray: 1.85,0.8; stroke-dashoffset: 0; stroke: #b0b0b0; stroke-width: 0.5"/>
     </g>
     <g id="line2d_4">
      <g>
       <use xlink:href="#m2c87aa08b8" x="157.748745" y="229.552" style="stroke: #000000; stroke-width: 0.8"/>
      </g>
     </g>
     <g id="text_2">
      <!-- $\mathdefault{10^{0}}$ -->
      <g transform="translate(145.428745 247.189813) scale(0.14 -0.14)">
       <use xlink:href="#DejaVuSans-31" transform="translate(0 0.765625)"/>
       <use xlink:href="#DejaVuSans-30" transform="translate(63.623047 0.765625)"/>
       <use xlink:href="#DejaVuSans-30" transform="translate(128.203125 39.046875) scale(0.7)"/>
      </g>
     </g>
    </g>
    <g id="xtick_3">
     <g id="line2d_5">
      <path d="M 244.189315 229.552 
L 244.189315 15.12 
" clip-path="url(#p26d3685c06)" style="fill: none; stroke-dasharray: 1.85,0.8; stroke-dashoffset: 0; stroke: #b0b0b0; stroke-width: 0.5"/>
     </g>
     <g id="line2d_6">
      <g>
       <use xlink:href="#m2c87aa08b8" x="244.189315" y="229.552" style="stroke: #000000; stroke-width: 0.8"/>
      </g>
     </g>
     <g id="text_3">
      <!-- $\mathdefault{10^{1}}$ -->
      <g transform="translate(231.869315 247.189813) scale(0.14 -0.14)">
       <use xlink:href="#DejaVuSans-31" transform="translate(0 0.684375)"/>
       <use xlink:href="#DejaVuSans-30" transform="translate(63.623047 0.684375)"/>
       <use xlink:href="#DejaVuSans-31" transform="translate(128.203125 38.965625) scale(0.7)"/>
      </g>
     </g>
    </g>
    <g id="xtick_4">
     <g id="line2d_7">
      <path d="M 330.629886 229.552 
L 330.629886 15.12 
" clip-path="url(#p26d3685c06)" style="fill: none; stroke-dasharray: 1.85,0.8; stroke-dashoffset: 0; stroke: #b0b0b0; stroke-width: 0.5"/>
     </g>
     <g id="line2d_8">
      <g>
       <use xlink:href="#m2c87aa08b8" x="330.629886" y="229.552" style="stroke: #000000; stroke-width: 0.8"/>
      </g>
     </g>
     <g id="text_4">
      <!-- $\mathdefault{10^{2}}$ -->
      <g transform="translate(318.309886 247.189813) scale(0.14 -0.14)">
       <defs>
        <path id="DejaVuSans-32" d="M 1228 531 
L 3431 531 
L 3431 0 
L 469 0 
L 469 531 
Q 828 903 1448 1529 
Q 2069 2156 2228 2338 
Q 2531 2678 2651 2914 
Q 2772 3150 2772 3378 
Q 2772 3750 2511 3984 
Q 2250 4219 1831 4219 
Q 1534 4219 1204 4116 
Q 875 4013 500 3803 
L 500 4441 
Q 881 4594 1212 4672 
Q 1544 4750 1819 4750 
Q 2544 4750 2975 4387 
Q 3406 4025 3406 3419 
Q 3406 3131 3298 2873 
Q 3191 2616 2906 2266 
Q 2828 2175 2409 1742 
Q 1991 1309 1228 531 
z
" transform="scale(0.015625)"/>
       </defs>
       <use xlink:href="#DejaVuSans-31" transform="translate(0 0.765625)"/>
       <use xlink:href="#DejaVuSans-30" transform="translate(63.623047 0.765625)"/>
       <use xlink:href="#DejaVuSans-32" transform="translate(128.203125 39.046875) scale(0.7)"/>
      </g>
     </g>
    </g>
    <g id="xtick_5">
     <g id="line2d_9">
      <path d="M 97.329379 229.552 
L 97.329379 15.12 
" clip-path="url(#p26d3685c06)" style="fill: none; stroke-dasharray: 1.85,0.8; stroke-dashoffset: 0; stroke: #b0b0b0; stroke-width: 0.5"/>
     </g>
     <g id="line2d_10">
      <defs>
       <path id="m1854018a40" d="M 0 0 
L 0 2 
" style="stroke: #000000; stroke-width: 0.6"/>
      </defs>
      <g>
       <use xlink:href="#m1854018a40" x="97.329379" y="229.552" style="stroke: #000000; stroke-width: 0.6"/>
      </g>
     </g>
    </g>
    <g id="xtick_6">
     <g id="line2d_11">
      <path d="M 112.550808 229.552 
L 112.550808 15.12 
" clip-path="url(#p26d3685c06)" style="fill: none; stroke-dasharray: 1.85,0.8; stroke-dashoffset: 0; stroke: #b0b0b0; stroke-width: 0.5"/>
     </g>
     <g id="line2d_12">
      <g>
       <use xlink:href="#m1854018a40" x="112.550808" y="229.552" style="stroke: #000000; stroke-width: 0.6"/>
      </g>
     </g>
    </g>
    <g id="xtick_7">
     <g id="line2d_13">
      <path d="M 123.350583 229.552 
L 123.350583 15.12 
" clip-path="url(#p26d3685c06)" style="fill: none; stroke-dasharray: 1.85,0.8; stroke-dashoffset: 0; stroke: #b0b0b0; stroke-width: 0.5"/>
     </g>
     <g id="line2d_14">
      <g>
       <use xlink:href="#m1854018a40" x="123.350583" y="229.552" style="stroke: #000000; stroke-width: 0.6"/>
      </g>
     </g>
    </g>
    <g id="xtick_8">
     <g id="line2d_15">
      <path d="M 131.72754 229.552 
L 131.72754 15.12 
" clip-path="url(#p26d3685c06)" style="fill: none; stroke-dasharray: 1.85,0.8; stroke-dashoffset: 0; stroke: #b0b0b0; stroke-width: 0.5"/>
     </g>
     <g id="line2d_16">
      <g>
       <use xlink:href="#m1854018a40" x="131.72754" y="229.552" style="stroke: #000000; stroke-width: 0.6"/>
      </g>
     </g>
    </g>
    <g id="xtick_9">
     <g id="line2d_17">
      <path d="M 138.572012 229.552 
L 138.572012 15.12 
" clip-path="url(#p26d3685c06)" style="fill: none; stroke-dasharray: 1.85,0.8; stroke-dashoffset: 0; stroke: #b0b0b0; stroke-width: 0.5"/>
     </g>
     <g id="line2d_18">
      <g>
       <use xlink:href="#m1854018a40" x="138.572012" y="229.552" style="stroke: #000000; stroke-width: 0.6"/>
      </g>
     </g>
    </g>
    <g id="xtick_10">
     <g id="line2d_19">
      <path d="M 144.358931 229.552 
L 144.358931 15.12 
" clip-path="url(#p26d3685c06)" style="fill: none; stroke-dasharray: 1.85,0.8; stroke-dashoffset: 0; stroke: #b0b0b0; stroke-width: 0.5"/>
     </g>
     <g id="line2d_20">
      <g>
       <use xlink:href="#m1854018a40" x="144.358931" y="229.552" style="stroke: #000000; stroke-width: 0.6"/>
      </g>
     </g>
    </g>
    <g id="xtick_11">
     <g id="line2d_21">
      <path d="M 149.371788 229.552 
L 149.371788 15.12 
" clip-path="url(#p26d3685c06)" style="fill: none; stroke-dasharray: 1.85,0.8; stroke-dashoffset: 0; stroke: #b0b0b0; stroke-width: 0.5"/>
     </g>
     <g id="line2d_22">
      <g>
       <use xlink:href="#m1854018a40" x="149.371788" y="229.552" style="stroke: #000000; stroke-width: 0.6"/>
      </g>
     </g>
    </g>
    <g id="xtick_12">
     <g id="line2d_23">
      <path d="M 153.793441 229.552 
L 153.793441 15.12 
" clip-path="url(#p26d3685c06)" style="fill: none; stroke-dasharray: 1.85,0.8; stroke-dashoffset: 0; stroke: #b0b0b0; stroke-width: 0.5"/>
     </g>
     <g id="line2d_24">
      <g>
       <use xlink:href="#m1854018a40" x="153.793441" y="229.552" style="stroke: #000000; stroke-width: 0.6"/>
      </g>
     </g>
    </g>
    <g id="xtick_13">
     <g id="line2d_25">
      <path d="M 183.769949 229.552 
L 183.769949 15.12 
" clip-path="url(#p26d3685c06)" style="fill: none; stroke-dasharray: 1.85,0.8; stroke-dashoffset: 0; stroke: #b0b0b0; stroke-width: 0.5"/>
     </g>
     <g id="line2d_26">
      <g>
       <use xlink:href="#m1854018a40" x="183.769949" y="229.552" style="stroke: #000000; stroke-width: 0.6"/>
      </g>
     </g>
    </g>
    <g id="xtick_14">
     <g id="line2d_27">
      <path d="M 198.991378 229.552 
L 198.991378 15.12 
" clip-path="url(#p26d3685c06)" style="fill: none; stroke-dasharray: 1.85,0.8; stroke-dashoffset: 0; stroke: #b0b0b0; stroke-width: 0.5"/>
     </g>
     <g id="line2d_28">
      <g>
       <use xlink:href="#m1854018a40" x="198.991378" y="229.552" style="stroke: #000000; stroke-width: 0.6"/>
      </g>
     </g>
    </g>
    <g id="xtick_15">
     <g id="line2d_29">
      <path d="M 209.791154 229.552 
L 209.791154 15.12 
" clip-path="url(#p26d3685c06)" style="fill: none; stroke-dasharray: 1.85,0.8; stroke-dashoffset: 0; stroke: #b0b0b0; stroke-width: 0.5"/>
     </g>
     <g id="line2d_30">
      <g>
       <use xlink:href="#m1854018a40" x="209.791154" y="229.552" style="stroke: #000000; stroke-width: 0.6"/>
      </g>
     </g>
    </g>
    <g id="xtick_16">
     <g id="line2d_31">
      <path d="M 218.168111 229.552 
L 218.168111 15.12 
" clip-path="url(#p26d3685c06)" style="fill: none; stroke-dasharray: 1.85,0.8; stroke-dashoffset: 0; stroke: #b0b0b0; stroke-width: 0.5"/>
     </g>
     <g id="line2d_32">
      <g>
       <use xlink:href="#m1854018a40" x="218.168111" y="229.552" style="stroke: #000000; stroke-width: 0.6"/>
      </g>
     </g>
    </g>
    <g id="xtick_17">
     <g id="line2d_33">
      <path d="M 225.012583 229.552 
L 225.012583 15.12 
" clip-path="url(#p26d3685c06)" style="fill: none; stroke-dasharray: 1.85,0.8; stroke-dashoffset: 0; stroke: #b0b0b0; stroke-width: 0.5"/>
     </g>
     <g id="line2d_34">
      <g>
       <use xlink:href="#m1854018a40" x="225.012583" y="229.552" style="stroke: #000000; stroke-width: 0.6"/>
      </g>
     </g>
    </g>
    <g id="xtick_18">
     <g id="line2d_35">
      <path d="M 230.799502 229.552 
L 230.799502 15.12 
" clip-path="url(#p26d3685c06)" style="fill: none; stroke-dasharray: 1.85,0.8; stroke-dashoffset: 0; stroke: #b0b0b0; stroke-width: 0.5"/>
     </g>
     <g id="line2d_36">
      <g>
       <use xlink:href="#m1854018a40" x="230.799502" y="229.552" style="stroke: #000000; stroke-width: 0.6"/>
      </g>
     </g>
    </g>
    <g id="xtick_19">
     <g id="line2d_37">
      <path d="M 235.812359 229.552 
L 235.812359 15.12 
" clip-path="url(#p26d3685c06)" style="fill: none; stroke-dasharray: 1.85,0.8; stroke-dashoffset: 0; stroke: #b0b0b0; stroke-width: 0.5"/>
     </g>
     <g id="line2d_38">
      <g>
       <use xlink:href="#m1854018a40" x="235.812359" y="229.552" style="stroke: #000000; stroke-width: 0.6"/>
      </g>
     </g>
    </g>
    <g id="xtick_20">
     <g id="line2d_39">
      <path d="M 240.234012 229.552 
L 240.234012 15.12 
" clip-path="url(#p26d3685c06)" style="fill: none; stroke-dasharray: 1.85,0.8; stroke-dashoffset: 0; stroke: #b0b0b0; stroke-width: 0.5"/>
     </g>
     <g id="line2d_40">
      <g>
       <use xlink:href="#m1854018a40" x="240.234012" y="229.552" style="stroke: #000000; stroke-width: 0.6"/>
      </g>
     </g>
    </g>
    <g id="xtick_21">
     <g id="line2d_41">
      <path d="M 270.21052 229.552 
L 270.21052 15.12 
" clip-path="url(#p26d3685c06)" style="fill: none; stroke-dasharray: 1.85,0.8; stroke-dashoffset: 0; stroke: #b0b0b0; stroke-width: 0.5"/>
     </g>
     <g id="line2d_42">
      <g>
       <use xlink:href="#m1854018a40" x="270.21052" y="229.552" style="stroke: #000000; stroke-width: 0.6"/>
      </g>
     </g>
    </g>
    <g id="xtick_22">
     <g id="line2d_43">
      <path d="M 285.431949 229.552 
L 285.431949 15.12 
" clip-path="url(#p26d3685c06)" style="fill: none; stroke-dasharray: 1.85,0.8; stroke-dashoffset: 0; stroke: #b0b0b0; stroke-width: 0.5"/>
     </g>
     <g id="line2d_44">
      <g>
       <use xlink:href="#m1854018a40" x="285.431949" y="229.552" style="stroke: #000000; stroke-width: 0.6"/>
      </g>
     </g>
    </g>
    <g id="xtick_23">
     <g id="line2d_45">
      <path d="M 296.231725 229.552 
L 296.231725 15.12 
" clip-path="url(#p26d3685c06)" style="fill: none; stroke-dasharray: 1.85,0.8; stroke-dashoffset: 0; stroke: #b0b0b0; stroke-width: 0.5"/>
     </g>
     <g id="line2d_46">
      <g>
       <use xlink:href="#m1854018a40" x="296.231725" y="229.552" style="stroke: #000000; stroke-width: 0.6"/>
      </g>
     </g>
    </g>
    <g id="xtick_24">
     <g id="line2d_47">
      <path d="M 304.608682 229.552 
L 304.608682 15.12 
" clip-path="url(#p26d3685c06)" style="fill: none; stroke-dasharray: 1.85,0.8; stroke-dashoffset: 0; stroke: #b0b0b0; stroke-width: 0.5"/>
     </g>
     <g id="line2d_48">
      <g>
       <use xlink:href="#m1854018a40" x="304.608682" y="229.552" style="stroke: #000000; stroke-width: 0.6"/>
      </g>
     </g>
    </g>
    <g id="xtick_25">
     <g id="line2d_49">
      <path d="M 311.453154 229.552 
L 311.453154 15.12 
" clip-path="url(#p26d3685c06)" style="fill: none; stroke-dasharray: 1.85,0.8; stroke-dashoffset: 0; stroke: #b0b0b0; stroke-width: 0.5"/>
     </g>
     <g id="line2d_50">
      <g>
       <use xlink:href="#m1854018a40" x="311.453154" y="229.552" style="stroke: #000000; stroke-width: 0.6"/>
      </g>
     </g>
    </g>
    <g id="xtick_26">
     <g id="line2d_51">
      <path d="M 317.240072 229.552 
L 317.240072 15.12 
" clip-path="url(#p26d3685c06)" style="fill: none; stroke-dasharray: 1.85,0.8; stroke-dashoffset: 0; stroke: #b0b0b0; stroke-width: 0.5"/>
     </g>
     <g id="line2d_52">
      <g>
       <use xlink:href="#m1854018a40" x="317.240072" y="229.552" style="stroke: #000000; stroke-width: 0.6"/>
      </g>
     </g>
    </g>
    <g id="xtick_27">
     <g id="line2d_53">
      <path d="M 322.252929 229.552 
L 322.252929 15.12 
" clip-path="url(#p26d3685c06)" style="fill: none; stroke-dasharray: 1.85,0.8; stroke-dashoffset: 0; stroke: #b0b0b0; stroke-width: 0.5"/>
     </g>
     <g id="line2d_54">
      <g>
       <use xlink:href="#m1854018a40" x="322.252929" y="229.552" style="stroke: #000000; stroke-width: 0.6"/>
      </g>
     </g>
    </g>
    <g id="xtick_28">
     <g id="line2d_55">
      <path d="M 326.674583 229.552 
L 326.674583 15.12 
" clip-path="url(#p26d3685c06)" style="fill: none; stroke-dasharray: 1.85,0.8; stroke-dashoffset: 0; stroke: #b0b0b0; stroke-width: 0.5"/>
     </g>
     <g id="line2d_56">
      <g>
       <use xlink:href="#m1854018a40" x="326.674583" y="229.552" style="stroke: #000000; stroke-width: 0.6"/>
      </g>
     </g>
    </g>
    <g id="xtick_29">
     <g id="line2d_57">
      <path d="M 356.651091 229.552 
L 356.651091 15.12 
" clip-path="url(#p26d3685c06)" style="fill: none; stroke-dasharray: 1.85,0.8; stroke-dashoffset: 0; stroke: #b0b0b0; stroke-width: 0.5"/>
     </g>
     <g id="line2d_58">
      <g>
       <use xlink:href="#m1854018a40" x="356.651091" y="229.552" style="stroke: #000000; stroke-width: 0.6"/>
      </g>
     </g>
    </g>
    <g id="xtick_30">
     <g id="line2d_59">
      <path d="M 371.87252 229.552 
L 371.87252 15.12 
" clip-path="url(#p26d3685c06)" style="fill: none; stroke-dasharray: 1.85,0.8; stroke-dashoffset: 0; stroke: #b0b0b0; stroke-width: 0.5"/>
     </g>
     <g id="line2d_60">
      <g>
       <use xlink:href="#m1854018a40" x="371.87252" y="229.552" style="stroke: #000000; stroke-width: 0.6"/>
      </g>
     </g>
    </g>
    <g id="xtick_31">
     <g id="line2d_61">
      <path d="M 382.672295 229.552 
L 382.672295 15.12 
" clip-path="url(#p26d3685c06)" style="fill: none; stroke-dasharray: 1.85,0.8; stroke-dashoffset: 0; stroke: #b0b0b0; stroke-width: 0.5"/>
     </g>
     <g id="line2d_62">
      <g>
       <use xlink:href="#m1854018a40" x="382.672295" y="229.552" style="stroke: #000000; stroke-width: 0.6"/>
      </g>
     </g>
    </g>
    <g id="xtick_32">
     <g id="line2d_63">
      <path d="M 391.049252 229.552 
L 391.049252 15.12 
" clip-path="url(#p26d3685c06)" style="fill: none; stroke-dasharray: 1.85,0.8; stroke-dashoffset: 0; stroke: #b0b0b0; stroke-width: 0.5"/>
     </g>
     <g id="line2d_64">
      <g>
       <use xlink:href="#m1854018a40" x="391.049252" y="229.552" style="stroke: #000000; stroke-width: 0.6"/>
      </g>
     </g>
    </g>
    <g id="xtick_33">
     <g id="line2d_65">
      <path d="M 397.893724 229.552 
L 397.893724 15.12 
" clip-path="url(#p26d3685c06)" style="fill: none; stroke-dasharray: 1.85,0.8; stroke-dashoffset: 0; stroke: #b0b0b0; stroke-width: 0.5"/>
     </g>
     <g id="line2d_66">
      <g>
       <use xlink:href="#m1854018a40" x="397.893724" y="229.552" style="stroke: #000000; stroke-width: 0.6"/>
      </g>
     </g>
    </g>
    <g id="xtick_34">
     <g id="line2d_67">
      <path d="M 403.680643 229.552 
L 403.680643 15.12 
" clip-path="url(#p26d3685c06)" style="fill: none; stroke-dasharray: 1.85,0.8; stroke-dashoffset: 0; stroke: #b0b0b0; stroke-width: 0.5"/>
     </g>
     <g id="line2d_68">
      <g>
       <use xlink:href="#m1854018a40" x="403.680643" y="229.552" style="stroke: #000000; stroke-width: 0.6"/>
      </g>
     </g>
    </g>
    <g id="xtick_35">
     <g id="line2d_69">
      <path d="M 408.6935 229.552 
L 408.6935 15.12 
" clip-path="url(#p26d3685c06)" style="fill: none; stroke-dasharray: 1.85,0.8; stroke-dashoffset: 0; stroke: #b0b0b0; stroke-width: 0.5"/>
     </g>
     <g id="line2d_70">
      <g>
       <use xlink:href="#m1854018a40" x="408.6935" y="229.552" style="stroke: #000000; stroke-width: 0.6"/>
      </g>
     </g>
    </g>
    <g id="xtick_36">
     <g id="line2d_71">
      <path d="M 413.115153 229.552 
L 413.115153 15.12 
" clip-path="url(#p26d3685c06)" style="fill: none; stroke-dasharray: 1.85,0.8; stroke-dashoffset: 0; stroke: #b0b0b0; stroke-width: 0.5"/>
     </g>
     <g id="line2d_72">
      <g>
       <use xlink:href="#m1854018a40" x="413.115153" y="229.552" style="stroke: #000000; stroke-width: 0.6"/>
      </g>
     </g>
    </g>
    <g id="text_5">
     <!-- D ($\mu$m) -->
     <g transform="translate(219.64 264.741375) scale(0.14 -0.14)">
      <defs>
       <path id="DejaVuSans-44" d="M 1259 4147 
L 1259 519 
L 2022 519 
Q 2988 519 3436 956 
Q 3884 1394 3884 2338 
Q 3884 3275 3436 3711 
Q 2988 4147 2022 4147 
L 1259 4147 
z
M 628 4666 
L 1925 4666 
Q 3281 4666 3915 4102 
Q 4550 3538 4550 2338 
Q 4550 1131 3912 565 
Q 3275 0 1925 0 
L 628 0 
L 628 4666 
z
" transform="scale(0.015625)"/>
       <path id="DejaVuSans-20" transform="scale(0.015625)"/>
       <path id="DejaVuSans-28" d="M 1984 4856 
Q 1566 4138 1362 3434 
Q 1159 2731 1159 2009 
Q 1159 1288 1364 580 
Q 1569 -128 1984 -844 
L 1484 -844 
Q 1016 -109 783 600 
Q 550 1309 550 2009 
Q 550 2706 781 3412 
Q 1013 4119 1484 4856 
L 1984 4856 
z
" transform="scale(0.015625)"/>
       <path id="DejaVuSans-Oblique-3bc" d="M -84 -1331 
L 856 3500 
L 1434 3500 
L 1009 1322 
Q 997 1256 987 1175 
Q 978 1094 978 1013 
Q 978 722 1161 565 
Q 1344 409 1684 409 
Q 2147 409 2431 671 
Q 2716 934 2816 1459 
L 3213 3500 
L 3788 3500 
L 3266 809 
Q 3253 750 3248 706 
Q 3244 663 3244 628 
Q 3244 531 3283 486 
Q 3322 441 3406 441 
Q 3438 441 3492 456 
Q 3547 472 3647 513 
L 3559 50 
Q 3422 -19 3297 -55 
Q 3172 -91 3053 -91 
Q 2847 -91 2730 40 
Q 2613 172 2613 403 
Q 2438 153 2195 31 
Q 1953 -91 1625 -91 
Q 1334 -91 1117 43 
Q 900 178 831 397 
L 494 -1331 
L -84 -1331 
z
" transform="scale(0.015625)"/>
       <path id="DejaVuSans-6d" d="M 3328 2828 
Q 3544 3216 3844 3400 
Q 4144 3584 4550 3584 
Q 5097 3584 5394 3201 
Q 5691 2819 5691 2113 
L 5691 0 
L 5113 0 
L 5113 2094 
Q 5113 2597 4934 2840 
Q 4756 3084 4391 3084 
Q 3944 3084 3684 2787 
Q 3425 2491 3425 1978 
L 3425 0 
L 2847 0 
L 2847 2094 
Q 2847 2600 2669 2842 
Q 2491 3084 2119 3084 
Q 1678 3084 1418 2786 
Q 1159 2488 1159 1978 
L 1159 0 
L 581 0 
L 581 3500 
L 1159 3500 
L 1159 2956 
Q 1356 3278 1631 3431 
Q 1906 3584 2284 3584 
Q 2666 3584 2933 3390 
Q 3200 3197 3328 2828 
z
" transform="scale(0.015625)"/>
       <path id="DejaVuSans-29" d="M 513 4856 
L 1013 4856 
Q 1481 4119 1714 3412 
Q 1947 2706 1947 2009 
Q 1947 1309 1714 600 
Q 1481 -109 1013 -844 
L 513 -844 
Q 928 -128 1133 580 
Q 1338 1288 1338 2009 
Q 1338 2731 1133 3434 
Q 928 4138 513 4856 
z
" transform="scale(0.015625)"/>
      </defs>
      <use xlink:href="#DejaVuSans-44" transform="translate(0 0.125)"/>
      <use xlink:href="#DejaVuSans-20" transform="translate(77.001953 0.125)"/>
      <use xlink:href="#DejaVuSans-28" transform="translate(108.789062 0.125)"/>
      <use xlink:href="#DejaVuSans-Oblique-3bc" transform="translate(147.802734 0.125)"/>
      <use xlink:href="#DejaVuSans-6d" transform="translate(211.425781 0.125)"/>
      <use xlink:href="#DejaVuSans-29" transform="translate(308.837891 0.125)"/>
     </g>
    </g>
   </g>
   <g id="matplotlib.axis_2">
    <g id="ytick_1">
     <g id="line2d_73">
      <path d="M 71.12 198.866 
L 416.88 198.866 
" clip-path="url(#p26d3685c06)" style="fill: none; stroke-dasharray: 1.85,0.8; stroke-dashoffset: 0; stroke: #b0b0b0; stroke-width: 0.5"/>
     </g>
     <g id="line2d_74">
      <defs>
       <path id="mc5599abe99" d="M 0 0 
L -3.5 0 
" style="stroke: #000000; stroke-width: 0.8"/>
      </defs>
      <g>
       <use xlink:href="#mc5599abe99" x="71.12" y="198.866" style="stroke: #000000; stroke-width: 0.8"/>
      </g>
     </g>
     <g id="text_6">
      <!-- 2.5 -->
      <g transform="translate(41.855625 204.184907) scale(0.14 -0.14)">
       <defs>
        <path id="DejaVuSans-2e" d="M 684 794 
L 1344 794 
L 1344 0 
L 684 0 
L 684 794 
z
" transform="scale(0.015625)"/>
        <path id="DejaVuSans-35" d="M 691 4666 
L 3169 4666 
L 3169 4134 
L 1269 4134 
L 1269 2991 
Q 1406 3038 1543 3061 
Q 1681 3084 1819 3084 
Q 2600 3084 3056 2656 
Q 3513 2228 3513 1497 
Q 3513 744 3044 326 
Q 2575 -91 1722 -91 
Q 1428 -91 1123 -41 
Q 819 9 494 109 
L 494 744 
Q 775 591 1075 516 
Q 1375 441 1709 441 
Q 2250 441 2565 725 
Q 2881 1009 2881 1497 
Q 2881 1984 2565 2268 
Q 2250 2553 1709 2553 
Q 1456 2553 1204 2497 
Q 953 2441 691 2322 
L 691 4666 
z
" transform="scale(0.015625)"/>
       </defs>
       <use xlink:href="#DejaVuSans-32"/>
       <use xlink:href="#DejaVuSans-2e" transform="translate(63.623047 0)"/>
       <use xlink:href="#DejaVuSans-35" transform="translate(95.410156 0)"/>
      </g>
     </g>
    </g>
    <g id="ytick_2">
     <g id="line2d_75">
      <path d="M 71.12 166.901417 
L 416.88 166.901417 
" clip-path="url(#p26d3685c06)" style="fill: none; stroke-dasharray: 1.85,0.8; stroke-dashoffset: 0; stroke: #b0b0b0; stroke-width: 0.5"/>
     </g>
     <g id="line2d_76">
      <g>
       <use xlink:href="#mc5599abe99" x="71.12" y="166.901417" style="stroke: #000000; stroke-width: 0.8"/>
      </g>
     </g>
     <g id="text_7">
      <!-- 5.0 -->
      <g transform="translate(41.855625 172.220323) scale(0.14 -0.14)">
       <use xlink:href="#DejaVuSans-35"/>
       <use xlink:href="#DejaVuSans-2e" transform="translate(63.623047 0)"/>
       <use xlink:href="#DejaVuSans-30" transform="translate(95.410156 0)"/>
      </g>
     </g>
    </g>
    <g id="ytick_3">
     <g id="line2d_77">
      <path d="M 71.12 134.936834 
L 416.88 134.936834 
" clip-path="url(#p26d3685c06)" style="fill: none; stroke-dasharray: 1.85,0.8; stroke-dashoffset: 0; stroke: #b0b0b0; stroke-width: 0.5"/>
     </g>
     <g id="line2d_78">
      <g>
       <use xlink:href="#mc5599abe99" x="71.12" y="134.936834" style="stroke: #000000; stroke-width: 0.8"/>
      </g>
     </g>
     <g id="text_8">
      <!-- 7.5 -->
      <g transform="translate(41.855625 140.25574) scale(0.14 -0.14)">
       <defs>
        <path id="DejaVuSans-37" d="M 525 4666 
L 3525 4666 
L 3525 4397 
L 1831 0 
L 1172 0 
L 2766 4134 
L 525 4134 
L 525 4666 
z
" transform="scale(0.015625)"/>
       </defs>
       <use xlink:href="#DejaVuSans-37"/>
       <use xlink:href="#DejaVuSans-2e" transform="translate(63.623047 0)"/>
       <use xlink:href="#DejaVuSans-35" transform="translate(95.410156 0)"/>
      </g>
     </g>
    </g>
    <g id="ytick_4">
     <g id="line2d_79">
      <path d="M 71.12 102.972251 
L 416.88 102.972251 
" clip-path="url(#p26d3685c06)" style="fill: none; stroke-dasharray: 1.85,0.8; stroke-dashoffset: 0; stroke: #b0b0b0; stroke-width: 0.5"/>
     </g>
     <g id="line2d_80">
      <g>
       <use xlink:href="#mc5599abe99" x="71.12" y="102.972251" style="stroke: #000000; stroke-width: 0.8"/>
      </g>
     </g>
     <g id="text_9">
      <!-- 10.0 -->
      <g transform="translate(32.948125 108.291157) scale(0.14 -0.14)">
       <use xlink:href="#DejaVuSans-31"/>
       <use xlink:href="#DejaVuSans-30" transform="translate(63.623047 0)"/>
       <use xlink:href="#DejaVuSans-2e" transform="translate(127.246094 0)"/>
       <use xlink:href="#DejaVuSans-30" transform="translate(159.033203 0)"/>
      </g>
     </g>
    </g>
    <g id="ytick_5">
     <g id="line2d_81">
      <path d="M 71.12 71.007668 
L 416.88 71.007668 
" clip-path="url(#p26d3685c06)" style="fill: none; stroke-dasharray: 1.85,0.8; stroke-dashoffset: 0; stroke: #b0b0b0; stroke-width: 0.5"/>
     </g>
     <g id="line2d_82">
      <g>
       <use xlink:href="#mc5599abe99" x="71.12" y="71.007668" style="stroke: #000000; stroke-width: 0.8"/>
      </g>
     </g>
     <g id="text_10">
      <!-- 12.5 -->
      <g transform="translate(32.948125 76.326574) scale(0.14 -0.14)">
       <use xlink:href="#DejaVuSans-31"/>
       <use xlink:href="#DejaVuSans-32" transform="translate(63.623047 0)"/>
       <use xlink:href="#DejaVuSans-2e" transform="translate(127.246094 0)"/>
       <use xlink:href="#DejaVuSans-35" transform="translate(159.033203 0)"/>
      </g>
     </g>
    </g>
    <g id="ytick_6">
     <g id="line2d_83">
      <path d="M 71.12 39.043085 
L 416.88 39.043085 
" clip-path="url(#p26d3685c06)" style="fill: none; stroke-dasharray: 1.85,0.8; stroke-dashoffset: 0; stroke: #b0b0b0; stroke-width: 0.5"/>
     </g>
     <g id="line2d_84">
      <g>
       <use xlink:href="#mc5599abe99" x="71.12" y="39.043085" style="stroke: #000000; stroke-width: 0.8"/>
      </g>
     </g>
     <g id="text_11">
      <!-- 15.0 -->
      <g transform="translate(32.948125 44.361991) scale(0.14 -0.14)">
       <use xlink:href="#DejaVuSans-31"/>
       <use xlink:href="#DejaVuSans-35" transform="translate(63.623047 0)"/>
       <use xlink:href="#DejaVuSans-2e" transform="translate(127.246094 0)"/>
       <use xlink:href="#DejaVuSans-30" transform="translate(159.033203 0)"/>
      </g>
     </g>
    </g>
    <g id="text_12">
     <!-- Number distribution (%) -->
     <g transform="translate(26.036562 206.909125) rotate(-90) scale(0.14 -0.14)">
      <defs>
       <path id="DejaVuSans-4e" d="M 628 4666 
L 1478 4666 
L 3547 763 
L 3547 4666 
L 4159 4666 
L 4159 0 
L 3309 0 
L 1241 3903 
L 1241 0 
L 628 0 
L 628 4666 
z
" transform="scale(0.015625)"/>
       <path id="DejaVuSans-75" d="M 544 1381 
L 544 3500 
L 1119 3500 
L 1119 1403 
Q 1119 906 1312 657 
Q 1506 409 1894 409 
Q 2359 409 2629 706 
Q 2900 1003 2900 1516 
L 2900 3500 
L 3475 3500 
L 3475 0 
L 2900 0 
L 2900 538 
Q 2691 219 2414 64 
Q 2138 -91 1772 -91 
Q 1169 -91 856 284 
Q 544 659 544 1381 
z
M 1991 3584 
L 1991 3584 
z
" transform="scale(0.015625)"/>
       <path id="DejaVuSans-62" d="M 3116 1747 
Q 3116 2381 2855 2742 
Q 2594 3103 2138 3103 
Q 1681 3103 1420 2742 
Q 1159 2381 1159 1747 
Q 1159 1113 1420 752 
Q 1681 391 2138 391 
Q 2594 391 2855 752 
Q 3116 1113 3116 1747 
z
M 1159 2969 
Q 1341 3281 1617 3432 
Q 1894 3584 2278 3584 
Q 2916 3584 3314 3078 
Q 3713 2572 3713 1747 
Q 3713 922 3314 415 
Q 2916 -91 2278 -91 
Q 1894 -91 1617 61 
Q 1341 213 1159 525 
L 1159 0 
L 581 0 
L 581 4863 
L 1159 4863 
L 1159 2969 
z
" transform="scale(0.015625)"/>
       <path id="DejaVuSans-65" d="M 3597 1894 
L 3597 1613 
L 953 1613 
Q 991 1019 1311 708 
Q 1631 397 2203 397 
Q 2534 397 2845 478 
Q 3156 559 3463 722 
L 3463 178 
Q 3153 47 2828 -22 
Q 2503 -91 2169 -91 
Q 1331 -91 842 396 
Q 353 884 353 1716 
Q 353 2575 817 3079 
Q 1281 3584 2069 3584 
Q 2775 3584 3186 3129 
Q 3597 2675 3597 1894 
z
M 3022 2063 
Q 3016 2534 2758 2815 
Q 2500 3097 2075 3097 
Q 1594 3097 1305 2825 
Q 1016 2553 972 2059 
L 3022 2063 
z
" transform="scale(0.015625)"/>
       <path id="DejaVuSans-72" d="M 2631 2963 
Q 2534 3019 2420 3045 
Q 2306 3072 2169 3072 
Q 1681 3072 1420 2755 
Q 1159 2438 1159 1844 
L 1159 0 
L 581 0 
L 581 3500 
L 1159 3500 
L 1159 2956 
Q 1341 3275 1631 3429 
Q 1922 3584 2338 3584 
Q 2397 3584 2469 3576 
Q 2541 3569 2628 3553 
L 2631 2963 
z
" transform="scale(0.015625)"/>
       <path id="DejaVuSans-64" d="M 2906 2969 
L 2906 4863 
L 3481 4863 
L 3481 0 
L 2906 0 
L 2906 525 
Q 2725 213 2448 61 
Q 2172 -91 1784 -91 
Q 1150 -91 751 415 
Q 353 922 353 1747 
Q 353 2572 751 3078 
Q 1150 3584 1784 3584 
Q 2172 3584 2448 3432 
Q 2725 3281 2906 2969 
z
M 947 1747 
Q 947 1113 1208 752 
Q 1469 391 1925 391 
Q 2381 391 2643 752 
Q 2906 1113 2906 1747 
Q 2906 2381 2643 2742 
Q 2381 3103 1925 3103 
Q 1469 3103 1208 2742 
Q 947 2381 947 1747 
z
" transform="scale(0.015625)"/>
       <path id="DejaVuSans-69" d="M 603 3500 
L 1178 3500 
L 1178 0 
L 603 0 
L 603 3500 
z
M 603 4863 
L 1178 4863 
L 1178 4134 
L 603 4134 
L 603 4863 
z
" transform="scale(0.015625)"/>
       <path id="DejaVuSans-73" d="M 2834 3397 
L 2834 2853 
Q 2591 2978 2328 3040 
Q 2066 3103 1784 3103 
Q 1356 3103 1142 2972 
Q 928 2841 928 2578 
Q 928 2378 1081 2264 
Q 1234 2150 1697 2047 
L 1894 2003 
Q 2506 1872 2764 1633 
Q 3022 1394 3022 966 
Q 3022 478 2636 193 
Q 2250 -91 1575 -91 
Q 1294 -91 989 -36 
Q 684 19 347 128 
L 347 722 
Q 666 556 975 473 
Q 1284 391 1588 391 
Q 1994 391 2212 530 
Q 2431 669 2431 922 
Q 2431 1156 2273 1281 
Q 2116 1406 1581 1522 
L 1381 1569 
Q 847 1681 609 1914 
Q 372 2147 372 2553 
Q 372 3047 722 3315 
Q 1072 3584 1716 3584 
Q 2034 3584 2315 3537 
Q 2597 3491 2834 3397 
z
" transform="scale(0.015625)"/>
       <path id="DejaVuSans-74" d="M 1172 4494 
L 1172 3500 
L 2356 3500 
L 2356 3053 
L 1172 3053 
L 1172 1153 
Q 1172 725 1289 603 
Q 1406 481 1766 481 
L 2356 481 
L 2356 0 
L 1766 0 
Q 1100 0 847 248 
Q 594 497 594 1153 
L 594 3053 
L 172 3053 
L 172 3500 
L 594 3500 
L 594 4494 
L 1172 4494 
z
" transform="scale(0.015625)"/>
       <path id="DejaVuSans-6f" d="M 1959 3097 
Q 1497 3097 1228 2736 
Q 959 2375 959 1747 
Q 959 1119 1226 758 
Q 1494 397 1959 397 
Q 2419 397 2687 759 
Q 2956 1122 2956 1747 
Q 2956 2369 2687 2733 
Q 2419 3097 1959 3097 
z
M 1959 3584 
Q 2709 3584 3137 3096 
Q 3566 2609 3566 1747 
Q 3566 888 3137 398 
Q 2709 -91 1959 -91 
Q 1206 -91 779 398 
Q 353 888 353 1747 
Q 353 2609 779 3096 
Q 1206 3584 1959 3584 
z
" transform="scale(0.015625)"/>
       <path id="DejaVuSans-6e" d="M 3513 2113 
L 3513 0 
L 2938 0 
L 2938 2094 
Q 2938 2591 2744 2837 
Q 2550 3084 2163 3084 
Q 1697 3084 1428 2787 
Q 1159 2491 1159 1978 
L 1159 0 
L 581 0 
L 581 3500 
L 1159 3500 
L 1159 2956 
Q 1366 3272 1645 3428 
Q 1925 3584 2291 3584 
Q 2894 3584 3203 3211 
Q 3513 2838 3513 2113 
z
" transform="scale(0.015625)"/>
       <path id="DejaVuSans-25" d="M 4653 2053 
Q 4381 2053 4226 1822 
Q 4072 1591 4072 1178 
Q 4072 772 4226 539 
Q 4381 306 4653 306 
Q 4919 306 5073 539 
Q 5228 772 5228 1178 
Q 5228 1588 5073 1820 
Q 4919 2053 4653 2053 
z
M 4653 2450 
Q 5147 2450 5437 2106 
Q 5728 1763 5728 1178 
Q 5728 594 5436 251 
Q 5144 -91 4653 -91 
Q 4153 -91 3862 251 
Q 3572 594 3572 1178 
Q 3572 1766 3864 2108 
Q 4156 2450 4653 2450 
z
M 1428 4353 
Q 1159 4353 1004 4120 
Q 850 3888 850 3481 
Q 850 3069 1003 2837 
Q 1156 2606 1428 2606 
Q 1700 2606 1854 2837 
Q 2009 3069 2009 3481 
Q 2009 3884 1853 4118 
Q 1697 4353 1428 4353 
z
M 4250 4750 
L 4750 4750 
L 1831 -91 
L 1331 -91 
L 4250 4750 
z
M 1428 4750 
Q 1922 4750 2215 4408 
Q 2509 4066 2509 3481 
Q 2509 2891 2217 2550 
Q 1925 2209 1428 2209 
Q 931 2209 642 2551 
Q 353 2894 353 3481 
Q 353 4063 643 4406 
Q 934 4750 1428 4750 
z
" transform="scale(0.015625)"/>
      </defs>
      <use xlink:href="#DejaVuSans-4e"/>
      <use xlink:href="#DejaVuSans-75" transform="translate(74.804688 0)"/>
      <use xlink:href="#DejaVuSans-6d" transform="translate(138.183594 0)"/>
      <use xlink:href="#DejaVuSans-62" transform="translate(235.595703 0)"/>
      <use xlink:href="#DejaVuSans-65" transform="translate(299.072266 0)"/>
      <use xlink:href="#DejaVuSans-72" transform="translate(360.595703 0)"/>
      <use xlink:href="#DejaVuSans-20" transform="translate(401.708984 0)"/>
      <use xlink:href="#DejaVuSans-64" transform="translate(433.496094 0)"/>
      <use xlink:href="#DejaVuSans-69" transform="translate(496.972656 0)"/>
      <use xlink:href="#DejaVuSans-73" transform="translate(524.755859 0)"/>
      <use xlink:href="#DejaVuSans-74" transform="translate(576.855469 0)"/>
      <use xlink:href="#DejaVuSans-72" transform="translate(616.064453 0)"/>
      <use xlink:href="#DejaVuSans-69" transform="translate(657.177734 0)"/>
      <use xlink:href="#DejaVuSans-62" transform="translate(684.960938 0)"/>
      <use xlink:href="#DejaVuSans-75" transform="translate(748.4375 0)"/>
      <use xlink:href="#DejaVuSans-74" transform="translate(811.816406 0)"/>
      <use xlink:href="#DejaVuSans-69" transform="translate(851.025391 0)"/>
      <use xlink:href="#DejaVuSans-6f" transform="translate(878.808594 0)"/>
      <use xlink:href="#DejaVuSans-6e" transform="translate(939.990234 0)"/>
      <use xlink:href="#DejaVuSans-20" transform="translate(1003.369141 0)"/>
      <use xlink:href="#DejaVuSans-28" transform="translate(1035.15625 0)"/>
      <use xlink:href="#DejaVuSans-25" transform="translate(1074.169922 0)"/>
      <use xlink:href="#DejaVuSans-29" transform="translate(1169.189453 0)"/>
     </g>
    </g>
   </g>
   <g id="line2d_85">
    <path d="M 74.370741 230.830583 
L 106.654493 230.747839 
L 110.452581 230.59945 
L 114.250669 230.229991 
L 116.149714 229.888344 
L 118.048758 229.378836 
L 119.947802 228.633889 
L 121.846846 227.566233 
L 123.74589 226.066577 
L 125.644935 224.002536 
L 127.543979 221.219568 
L 129.443023 217.544697 
L 131.342067 212.793745 
L 133.241112 206.782591 
L 135.140156 199.342531 
L 137.0392 190.33932 
L 138.938244 179.69474 
L 140.837288 167.408854 
L 142.736333 153.580441 
L 144.635377 138.422692 
L 148.433465 105.58158 
L 152.231554 72.91182 
L 154.130598 58.252239 
L 156.029642 45.610778 
L 157.928686 35.604829 
L 159.82773 28.744991 
L 161.726775 25.391933 
L 163.625819 25.724984 
L 165.524863 29.726247 
L 167.423907 37.182182 
L 169.322952 47.702498 
L 171.221996 60.753989 
L 173.12104 75.705257 
L 176.919128 108.593016 
L 180.717217 141.227918 
L 182.616261 156.168195 
L 184.515305 169.731965 
L 186.414349 181.727421 
L 188.313394 192.074838 
L 190.212438 200.789798 
L 192.111482 207.962223 
L 194.010526 213.734079 
L 195.909571 218.278142 
L 197.808615 221.779561 
L 199.707659 224.421209 
L 201.606703 226.373178 
L 203.505747 227.786215 
L 205.404792 228.788559 
L 207.303836 229.485426 
L 209.20288 229.960354 
L 213.000968 230.485598 
L 216.799057 230.703361 
L 224.395234 230.816656 
L 260.477074 230.830583 
L 414.299655 230.830583 
L 414.299655 230.830583 
" clip-path="url(#p26d3685c06)" style="fill: none; stroke: #1f77b4; stroke-width: 1.5; stroke-linecap: square"/>
   </g>
   <g id="line2d_86">
    <path d="M 74.370741 230.830583 
L 163.625819 230.729085 
L 169.322952 230.521587 
L 173.12104 230.213755 
L 176.919128 229.648417 
L 178.818173 229.218825 
L 180.717217 228.655394 
L 182.616261 227.924753 
L 184.515305 226.988034 
L 186.414349 225.800855 
L 188.313394 224.313615 
L 190.212438 222.472192 
L 192.111482 220.219108 
L 194.010526 217.495222 
L 195.909571 214.241981 
L 197.808615 210.404233 
L 199.707659 205.933542 
L 201.606703 200.791915 
L 203.505747 194.955774 
L 205.404792 188.419975 
L 207.303836 181.201601 
L 209.20288 173.343242 
L 213.000968 156.018135 
L 222.496189 109.894029 
L 224.395234 101.707982 
L 226.294278 94.365067 
L 228.193322 88.066304 
L 230.092366 82.99051 
L 231.991411 79.285881 
L 233.890455 77.062809 
L 235.789499 76.388421 
L 237.688543 77.283207 
L 239.587587 79.719993 
L 241.486632 83.625306 
L 243.385676 88.883053 
L 245.28472 95.340261 
L 247.183764 102.814455 
L 249.082808 111.10221 
L 252.880897 129.254889 
L 258.57803 157.294802 
L 262.376118 174.486124 
L 264.275162 182.257975 
L 266.174206 189.382197 
L 268.073251 195.819964 
L 269.972295 201.557535 
L 271.871339 206.60289 
L 273.770383 210.981878 
L 275.669427 214.734201 
L 277.568472 217.909458 
L 279.467516 220.56347 
L 281.36656 222.755028 
L 283.265604 224.543165 
L 285.164649 225.984974 
L 287.063693 227.134002 
L 288.962737 228.039144 
L 290.861781 228.744017 
L 292.760825 229.286709 
L 296.558914 230.010799 
L 300.357002 230.412665 
L 306.054135 230.689655 
L 315.549356 230.811803 
L 351.631196 230.830582 
L 414.299655 230.830583 
L 414.299655 230.830583 
" clip-path="url(#p26d3685c06)" style="fill: none; stroke: #ff7f0e; stroke-width: 1.5; stroke-linecap: square"/>
   </g>
   <g id="line2d_87">
    <path d="M 74.370741 230.830583 
L 171.221996 230.745989 
L 176.919128 230.535483 
L 180.717217 230.192753 
L 184.515305 229.518901 
L 186.414349 228.984355 
L 188.313394 228.264097 
L 190.212438 227.306962 
L 192.111482 226.052692 
L 194.010526 224.432056 
L 195.909571 222.367657 
L 197.808615 219.775605 
L 199.707659 216.568204 
L 201.606703 212.657742 
L 203.505747 207.961412 
L 205.404792 202.407264 
L 207.303836 195.940988 
L 209.20288 188.533169 
L 211.101924 180.186528 
L 213.000968 170.942572 
L 214.900013 160.88697 
L 218.698101 138.922289 
L 224.395234 104.723238 
L 226.294278 94.142979 
L 228.193322 84.506893 
L 230.092366 76.128231 
L 231.991411 69.292118 
L 233.890455 64.239501 
L 235.789499 61.153063 
L 237.688543 60.146262 
L 239.587587 61.256408 
L 241.486632 64.44237 
L 243.385676 69.587102 
L 245.28472 76.504784 
L 247.183764 84.951957 
L 249.082808 94.641731 
L 252.880897 116.481778 
L 258.57803 150.691854 
L 260.477074 161.396466 
L 262.376118 171.41503 
L 264.275162 180.616663 
L 266.174206 188.917956 
L 268.073251 196.279442 
L 269.972295 202.700134 
L 271.871339 208.210838 
L 273.770383 212.866895 
L 275.669427 216.740938 
L 277.568472 219.916145 
L 279.467516 222.480333 
L 281.36656 224.521092 
L 283.265604 226.122047 
L 285.164649 227.360225 
L 287.063693 228.304432 
L 288.962737 229.014477 
L 290.861781 229.541087 
L 294.65987 230.204305 
L 298.457958 230.541181 
L 304.155091 230.747774 
L 315.549356 230.825738 
L 414.299655 230.830583 
L 414.299655 230.830583 
" clip-path="url(#p26d3685c06)" style="fill: none; stroke: #d62728; stroke-width: 1.5; stroke-linecap: square"/>
   </g>
   <g id="line2d_88">
    <path d="M 74.370741 230.830583 
L 159.82773 230.742813 
L 165.524863 230.563286 
L 169.322952 230.296356 
L 173.12104 229.804696 
L 175.020084 229.430103 
L 176.919128 228.937739 
L 178.818173 228.297713 
L 180.717217 227.474973 
L 182.616261 226.429187 
L 184.515305 225.114879 
L 186.414349 223.481902 
L 188.313394 221.476322 
L 190.212438 219.041774 
L 192.111482 216.121325 
L 194.010526 212.659868 
L 195.909571 208.607023 
L 197.808615 203.920463 
L 199.707659 198.569567 
L 201.606703 192.539221 
L 203.505747 185.833539 
L 205.404792 178.479275 
L 207.303836 170.528616 
L 211.101924 153.184325 
L 218.698101 116.641846 
L 220.597145 108.185562 
L 222.496189 100.412756 
L 224.395234 93.526204 
L 226.294278 87.71326 
L 228.193322 83.137415 
L 230.092366 79.930668 
L 231.991411 78.187204 
L 233.890455 77.958799 
L 235.789499 79.252264 
L 237.688543 82.029112 
L 239.587587 86.207456 
L 241.486632 91.66602 
L 243.385676 98.249989 
L 245.28472 105.778293 
L 247.183764 114.05186 
L 250.981853 132.000529 
L 256.678985 159.441813 
L 260.477074 176.159323 
L 262.376118 183.698758 
L 264.275162 190.602456 
L 266.174206 196.83631 
L 268.073251 202.389764 
L 269.972295 207.272562 
L 271.871339 211.511081 
L 273.770383 215.14454 
L 275.669427 218.221274 
L 277.568472 220.795301 
L 279.467516 222.923283 
L 281.36656 224.661974 
L 283.265604 226.0662 
L 285.164649 227.187354 
L 287.063693 228.072377 
L 288.962737 228.76317 
L 290.861781 229.296361 
L 294.65987 230.010626 
L 298.457958 230.409531 
L 304.155091 230.686834 
L 313.650312 230.810953 
L 349.732152 230.830582 
L 414.299655 230.830583 
L 414.299655 230.830583 
" clip-path="url(#p26d3685c06)" style="fill: none; stroke: #bcbd22; stroke-width: 1.5; stroke-linecap: square"/>
   </g>
   <g id="line2d_89">
    <path d="M 74.370741 230.830583 
L 157.928686 230.72078 
L 163.625819 230.510923 
L 167.423907 230.209118 
L 171.221996 229.667468 
L 173.12104 229.26192 
L 175.020084 228.734994 
L 176.919128 228.05757 
L 178.818173 227.195894 
L 180.717217 226.111563 
L 182.616261 224.76174 
L 184.515305 223.099696 
L 186.414349 221.075698 
L 188.313394 218.638319 
L 190.212438 215.736178 
L 192.111482 212.320131 
L 194.010526 208.345865 
L 195.909571 203.776846 
L 197.808615 198.587505 
L 199.707659 192.766523 
L 201.606703 186.320016 
L 203.505747 179.274425 
L 205.404792 171.678865 
L 209.20288 155.156148 
L 216.799057 120.33482 
L 218.698101 112.221422 
L 220.597145 104.717472 
L 222.496189 98.008085 
L 224.395234 92.265934 
L 226.294278 87.643893 
L 228.193322 84.26829 
L 230.092366 82.23317 
L 231.991411 81.595941 
L 233.890455 82.374688 
L 235.789499 84.547319 
L 237.688543 88.052602 
L 239.587587 92.793036 
L 241.486632 98.639359 
L 243.385676 105.436392 
L 245.28472 113.009881 
L 249.082808 129.738258 
L 256.678985 164.434245 
L 258.57803 172.462678 
L 260.477074 180.006039 
L 262.376118 186.993437 
L 264.275162 193.378115 
L 266.174206 199.135782 
L 268.073251 204.262208 
L 269.972295 208.770285 
L 271.871339 212.686829 
L 273.770383 216.049294 
L 275.669427 218.902603 
L 277.568472 221.296238 
L 279.467516 223.281673 
L 281.36656 224.910238 
L 283.265604 226.231416 
L 285.164649 227.291582 
L 287.063693 228.133144 
L 288.962737 228.794047 
L 290.861781 229.307577 
L 294.65987 230.002775 
L 298.457958 230.397437 
L 304.155091 230.677928 
L 313.650312 230.80839 
L 345.934063 230.830578 
L 414.299655 230.830583 
L 414.299655 230.830583 
" clip-path="url(#p26d3685c06)" style="fill: none; stroke: #17becf; stroke-width: 1.5; stroke-linecap: square"/>
   </g>
   <g id="line2d_90">
    <path d="M 74.370741 230.830583 
L 157.928686 230.738634 
L 163.625819 230.554681 
L 167.423907 230.284048 
L 171.221996 229.789555 
L 173.12104 229.414783 
L 175.020084 228.923864 
L 176.919128 228.287759 
L 178.818173 227.472501 
L 180.717217 226.4391 
L 182.616261 225.143676 
L 184.515305 223.537919 
L 186.414349 221.569936 
L 188.313394 219.185528 
L 190.212438 216.329955 
L 192.111482 212.950186 
L 194.010526 208.997625 
L 195.909571 204.431243 
L 197.808615 199.22101 
L 199.707659 193.351474 
L 201.606703 186.825285 
L 203.505747 179.666436 
L 205.404792 171.922948 
L 209.20288 155.004521 
L 218.698101 110.749516 
L 220.597145 102.998177 
L 222.496189 96.073234 
L 224.395234 90.158141 
L 226.294278 85.415094 
L 228.193322 81.977656 
L 230.092366 79.944507 
L 231.991411 79.374744 
L 233.890455 80.285024 
L 235.789499 82.648755 
L 237.688543 86.397387 
L 239.587587 91.423716 
L 241.486632 97.586976 
L 243.385676 104.719379 
L 245.28472 112.633698 
L 249.082808 130.010751 
L 254.779941 157.032698 
L 258.57803 173.757074 
L 260.477074 181.371335 
L 262.376118 188.387637 
L 264.275162 194.763701 
L 266.174206 200.480719 
L 268.073251 205.540516 
L 269.972295 209.962225 
L 271.871339 213.778728 
L 273.770383 217.033093 
L 275.669427 219.775205 
L 277.568472 222.058713 
L 279.467516 223.938416 
L 281.36656 225.468117 
L 283.265604 226.698982 
L 285.164649 227.678358 
L 287.063693 228.449025 
L 288.962737 229.048819 
L 292.760825 229.862164 
L 296.558914 230.324459 
L 302.256046 230.652905 
L 309.852223 230.792221 
L 330.74171 230.830331 
L 414.299655 230.830583 
L 414.299655 230.830583 
" clip-path="url(#p26d3685c06)" style="fill: none; stroke: #7f7f7f; stroke-width: 1.5; stroke-linecap: square"/>
   </g>
   <g id="patch_3">
    <path d="M 71.12 229.552 
L 71.12 15.12 
" style="fill: none; stroke: #000000; stroke-width: 0.8; stroke-linejoin: miter; stroke-linecap: square"/>
   </g>
   <g id="patch_4">
    <path d="M 416.88 229.552 
L 416.88 15.12 
" style="fill: none; stroke: #000000; stroke-width: 0.8; stroke-linejoin: miter; stroke-linecap: square"/>
   </g>
   <g id="patch_5">
    <path d="M 71.12 229.552 
L 416.88 229.552 
" style="fill: none; stroke: #000000; stroke-width: 0.8; stroke-linejoin: miter; stroke-linecap: square"/>
   </g>
   <g id="patch_6">
    <path d="M 71.12 15.12 
L 416.88 15.12 
" style="fill: none; stroke: #000000; stroke-width: 0.8; stroke-linejoin: miter; stroke-linecap: square"/>
   </g>
  </g>
 </g>
 <defs>
  <clipPath id="p26d3685c06">
   <rect x="71.12" y="15.12" width="345.76" height="214.432"/>
  </clipPath>
 </defs>
</svg>
