<?xml version="1.0" encoding="utf-8" standalone="no"?>
<!DOCTYPE svg PUBLIC "-//W3C//DTD SVG 1.1//EN"
  "http://www.w3.org/Graphics/SVG/1.1/DTD/svg11.dtd">
<svg xmlns:xlink="http://www.w3.org/1999/xlink" width="432pt" height="288pt" viewBox="0 0 432 288" xmlns="http://www.w3.org/2000/svg" version="1.1">
 <metadata>
  <rdf:RDF xmlns:dc="http://purl.org/dc/elements/1.1/" xmlns:cc="http://creativecommons.org/ns#" xmlns:rdf="http://www.w3.org/1999/02/22-rdf-syntax-ns#">
   <cc:Work>
    <dc:type rdf:resource="http://purl.org/dc/dcmitype/StillImage"/>
    <dc:date>2025-09-26T18:51:25.781938</dc:date>
    <dc:format>image/svg+xml</dc:format>
    <dc:creator>
     <cc:Agent>
      <dc:title>Matplotlib v3.10.0, https://matplotlib.org/</dc:title>
     </cc:Agent>
    </dc:creator>
   </cc:Work>
  </rdf:RDF>
 </metadata>
 <defs>
  <style type="text/css">*{stroke-linejoin: round; stroke-linecap: butt}</style>
 </defs>
 <g id="figure_1">
  <g id="patch_1">
   <path d="M 0 288 
L 432 288 
L 432 0 
L 0 0 
z
" style="fill: #ffffff"/>
  </g>
  <g id="axes_1">
   <g id="patch_2">
    <path d="M 44.57 239.848 
L 214.298792 239.848 
L 214.298792 14.76 
L 44.57 14.76 
z
" style="fill: #ffffff"/>
   </g>
   <g id="matplotlib.axis_1">
    <g id="xtick_1">
     <g id="line2d_1">
      <path d="M 52.37024 239.848 
L 52.37024 14.76 
" clip-path="url(#p4c2cd3dda4)" style="fill: none; stroke-dasharray: 1.85,0.8; stroke-dashoffset: 0; stroke: #b0b0b0; stroke-width: 0.5"/>
     </g>
     <g id="line2d_2">
      <defs>
       <path id="m149273a808" d="M 0 0 
L 0 3.5 
" style="stroke: #000000; stroke-width: 0.8"/>
      </defs>
      <g>
       <use xlink:href="#m149273a808" x="52.37024" y="239.848" style="stroke: #000000; stroke-width: 0.8"/>
      </g>
     </g>
     <g id="text_1">
      <!-- $\mathdefault{10^{-1}}$ -->
      <g transform="translate(40.62024 254.446438) scale(0.1 -0.1)">
       <defs>
        <path id="DejaVuSans-31" d="M 794 531 
L 1825 531 
L 1825 4091 
L 703 3866 
L 703 4441 
L 1819 4666 
L 2450 4666 
L 2450 531 
L 3481 531 
L 3481 0 
L 794 0 
L 794 531 
z
" transform="scale(0.015625)"/>
        <path id="DejaVuSans-30" d="M 2034 4250 
Q 1547 4250 1301 3770 
Q 1056 3291 1056 2328 
Q 1056 1369 1301 889 
Q 1547 409 2034 409 
Q 2525 409 2770 889 
Q 3016 1369 3016 2328 
Q 3016 3291 2770 3770 
Q 2525 4250 2034 4250 
z
M 2034 4750 
Q 2819 4750 3233 4129 
Q 3647 3509 3647 2328 
Q 3647 1150 3233 529 
Q 2819 -91 2034 -91 
Q 1250 -91 836 529 
Q 422 1150 422 2328 
Q 422 3509 836 4129 
Q 1250 4750 2034 4750 
z
" transform="scale(0.015625)"/>
        <path id="DejaVuSans-2212" d="M 678 2272 
L 4684 2272 
L 4684 1741 
L 678 1741 
L 678 2272 
z
" transform="scale(0.015625)"/>
       </defs>
       <use xlink:href="#DejaVuSans-31" transform="translate(0 0.684375)"/>
       <use xlink:href="#DejaVuSans-30" transform="translate(63.623047 0.684375)"/>
       <use xlink:href="#DejaVuSans-2212" transform="translate(128.203125 38.965625) scale(0.7)"/>
       <use xlink:href="#DejaVuSans-31" transform="translate(186.855469 38.965625) scale(0.7)"/>
      </g>
     </g>
    </g>
    <g id="xtick_2">
     <g id="line2d_3">
      <path d="M 91.551619 239.848 
L 91.551619 14.76 
" clip-path="url(#p4c2cd3dda4)" style="fill: none; stroke-dasharray: 1.85,0.8; stroke-dashoffset: 0; stroke: #b0b0b0; stroke-width: 0.5"/>
     </g>
     <g id="line2d_4">
      <g>
       <use xlink:href="#m149273a808" x="91.551619" y="239.848" style="stroke: #000000; stroke-width: 0.8"/>
      </g>
     </g>
     <g id="text_2">
      <!-- $\mathdefault{10^{0}}$ -->
      <g transform="translate(82.751619 254.446438) scale(0.1 -0.1)">
       <use xlink:href="#DejaVuSans-31" transform="translate(0 0.765625)"/>
       <use xlink:href="#DejaVuSans-30" transform="translate(63.623047 0.765625)"/>
       <use xlink:href="#DejaVuSans-30" transform="translate(128.203125 39.046875) scale(0.7)"/>
      </g>
     </g>
    </g>
    <g id="xtick_3">
     <g id="line2d_5">
      <path d="M 130.732997 239.848 
L 130.732997 14.76 
" clip-path="url(#p4c2cd3dda4)" style="fill: none; stroke-dasharray: 1.85,0.8; stroke-dashoffset: 0; stroke: #b0b0b0; stroke-width: 0.5"/>
     </g>
     <g id="line2d_6">
      <g>
       <use xlink:href="#m149273a808" x="130.732997" y="239.848" style="stroke: #000000; stroke-width: 0.8"/>
      </g>
     </g>
     <g id="text_3">
      <!-- $\mathdefault{10^{1}}$ -->
      <g transform="translate(121.932997 254.446438) scale(0.1 -0.1)">
       <use xlink:href="#DejaVuSans-31" transform="translate(0 0.684375)"/>
       <use xlink:href="#DejaVuSans-30" transform="translate(63.623047 0.684375)"/>
       <use xlink:href="#DejaVuSans-31" transform="translate(128.203125 38.965625) scale(0.7)"/>
      </g>
     </g>
    </g>
    <g id="xtick_4">
     <g id="line2d_7">
      <path d="M 169.914376 239.848 
L 169.914376 14.76 
" clip-path="url(#p4c2cd3dda4)" style="fill: none; stroke-dasharray: 1.85,0.8; stroke-dashoffset: 0; stroke: #b0b0b0; stroke-width: 0.5"/>
     </g>
     <g id="line2d_8">
      <g>
       <use xlink:href="#m149273a808" x="169.914376" y="239.848" style="stroke: #000000; stroke-width: 0.8"/>
      </g>
     </g>
     <g id="text_4">
      <!-- $\mathdefault{10^{2}}$ -->
      <g transform="translate(161.114376 254.446438) scale(0.1 -0.1)">
       <defs>
        <path id="DejaVuSans-32" d="M 1228 531 
L 3431 531 
L 3431 0 
L 469 0 
L 469 531 
Q 828 903 1448 1529 
Q 2069 2156 2228 2338 
Q 2531 2678 2651 2914 
Q 2772 3150 2772 3378 
Q 2772 3750 2511 3984 
Q 2250 4219 1831 4219 
Q 1534 4219 1204 4116 
Q 875 4013 500 3803 
L 500 4441 
Q 881 4594 1212 4672 
Q 1544 4750 1819 4750 
Q 2544 4750 2975 4387 
Q 3406 4025 3406 3419 
Q 3406 3131 3298 2873 
Q 3191 2616 2906 2266 
Q 2828 2175 2409 1742 
Q 1991 1309 1228 531 
z
" transform="scale(0.015625)"/>
       </defs>
       <use xlink:href="#DejaVuSans-31" transform="translate(0 0.765625)"/>
       <use xlink:href="#DejaVuSans-30" transform="translate(63.623047 0.765625)"/>
       <use xlink:href="#DejaVuSans-32" transform="translate(128.203125 39.046875) scale(0.7)"/>
      </g>
     </g>
    </g>
    <g id="xtick_5">
     <g id="line2d_9">
      <path d="M 209.095755 239.848 
L 209.095755 14.76 
" clip-path="url(#p4c2cd3dda4)" style="fill: none; stroke-dasharray: 1.85,0.8; stroke-dashoffset: 0; stroke: #b0b0b0; stroke-width: 0.5"/>
     </g>
     <g id="line2d_10">
      <g>
       <use xlink:href="#m149273a808" x="209.095755" y="239.848" style="stroke: #000000; stroke-width: 0.8"/>
      </g>
     </g>
     <g id="text_5">
      <!-- $\mathdefault{10^{3}}$ -->
      <g transform="translate(200.295755 254.446438) scale(0.1 -0.1)">
       <defs>
        <path id="DejaVuSans-33" d="M 2597 2516 
Q 3050 2419 3304 2112 
Q 3559 1806 3559 1356 
Q 3559 666 3084 287 
Q 2609 -91 1734 -91 
Q 1441 -91 1130 -33 
Q 819 25 488 141 
L 488 750 
Q 750 597 1062 519 
Q 1375 441 1716 441 
Q 2309 441 2620 675 
Q 2931 909 2931 1356 
Q 2931 1769 2642 2001 
Q 2353 2234 1838 2234 
L 1294 2234 
L 1294 2753 
L 1863 2753 
Q 2328 2753 2575 2939 
Q 2822 3125 2822 3475 
Q 2822 3834 2567 4026 
Q 2313 4219 1838 4219 
Q 1578 4219 1281 4162 
Q 984 4106 628 3988 
L 628 4550 
Q 988 4650 1302 4700 
Q 1616 4750 1894 4750 
Q 2613 4750 3031 4423 
Q 3450 4097 3450 3541 
Q 3450 3153 3228 2886 
Q 3006 2619 2597 2516 
z
" transform="scale(0.015625)"/>
       </defs>
       <use xlink:href="#DejaVuSans-31" transform="translate(0 0.765625)"/>
       <use xlink:href="#DejaVuSans-30" transform="translate(63.623047 0.765625)"/>
       <use xlink:href="#DejaVuSans-33" transform="translate(128.203125 39.046875) scale(0.7)"/>
      </g>
     </g>
    </g>
    <g id="xtick_6">
     <g id="line2d_11">
      <path d="M 46.300967 239.848 
L 46.300967 14.76 
" clip-path="url(#p4c2cd3dda4)" style="fill: none; stroke-dasharray: 1.85,0.8; stroke-dashoffset: 0; stroke: #b0b0b0; stroke-width: 0.5"/>
     </g>
     <g id="line2d_12">
      <defs>
       <path id="m79532e5739" d="M 0 0 
L 0 2 
" style="stroke: #000000; stroke-width: 0.6"/>
      </defs>
      <g>
       <use xlink:href="#m79532e5739" x="46.300967" y="239.848" style="stroke: #000000; stroke-width: 0.6"/>
      </g>
     </g>
    </g>
    <g id="xtick_7">
     <g id="line2d_13">
      <path d="M 48.573172 239.848 
L 48.573172 14.76 
" clip-path="url(#p4c2cd3dda4)" style="fill: none; stroke-dasharray: 1.85,0.8; stroke-dashoffset: 0; stroke: #b0b0b0; stroke-width: 0.5"/>
     </g>
     <g id="line2d_14">
      <g>
       <use xlink:href="#m79532e5739" x="48.573172" y="239.848" style="stroke: #000000; stroke-width: 0.6"/>
      </g>
     </g>
    </g>
    <g id="xtick_8">
     <g id="line2d_15">
      <path d="M 50.577398 239.848 
L 50.577398 14.76 
" clip-path="url(#p4c2cd3dda4)" style="fill: none; stroke-dasharray: 1.85,0.8; stroke-dashoffset: 0; stroke: #b0b0b0; stroke-width: 0.5"/>
     </g>
     <g id="line2d_16">
      <g>
       <use xlink:href="#m79532e5739" x="50.577398" y="239.848" style="stroke: #000000; stroke-width: 0.6"/>
      </g>
     </g>
    </g>
    <g id="xtick_9">
     <g id="line2d_17">
      <path d="M 64.16501 239.848 
L 64.16501 14.76 
" clip-path="url(#p4c2cd3dda4)" style="fill: none; stroke-dasharray: 1.85,0.8; stroke-dashoffset: 0; stroke: #b0b0b0; stroke-width: 0.5"/>
     </g>
     <g id="line2d_18">
      <g>
       <use xlink:href="#m79532e5739" x="64.16501" y="239.848" style="stroke: #000000; stroke-width: 0.6"/>
      </g>
     </g>
    </g>
    <g id="xtick_10">
     <g id="line2d_19">
      <path d="M 71.064508 239.848 
L 71.064508 14.76 
" clip-path="url(#p4c2cd3dda4)" style="fill: none; stroke-dasharray: 1.85,0.8; stroke-dashoffset: 0; stroke: #b0b0b0; stroke-width: 0.5"/>
     </g>
     <g id="line2d_20">
      <g>
       <use xlink:href="#m79532e5739" x="71.064508" y="239.848" style="stroke: #000000; stroke-width: 0.6"/>
      </g>
     </g>
    </g>
    <g id="xtick_11">
     <g id="line2d_21">
      <path d="M 75.95978 239.848 
L 75.95978 14.76 
" clip-path="url(#p4c2cd3dda4)" style="fill: none; stroke-dasharray: 1.85,0.8; stroke-dashoffset: 0; stroke: #b0b0b0; stroke-width: 0.5"/>
     </g>
     <g id="line2d_22">
      <g>
       <use xlink:href="#m79532e5739" x="75.95978" y="239.848" style="stroke: #000000; stroke-width: 0.6"/>
      </g>
     </g>
    </g>
    <g id="xtick_12">
     <g id="line2d_23">
      <path d="M 79.756848 239.848 
L 79.756848 14.76 
" clip-path="url(#p4c2cd3dda4)" style="fill: none; stroke-dasharray: 1.85,0.8; stroke-dashoffset: 0; stroke: #b0b0b0; stroke-width: 0.5"/>
     </g>
     <g id="line2d_24">
      <g>
       <use xlink:href="#m79532e5739" x="79.756848" y="239.848" style="stroke: #000000; stroke-width: 0.6"/>
      </g>
     </g>
    </g>
    <g id="xtick_13">
     <g id="line2d_25">
      <path d="M 82.859279 239.848 
L 82.859279 14.76 
" clip-path="url(#p4c2cd3dda4)" style="fill: none; stroke-dasharray: 1.85,0.8; stroke-dashoffset: 0; stroke: #b0b0b0; stroke-width: 0.5"/>
     </g>
     <g id="line2d_26">
      <g>
       <use xlink:href="#m79532e5739" x="82.859279" y="239.848" style="stroke: #000000; stroke-width: 0.6"/>
      </g>
     </g>
    </g>
    <g id="xtick_14">
     <g id="line2d_27">
      <path d="M 85.482346 239.848 
L 85.482346 14.76 
" clip-path="url(#p4c2cd3dda4)" style="fill: none; stroke-dasharray: 1.85,0.8; stroke-dashoffset: 0; stroke: #b0b0b0; stroke-width: 0.5"/>
     </g>
     <g id="line2d_28">
      <g>
       <use xlink:href="#m79532e5739" x="85.482346" y="239.848" style="stroke: #000000; stroke-width: 0.6"/>
      </g>
     </g>
    </g>
    <g id="xtick_15">
     <g id="line2d_29">
      <path d="M 87.754551 239.848 
L 87.754551 14.76 
" clip-path="url(#p4c2cd3dda4)" style="fill: none; stroke-dasharray: 1.85,0.8; stroke-dashoffset: 0; stroke: #b0b0b0; stroke-width: 0.5"/>
     </g>
     <g id="line2d_30">
      <g>
       <use xlink:href="#m79532e5739" x="87.754551" y="239.848" style="stroke: #000000; stroke-width: 0.6"/>
      </g>
     </g>
    </g>
    <g id="xtick_16">
     <g id="line2d_31">
      <path d="M 89.758777 239.848 
L 89.758777 14.76 
" clip-path="url(#p4c2cd3dda4)" style="fill: none; stroke-dasharray: 1.85,0.8; stroke-dashoffset: 0; stroke: #b0b0b0; stroke-width: 0.5"/>
     </g>
     <g id="line2d_32">
      <g>
       <use xlink:href="#m79532e5739" x="89.758777" y="239.848" style="stroke: #000000; stroke-width: 0.6"/>
      </g>
     </g>
    </g>
    <g id="xtick_17">
     <g id="line2d_33">
      <path d="M 103.346389 239.848 
L 103.346389 14.76 
" clip-path="url(#p4c2cd3dda4)" style="fill: none; stroke-dasharray: 1.85,0.8; stroke-dashoffset: 0; stroke: #b0b0b0; stroke-width: 0.5"/>
     </g>
     <g id="line2d_34">
      <g>
       <use xlink:href="#m79532e5739" x="103.346389" y="239.848" style="stroke: #000000; stroke-width: 0.6"/>
      </g>
     </g>
    </g>
    <g id="xtick_18">
     <g id="line2d_35">
      <path d="M 110.245887 239.848 
L 110.245887 14.76 
" clip-path="url(#p4c2cd3dda4)" style="fill: none; stroke-dasharray: 1.85,0.8; stroke-dashoffset: 0; stroke: #b0b0b0; stroke-width: 0.5"/>
     </g>
     <g id="line2d_36">
      <g>
       <use xlink:href="#m79532e5739" x="110.245887" y="239.848" style="stroke: #000000; stroke-width: 0.6"/>
      </g>
     </g>
    </g>
    <g id="xtick_19">
     <g id="line2d_37">
      <path d="M 115.141159 239.848 
L 115.141159 14.76 
" clip-path="url(#p4c2cd3dda4)" style="fill: none; stroke-dasharray: 1.85,0.8; stroke-dashoffset: 0; stroke: #b0b0b0; stroke-width: 0.5"/>
     </g>
     <g id="line2d_38">
      <g>
       <use xlink:href="#m79532e5739" x="115.141159" y="239.848" style="stroke: #000000; stroke-width: 0.6"/>
      </g>
     </g>
    </g>
    <g id="xtick_20">
     <g id="line2d_39">
      <path d="M 118.938227 239.848 
L 118.938227 14.76 
" clip-path="url(#p4c2cd3dda4)" style="fill: none; stroke-dasharray: 1.85,0.8; stroke-dashoffset: 0; stroke: #b0b0b0; stroke-width: 0.5"/>
     </g>
     <g id="line2d_40">
      <g>
       <use xlink:href="#m79532e5739" x="118.938227" y="239.848" style="stroke: #000000; stroke-width: 0.6"/>
      </g>
     </g>
    </g>
    <g id="xtick_21">
     <g id="line2d_41">
      <path d="M 122.040658 239.848 
L 122.040658 14.76 
" clip-path="url(#p4c2cd3dda4)" style="fill: none; stroke-dasharray: 1.85,0.8; stroke-dashoffset: 0; stroke: #b0b0b0; stroke-width: 0.5"/>
     </g>
     <g id="line2d_42">
      <g>
       <use xlink:href="#m79532e5739" x="122.040658" y="239.848" style="stroke: #000000; stroke-width: 0.6"/>
      </g>
     </g>
    </g>
    <g id="xtick_22">
     <g id="line2d_43">
      <path d="M 124.663725 239.848 
L 124.663725 14.76 
" clip-path="url(#p4c2cd3dda4)" style="fill: none; stroke-dasharray: 1.85,0.8; stroke-dashoffset: 0; stroke: #b0b0b0; stroke-width: 0.5"/>
     </g>
     <g id="line2d_44">
      <g>
       <use xlink:href="#m79532e5739" x="124.663725" y="239.848" style="stroke: #000000; stroke-width: 0.6"/>
      </g>
     </g>
    </g>
    <g id="xtick_23">
     <g id="line2d_45">
      <path d="M 126.935929 239.848 
L 126.935929 14.76 
" clip-path="url(#p4c2cd3dda4)" style="fill: none; stroke-dasharray: 1.85,0.8; stroke-dashoffset: 0; stroke: #b0b0b0; stroke-width: 0.5"/>
     </g>
     <g id="line2d_46">
      <g>
       <use xlink:href="#m79532e5739" x="126.935929" y="239.848" style="stroke: #000000; stroke-width: 0.6"/>
      </g>
     </g>
    </g>
    <g id="xtick_24">
     <g id="line2d_47">
      <path d="M 128.940156 239.848 
L 128.940156 14.76 
" clip-path="url(#p4c2cd3dda4)" style="fill: none; stroke-dasharray: 1.85,0.8; stroke-dashoffset: 0; stroke: #b0b0b0; stroke-width: 0.5"/>
     </g>
     <g id="line2d_48">
      <g>
       <use xlink:href="#m79532e5739" x="128.940156" y="239.848" style="stroke: #000000; stroke-width: 0.6"/>
      </g>
     </g>
    </g>
    <g id="xtick_25">
     <g id="line2d_49">
      <path d="M 142.527768 239.848 
L 142.527768 14.76 
" clip-path="url(#p4c2cd3dda4)" style="fill: none; stroke-dasharray: 1.85,0.8; stroke-dashoffset: 0; stroke: #b0b0b0; stroke-width: 0.5"/>
     </g>
     <g id="line2d_50">
      <g>
       <use xlink:href="#m79532e5739" x="142.527768" y="239.848" style="stroke: #000000; stroke-width: 0.6"/>
      </g>
     </g>
    </g>
    <g id="xtick_26">
     <g id="line2d_51">
      <path d="M 149.427266 239.848 
L 149.427266 14.76 
" clip-path="url(#p4c2cd3dda4)" style="fill: none; stroke-dasharray: 1.85,0.8; stroke-dashoffset: 0; stroke: #b0b0b0; stroke-width: 0.5"/>
     </g>
     <g id="line2d_52">
      <g>
       <use xlink:href="#m79532e5739" x="149.427266" y="239.848" style="stroke: #000000; stroke-width: 0.6"/>
      </g>
     </g>
    </g>
    <g id="xtick_27">
     <g id="line2d_53">
      <path d="M 154.322538 239.848 
L 154.322538 14.76 
" clip-path="url(#p4c2cd3dda4)" style="fill: none; stroke-dasharray: 1.85,0.8; stroke-dashoffset: 0; stroke: #b0b0b0; stroke-width: 0.5"/>
     </g>
     <g id="line2d_54">
      <g>
       <use xlink:href="#m79532e5739" x="154.322538" y="239.848" style="stroke: #000000; stroke-width: 0.6"/>
      </g>
     </g>
    </g>
    <g id="xtick_28">
     <g id="line2d_55">
      <path d="M 158.119606 239.848 
L 158.119606 14.76 
" clip-path="url(#p4c2cd3dda4)" style="fill: none; stroke-dasharray: 1.85,0.8; stroke-dashoffset: 0; stroke: #b0b0b0; stroke-width: 0.5"/>
     </g>
     <g id="line2d_56">
      <g>
       <use xlink:href="#m79532e5739" x="158.119606" y="239.848" style="stroke: #000000; stroke-width: 0.6"/>
      </g>
     </g>
    </g>
    <g id="xtick_29">
     <g id="line2d_57">
      <path d="M 161.222036 239.848 
L 161.222036 14.76 
" clip-path="url(#p4c2cd3dda4)" style="fill: none; stroke-dasharray: 1.85,0.8; stroke-dashoffset: 0; stroke: #b0b0b0; stroke-width: 0.5"/>
     </g>
     <g id="line2d_58">
      <g>
       <use xlink:href="#m79532e5739" x="161.222036" y="239.848" style="stroke: #000000; stroke-width: 0.6"/>
      </g>
     </g>
    </g>
    <g id="xtick_30">
     <g id="line2d_59">
      <path d="M 163.845104 239.848 
L 163.845104 14.76 
" clip-path="url(#p4c2cd3dda4)" style="fill: none; stroke-dasharray: 1.85,0.8; stroke-dashoffset: 0; stroke: #b0b0b0; stroke-width: 0.5"/>
     </g>
     <g id="line2d_60">
      <g>
       <use xlink:href="#m79532e5739" x="163.845104" y="239.848" style="stroke: #000000; stroke-width: 0.6"/>
      </g>
     </g>
    </g>
    <g id="xtick_31">
     <g id="line2d_61">
      <path d="M 166.117308 239.848 
L 166.117308 14.76 
" clip-path="url(#p4c2cd3dda4)" style="fill: none; stroke-dasharray: 1.85,0.8; stroke-dashoffset: 0; stroke: #b0b0b0; stroke-width: 0.5"/>
     </g>
     <g id="line2d_62">
      <g>
       <use xlink:href="#m79532e5739" x="166.117308" y="239.848" style="stroke: #000000; stroke-width: 0.6"/>
      </g>
     </g>
    </g>
    <g id="xtick_32">
     <g id="line2d_63">
      <path d="M 168.121535 239.848 
L 168.121535 14.76 
" clip-path="url(#p4c2cd3dda4)" style="fill: none; stroke-dasharray: 1.85,0.8; stroke-dashoffset: 0; stroke: #b0b0b0; stroke-width: 0.5"/>
     </g>
     <g id="line2d_64">
      <g>
       <use xlink:href="#m79532e5739" x="168.121535" y="239.848" style="stroke: #000000; stroke-width: 0.6"/>
      </g>
     </g>
    </g>
    <g id="xtick_33">
     <g id="line2d_65">
      <path d="M 181.709147 239.848 
L 181.709147 14.76 
" clip-path="url(#p4c2cd3dda4)" style="fill: none; stroke-dasharray: 1.85,0.8; stroke-dashoffset: 0; stroke: #b0b0b0; stroke-width: 0.5"/>
     </g>
     <g id="line2d_66">
      <g>
       <use xlink:href="#m79532e5739" x="181.709147" y="239.848" style="stroke: #000000; stroke-width: 0.6"/>
      </g>
     </g>
    </g>
    <g id="xtick_34">
     <g id="line2d_67">
      <path d="M 188.608645 239.848 
L 188.608645 14.76 
" clip-path="url(#p4c2cd3dda4)" style="fill: none; stroke-dasharray: 1.85,0.8; stroke-dashoffset: 0; stroke: #b0b0b0; stroke-width: 0.5"/>
     </g>
     <g id="line2d_68">
      <g>
       <use xlink:href="#m79532e5739" x="188.608645" y="239.848" style="stroke: #000000; stroke-width: 0.6"/>
      </g>
     </g>
    </g>
    <g id="xtick_35">
     <g id="line2d_69">
      <path d="M 193.503917 239.848 
L 193.503917 14.76 
" clip-path="url(#p4c2cd3dda4)" style="fill: none; stroke-dasharray: 1.85,0.8; stroke-dashoffset: 0; stroke: #b0b0b0; stroke-width: 0.5"/>
     </g>
     <g id="line2d_70">
      <g>
       <use xlink:href="#m79532e5739" x="193.503917" y="239.848" style="stroke: #000000; stroke-width: 0.6"/>
      </g>
     </g>
    </g>
    <g id="xtick_36">
     <g id="line2d_71">
      <path d="M 197.300985 239.848 
L 197.300985 14.76 
" clip-path="url(#p4c2cd3dda4)" style="fill: none; stroke-dasharray: 1.85,0.8; stroke-dashoffset: 0; stroke: #b0b0b0; stroke-width: 0.5"/>
     </g>
     <g id="line2d_72">
      <g>
       <use xlink:href="#m79532e5739" x="197.300985" y="239.848" style="stroke: #000000; stroke-width: 0.6"/>
      </g>
     </g>
    </g>
    <g id="xtick_37">
     <g id="line2d_73">
      <path d="M 200.403415 239.848 
L 200.403415 14.76 
" clip-path="url(#p4c2cd3dda4)" style="fill: none; stroke-dasharray: 1.85,0.8; stroke-dashoffset: 0; stroke: #b0b0b0; stroke-width: 0.5"/>
     </g>
     <g id="line2d_74">
      <g>
       <use xlink:href="#m79532e5739" x="200.403415" y="239.848" style="stroke: #000000; stroke-width: 0.6"/>
      </g>
     </g>
    </g>
    <g id="xtick_38">
     <g id="line2d_75">
      <path d="M 203.026483 239.848 
L 203.026483 14.76 
" clip-path="url(#p4c2cd3dda4)" style="fill: none; stroke-dasharray: 1.85,0.8; stroke-dashoffset: 0; stroke: #b0b0b0; stroke-width: 0.5"/>
     </g>
     <g id="line2d_76">
      <g>
       <use xlink:href="#m79532e5739" x="203.026483" y="239.848" style="stroke: #000000; stroke-width: 0.6"/>
      </g>
     </g>
    </g>
    <g id="xtick_39">
     <g id="line2d_77">
      <path d="M 205.298687 239.848 
L 205.298687 14.76 
" clip-path="url(#p4c2cd3dda4)" style="fill: none; stroke-dasharray: 1.85,0.8; stroke-dashoffset: 0; stroke: #b0b0b0; stroke-width: 0.5"/>
     </g>
     <g id="line2d_78">
      <g>
       <use xlink:href="#m79532e5739" x="205.298687" y="239.848" style="stroke: #000000; stroke-width: 0.6"/>
      </g>
     </g>
    </g>
    <g id="xtick_40">
     <g id="line2d_79">
      <path d="M 207.302913 239.848 
L 207.302913 14.76 
" clip-path="url(#p4c2cd3dda4)" style="fill: none; stroke-dasharray: 1.85,0.8; stroke-dashoffset: 0; stroke: #b0b0b0; stroke-width: 0.5"/>
     </g>
     <g id="line2d_80">
      <g>
       <use xlink:href="#m79532e5739" x="207.302913" y="239.848" style="stroke: #000000; stroke-width: 0.6"/>
      </g>
     </g>
    </g>
    <g id="text_6">
     <!-- Diameter ($\mu$m) -->
     <g transform="translate(92.534396 268.126125) scale(0.1 -0.1)">
      <defs>
       <path id="DejaVuSans-44" d="M 1259 4147 
L 1259 519 
L 2022 519 
Q 2988 519 3436 956 
Q 3884 1394 3884 2338 
Q 3884 3275 3436 3711 
Q 2988 4147 2022 4147 
L 1259 4147 
z
M 628 4666 
L 1925 4666 
Q 3281 4666 3915 4102 
Q 4550 3538 4550 2338 
Q 4550 1131 3912 565 
Q 3275 0 1925 0 
L 628 0 
L 628 4666 
z
" transform="scale(0.015625)"/>
       <path id="DejaVuSans-69" d="M 603 3500 
L 1178 3500 
L 1178 0 
L 603 0 
L 603 3500 
z
M 603 4863 
L 1178 4863 
L 1178 4134 
L 603 4134 
L 603 4863 
z
" transform="scale(0.015625)"/>
       <path id="DejaVuSans-61" d="M 2194 1759 
Q 1497 1759 1228 1600 
Q 959 1441 959 1056 
Q 959 750 1161 570 
Q 1363 391 1709 391 
Q 2188 391 2477 730 
Q 2766 1069 2766 1631 
L 2766 1759 
L 2194 1759 
z
M 3341 1997 
L 3341 0 
L 2766 0 
L 2766 531 
Q 2569 213 2275 61 
Q 1981 -91 1556 -91 
Q 1019 -91 701 211 
Q 384 513 384 1019 
Q 384 1609 779 1909 
Q 1175 2209 1959 2209 
L 2766 2209 
L 2766 2266 
Q 2766 2663 2505 2880 
Q 2244 3097 1772 3097 
Q 1472 3097 1187 3025 
Q 903 2953 641 2809 
L 641 3341 
Q 956 3463 1253 3523 
Q 1550 3584 1831 3584 
Q 2591 3584 2966 3190 
Q 3341 2797 3341 1997 
z
" transform="scale(0.015625)"/>
       <path id="DejaVuSans-6d" d="M 3328 2828 
Q 3544 3216 3844 3400 
Q 4144 3584 4550 3584 
Q 5097 3584 5394 3201 
Q 5691 2819 5691 2113 
L 5691 0 
L 5113 0 
L 5113 2094 
Q 5113 2597 4934 2840 
Q 4756 3084 4391 3084 
Q 3944 3084 3684 2787 
Q 3425 2491 3425 1978 
L 3425 0 
L 2847 0 
L 2847 2094 
Q 2847 2600 2669 2842 
Q 2491 3084 2119 3084 
Q 1678 3084 1418 2786 
Q 1159 2488 1159 1978 
L 1159 0 
L 581 0 
L 581 3500 
L 1159 3500 
L 1159 2956 
Q 1356 3278 1631 3431 
Q 1906 3584 2284 3584 
Q 2666 3584 2933 3390 
Q 3200 3197 3328 2828 
z
" transform="scale(0.015625)"/>
       <path id="DejaVuSans-65" d="M 3597 1894 
L 3597 1613 
L 953 1613 
Q 991 1019 1311 708 
Q 1631 397 2203 397 
Q 2534 397 2845 478 
Q 3156 559 3463 722 
L 3463 178 
Q 3153 47 2828 -22 
Q 2503 -91 2169 -91 
Q 1331 -91 842 396 
Q 353 884 353 1716 
Q 353 2575 817 3079 
Q 1281 3584 2069 3584 
Q 2775 3584 3186 3129 
Q 3597 2675 3597 1894 
z
M 3022 2063 
Q 3016 2534 2758 2815 
Q 2500 3097 2075 3097 
Q 1594 3097 1305 2825 
Q 1016 2553 972 2059 
L 3022 2063 
z
" transform="scale(0.015625)"/>
       <path id="DejaVuSans-74" d="M 1172 4494 
L 1172 3500 
L 2356 3500 
L 2356 3053 
L 1172 3053 
L 1172 1153 
Q 1172 725 1289 603 
Q 1406 481 1766 481 
L 2356 481 
L 2356 0 
L 1766 0 
Q 1100 0 847 248 
Q 594 497 594 1153 
L 594 3053 
L 172 3053 
L 172 3500 
L 594 3500 
L 594 4494 
L 1172 4494 
z
" transform="scale(0.015625)"/>
       <path id="DejaVuSans-72" d="M 2631 2963 
Q 2534 3019 2420 3045 
Q 2306 3072 2169 3072 
Q 1681 3072 1420 2755 
Q 1159 2438 1159 1844 
L 1159 0 
L 581 0 
L 581 3500 
L 1159 3500 
L 1159 2956 
Q 1341 3275 1631 3429 
Q 1922 3584 2338 3584 
Q 2397 3584 2469 3576 
Q 2541 3569 2628 3553 
L 2631 2963 
z
" transform="scale(0.015625)"/>
       <path id="DejaVuSans-20" transform="scale(0.015625)"/>
       <path id="DejaVuSans-28" d="M 1984 4856 
Q 1566 4138 1362 3434 
Q 1159 2731 1159 2009 
Q 1159 1288 1364 580 
Q 1569 -128 1984 -844 
L 1484 -844 
Q 1016 -109 783 600 
Q 550 1309 550 2009 
Q 550 2706 781 3412 
Q 1013 4119 1484 4856 
L 1984 4856 
z
" transform="scale(0.015625)"/>
       <path id="DejaVuSans-Oblique-3bc" d="M -84 -1331 
L 856 3500 
L 1434 3500 
L 1009 1322 
Q 997 1256 987 1175 
Q 978 1094 978 1013 
Q 978 722 1161 565 
Q 1344 409 1684 409 
Q 2147 409 2431 671 
Q 2716 934 2816 1459 
L 3213 3500 
L 3788 3500 
L 3266 809 
Q 3253 750 3248 706 
Q 3244 663 3244 628 
Q 3244 531 3283 486 
Q 3322 441 3406 441 
Q 3438 441 3492 456 
Q 3547 472 3647 513 
L 3559 50 
Q 3422 -19 3297 -55 
Q 3172 -91 3053 -91 
Q 2847 -91 2730 40 
Q 2613 172 2613 403 
Q 2438 153 2195 31 
Q 1953 -91 1625 -91 
Q 1334 -91 1117 43 
Q 900 178 831 397 
L 494 -1331 
L -84 -1331 
z
" transform="scale(0.015625)"/>
       <path id="DejaVuSans-29" d="M 513 4856 
L 1013 4856 
Q 1481 4119 1714 3412 
Q 1947 2706 1947 2009 
Q 1947 1309 1714 600 
Q 1481 -109 1013 -844 
L 513 -844 
Q 928 -128 1133 580 
Q 1338 1288 1338 2009 
Q 1338 2731 1133 3434 
Q 928 4138 513 4856 
z
" transform="scale(0.015625)"/>
      </defs>
      <use xlink:href="#DejaVuSans-44" transform="translate(0 0.015625)"/>
      <use xlink:href="#DejaVuSans-69" transform="translate(77.001953 0.015625)"/>
      <use xlink:href="#DejaVuSans-61" transform="translate(104.785156 0.015625)"/>
      <use xlink:href="#DejaVuSans-6d" transform="translate(166.064453 0.015625)"/>
      <use xlink:href="#DejaVuSans-65" transform="translate(263.476562 0.015625)"/>
      <use xlink:href="#DejaVuSans-74" transform="translate(325 0.015625)"/>
      <use xlink:href="#DejaVuSans-65" transform="translate(364.208984 0.015625)"/>
      <use xlink:href="#DejaVuSans-72" transform="translate(425.732422 0.015625)"/>
      <use xlink:href="#DejaVuSans-20" transform="translate(466.845703 0.015625)"/>
      <use xlink:href="#DejaVuSans-28" transform="translate(498.632812 0.015625)"/>
      <use xlink:href="#DejaVuSans-Oblique-3bc" transform="translate(537.646484 0.015625)"/>
      <use xlink:href="#DejaVuSans-6d" transform="translate(601.269531 0.015625)"/>
      <use xlink:href="#DejaVuSans-29" transform="translate(698.681641 0.015625)"/>
     </g>
    </g>
   </g>
   <g id="matplotlib.axis_2">
    <g id="ytick_1">
     <g id="line2d_81">
      <path d="M 44.57 239.848 
L 214.298792 239.848 
" clip-path="url(#p4c2cd3dda4)" style="fill: none; stroke-dasharray: 1.85,0.8; stroke-dashoffset: 0; stroke: #b0b0b0; stroke-width: 0.5"/>
     </g>
     <g id="line2d_82">
      <defs>
       <path id="mab78101ed7" d="M 0 0 
L -3.5 0 
" style="stroke: #000000; stroke-width: 0.8"/>
      </defs>
      <g>
       <use xlink:href="#mab78101ed7" x="44.57" y="239.848" style="stroke: #000000; stroke-width: 0.8"/>
      </g>
     </g>
     <g id="text_7">
      <!-- 0 -->
      <g transform="translate(31.2075 243.647219) scale(0.1 -0.1)">
       <use xlink:href="#DejaVuSans-30"/>
      </g>
     </g>
    </g>
    <g id="ytick_2">
     <g id="line2d_83">
      <path d="M 44.57 194.8304 
L 214.298792 194.8304 
" clip-path="url(#p4c2cd3dda4)" style="fill: none; stroke-dasharray: 1.85,0.8; stroke-dashoffset: 0; stroke: #b0b0b0; stroke-width: 0.5"/>
     </g>
     <g id="line2d_84">
      <g>
       <use xlink:href="#mab78101ed7" x="44.57" y="194.8304" style="stroke: #000000; stroke-width: 0.8"/>
      </g>
     </g>
     <g id="text_8">
      <!-- 5 -->
      <g transform="translate(31.2075 198.629619) scale(0.1 -0.1)">
       <defs>
        <path id="DejaVuSans-35" d="M 691 4666 
L 3169 4666 
L 3169 4134 
L 1269 4134 
L 1269 2991 
Q 1406 3038 1543 3061 
Q 1681 3084 1819 3084 
Q 2600 3084 3056 2656 
Q 3513 2228 3513 1497 
Q 3513 744 3044 326 
Q 2575 -91 1722 -91 
Q 1428 -91 1123 -41 
Q 819 9 494 109 
L 494 744 
Q 775 591 1075 516 
Q 1375 441 1709 441 
Q 2250 441 2565 725 
Q 2881 1009 2881 1497 
Q 2881 1984 2565 2268 
Q 2250 2553 1709 2553 
Q 1456 2553 1204 2497 
Q 953 2441 691 2322 
L 691 4666 
z
" transform="scale(0.015625)"/>
       </defs>
       <use xlink:href="#DejaVuSans-35"/>
      </g>
     </g>
    </g>
    <g id="ytick_3">
     <g id="line2d_85">
      <path d="M 44.57 149.8128 
L 214.298792 149.8128 
" clip-path="url(#p4c2cd3dda4)" style="fill: none; stroke-dasharray: 1.85,0.8; stroke-dashoffset: 0; stroke: #b0b0b0; stroke-width: 0.5"/>
     </g>
     <g id="line2d_86">
      <g>
       <use xlink:href="#mab78101ed7" x="44.57" y="149.8128" style="stroke: #000000; stroke-width: 0.8"/>
      </g>
     </g>
     <g id="text_9">
      <!-- 10 -->
      <g transform="translate(24.845 153.612019) scale(0.1 -0.1)">
       <use xlink:href="#DejaVuSans-31"/>
       <use xlink:href="#DejaVuSans-30" transform="translate(63.623047 0)"/>
      </g>
     </g>
    </g>
    <g id="ytick_4">
     <g id="line2d_87">
      <path d="M 44.57 104.7952 
L 214.298792 104.7952 
" clip-path="url(#p4c2cd3dda4)" style="fill: none; stroke-dasharray: 1.85,0.8; stroke-dashoffset: 0; stroke: #b0b0b0; stroke-width: 0.5"/>
     </g>
     <g id="line2d_88">
      <g>
       <use xlink:href="#mab78101ed7" x="44.57" y="104.7952" style="stroke: #000000; stroke-width: 0.8"/>
      </g>
     </g>
     <g id="text_10">
      <!-- 15 -->
      <g transform="translate(24.845 108.594419) scale(0.1 -0.1)">
       <use xlink:href="#DejaVuSans-31"/>
       <use xlink:href="#DejaVuSans-35" transform="translate(63.623047 0)"/>
      </g>
     </g>
    </g>
    <g id="ytick_5">
     <g id="line2d_89">
      <path d="M 44.57 59.7776 
L 214.298792 59.7776 
" clip-path="url(#p4c2cd3dda4)" style="fill: none; stroke-dasharray: 1.85,0.8; stroke-dashoffset: 0; stroke: #b0b0b0; stroke-width: 0.5"/>
     </g>
     <g id="line2d_90">
      <g>
       <use xlink:href="#mab78101ed7" x="44.57" y="59.7776" style="stroke: #000000; stroke-width: 0.8"/>
      </g>
     </g>
     <g id="text_11">
      <!-- 20 -->
      <g transform="translate(24.845 63.576819) scale(0.1 -0.1)">
       <use xlink:href="#DejaVuSans-32"/>
       <use xlink:href="#DejaVuSans-30" transform="translate(63.623047 0)"/>
      </g>
     </g>
    </g>
    <g id="ytick_6">
     <g id="line2d_91">
      <path d="M 44.57 14.76 
L 214.298792 14.76 
" clip-path="url(#p4c2cd3dda4)" style="fill: none; stroke-dasharray: 1.85,0.8; stroke-dashoffset: 0; stroke: #b0b0b0; stroke-width: 0.5"/>
     </g>
     <g id="line2d_92">
      <g>
       <use xlink:href="#mab78101ed7" x="44.57" y="14.76" style="stroke: #000000; stroke-width: 0.8"/>
      </g>
     </g>
     <g id="text_12">
      <!-- 25 -->
      <g transform="translate(24.845 18.559219) scale(0.1 -0.1)">
       <use xlink:href="#DejaVuSans-32"/>
       <use xlink:href="#DejaVuSans-35" transform="translate(63.623047 0)"/>
      </g>
     </g>
    </g>
    <g id="text_13">
     <!-- Number distribution (%) -->
     <g transform="translate(18.765313 187.713375) rotate(-90) scale(0.1 -0.1)">
      <defs>
       <path id="DejaVuSans-4e" d="M 628 4666 
L 1478 4666 
L 3547 763 
L 3547 4666 
L 4159 4666 
L 4159 0 
L 3309 0 
L 1241 3903 
L 1241 0 
L 628 0 
L 628 4666 
z
" transform="scale(0.015625)"/>
       <path id="DejaVuSans-75" d="M 544 1381 
L 544 3500 
L 1119 3500 
L 1119 1403 
Q 1119 906 1312 657 
Q 1506 409 1894 409 
Q 2359 409 2629 706 
Q 2900 1003 2900 1516 
L 2900 3500 
L 3475 3500 
L 3475 0 
L 2900 0 
L 2900 538 
Q 2691 219 2414 64 
Q 2138 -91 1772 -91 
Q 1169 -91 856 284 
Q 544 659 544 1381 
z
M 1991 3584 
L 1991 3584 
z
" transform="scale(0.015625)"/>
       <path id="DejaVuSans-62" d="M 3116 1747 
Q 3116 2381 2855 2742 
Q 2594 3103 2138 3103 
Q 1681 3103 1420 2742 
Q 1159 2381 1159 1747 
Q 1159 1113 1420 752 
Q 1681 391 2138 391 
Q 2594 391 2855 752 
Q 3116 1113 3116 1747 
z
M 1159 2969 
Q 1341 3281 1617 3432 
Q 1894 3584 2278 3584 
Q 2916 3584 3314 3078 
Q 3713 2572 3713 1747 
Q 3713 922 3314 415 
Q 2916 -91 2278 -91 
Q 1894 -91 1617 61 
Q 1341 213 1159 525 
L 1159 0 
L 581 0 
L 581 4863 
L 1159 4863 
L 1159 2969 
z
" transform="scale(0.015625)"/>
       <path id="DejaVuSans-64" d="M 2906 2969 
L 2906 4863 
L 3481 4863 
L 3481 0 
L 2906 0 
L 2906 525 
Q 2725 213 2448 61 
Q 2172 -91 1784 -91 
Q 1150 -91 751 415 
Q 353 922 353 1747 
Q 353 2572 751 3078 
Q 1150 3584 1784 3584 
Q 2172 3584 2448 3432 
Q 2725 3281 2906 2969 
z
M 947 1747 
Q 947 1113 1208 752 
Q 1469 391 1925 391 
Q 2381 391 2643 752 
Q 2906 1113 2906 1747 
Q 2906 2381 2643 2742 
Q 2381 3103 1925 3103 
Q 1469 3103 1208 2742 
Q 947 2381 947 1747 
z
" transform="scale(0.015625)"/>
       <path id="DejaVuSans-73" d="M 2834 3397 
L 2834 2853 
Q 2591 2978 2328 3040 
Q 2066 3103 1784 3103 
Q 1356 3103 1142 2972 
Q 928 2841 928 2578 
Q 928 2378 1081 2264 
Q 1234 2150 1697 2047 
L 1894 2003 
Q 2506 1872 2764 1633 
Q 3022 1394 3022 966 
Q 3022 478 2636 193 
Q 2250 -91 1575 -91 
Q 1294 -91 989 -36 
Q 684 19 347 128 
L 347 722 
Q 666 556 975 473 
Q 1284 391 1588 391 
Q 1994 391 2212 530 
Q 2431 669 2431 922 
Q 2431 1156 2273 1281 
Q 2116 1406 1581 1522 
L 1381 1569 
Q 847 1681 609 1914 
Q 372 2147 372 2553 
Q 372 3047 722 3315 
Q 1072 3584 1716 3584 
Q 2034 3584 2315 3537 
Q 2597 3491 2834 3397 
z
" transform="scale(0.015625)"/>
       <path id="DejaVuSans-6f" d="M 1959 3097 
Q 1497 3097 1228 2736 
Q 959 2375 959 1747 
Q 959 1119 1226 758 
Q 1494 397 1959 397 
Q 2419 397 2687 759 
Q 2956 1122 2956 1747 
Q 2956 2369 2687 2733 
Q 2419 3097 1959 3097 
z
M 1959 3584 
Q 2709 3584 3137 3096 
Q 3566 2609 3566 1747 
Q 3566 888 3137 398 
Q 2709 -91 1959 -91 
Q 1206 -91 779 398 
Q 353 888 353 1747 
Q 353 2609 779 3096 
Q 1206 3584 1959 3584 
z
" transform="scale(0.015625)"/>
       <path id="DejaVuSans-6e" d="M 3513 2113 
L 3513 0 
L 2938 0 
L 2938 2094 
Q 2938 2591 2744 2837 
Q 2550 3084 2163 3084 
Q 1697 3084 1428 2787 
Q 1159 2491 1159 1978 
L 1159 0 
L 581 0 
L 581 3500 
L 1159 3500 
L 1159 2956 
Q 1366 3272 1645 3428 
Q 1925 3584 2291 3584 
Q 2894 3584 3203 3211 
Q 3513 2838 3513 2113 
z
" transform="scale(0.015625)"/>
       <path id="DejaVuSans-25" d="M 4653 2053 
Q 4381 2053 4226 1822 
Q 4072 1591 4072 1178 
Q 4072 772 4226 539 
Q 4381 306 4653 306 
Q 4919 306 5073 539 
Q 5228 772 5228 1178 
Q 5228 1588 5073 1820 
Q 4919 2053 4653 2053 
z
M 4653 2450 
Q 5147 2450 5437 2106 
Q 5728 1763 5728 1178 
Q 5728 594 5436 251 
Q 5144 -91 4653 -91 
Q 4153 -91 3862 251 
Q 3572 594 3572 1178 
Q 3572 1766 3864 2108 
Q 4156 2450 4653 2450 
z
M 1428 4353 
Q 1159 4353 1004 4120 
Q 850 3888 850 3481 
Q 850 3069 1003 2837 
Q 1156 2606 1428 2606 
Q 1700 2606 1854 2837 
Q 2009 3069 2009 3481 
Q 2009 3884 1853 4118 
Q 1697 4353 1428 4353 
z
M 4250 4750 
L 4750 4750 
L 1831 -91 
L 1331 -91 
L 4250 4750 
z
M 1428 4750 
Q 1922 4750 2215 4408 
Q 2509 4066 2509 3481 
Q 2509 2891 2217 2550 
Q 1925 2209 1428 2209 
Q 931 2209 642 2551 
Q 353 2894 353 3481 
Q 353 4063 643 4406 
Q 934 4750 1428 4750 
z
" transform="scale(0.015625)"/>
      </defs>
      <use xlink:href="#DejaVuSans-4e"/>
      <use xlink:href="#DejaVuSans-75" transform="translate(74.804688 0)"/>
      <use xlink:href="#DejaVuSans-6d" transform="translate(138.183594 0)"/>
      <use xlink:href="#DejaVuSans-62" transform="translate(235.595703 0)"/>
      <use xlink:href="#DejaVuSans-65" transform="translate(299.072266 0)"/>
      <use xlink:href="#DejaVuSans-72" transform="translate(360.595703 0)"/>
      <use xlink:href="#DejaVuSans-20" transform="translate(401.708984 0)"/>
      <use xlink:href="#DejaVuSans-64" transform="translate(433.496094 0)"/>
      <use xlink:href="#DejaVuSans-69" transform="translate(496.972656 0)"/>
      <use xlink:href="#DejaVuSans-73" transform="translate(524.755859 0)"/>
      <use xlink:href="#DejaVuSans-74" transform="translate(576.855469 0)"/>
      <use xlink:href="#DejaVuSans-72" transform="translate(616.064453 0)"/>
      <use xlink:href="#DejaVuSans-69" transform="translate(657.177734 0)"/>
      <use xlink:href="#DejaVuSans-62" transform="translate(684.960938 0)"/>
      <use xlink:href="#DejaVuSans-75" transform="translate(748.4375 0)"/>
      <use xlink:href="#DejaVuSans-74" transform="translate(811.816406 0)"/>
      <use xlink:href="#DejaVuSans-69" transform="translate(851.025391 0)"/>
      <use xlink:href="#DejaVuSans-6f" transform="translate(878.808594 0)"/>
      <use xlink:href="#DejaVuSans-6e" transform="translate(939.990234 0)"/>
      <use xlink:href="#DejaVuSans-20" transform="translate(1003.369141 0)"/>
      <use xlink:href="#DejaVuSans-28" transform="translate(1035.15625 0)"/>
      <use xlink:href="#DejaVuSans-25" transform="translate(1074.169922 0)"/>
      <use xlink:href="#DejaVuSans-29" transform="translate(1169.189453 0)"/>
     </g>
    </g>
   </g>
   <g id="line2d_93">
    <path d="M 52.284945 238.940387 
L 55.11442 238.940387 
L 55.11442 239.848 
L 57.69606 239.848 
L 57.69606 239.848 
L 60.287991 239.848 
L 60.287991 239.848 
L 62.907242 239.848 
L 62.907242 239.848 
L 65.513943 239.848 
L 65.513943 239.848 
L 68.131395 239.848 
L 68.131395 239.848 
L 70.749649 239.848 
L 70.749649 239.848 
L 73.356199 239.848 
L 73.356199 238.940387 
L 75.970412 238.940387 
L 75.970412 239.848 
L 78.585886 239.848 
L 78.585886 239.848 
L 81.199837 239.848 
L 81.199837 238.940387 
L 83.817321 238.940387 
L 83.817321 239.848 
L 86.433685 239.848 
L 86.433685 239.848 
L 89.044433 239.848 
L 89.044433 238.940387 
L 91.653411 238.940387 
L 91.653411 239.848 
L 94.263183 239.848 
L 94.263183 238.032774 
L 96.874328 238.032774 
L 96.874328 239.848 
L 99.488059 239.848 
L 99.488059 239.848 
L 102.100068 239.848 
L 102.100068 238.032774 
L 104.711034 238.032774 
L 104.711034 234.402323 
L 107.324564 234.402323 
L 107.324564 231.679484 
L 109.938248 231.679484 
L 109.938248 219.880516 
L 112.549967 219.880516 
L 112.549967 209.896774 
L 115.161354 209.896774 
L 115.161354 168.146581 
L 117.773644 168.146581 
L 117.773644 153.624774 
L 120.385905 153.624774 
L 120.385905 161.79329 
L 122.997359 161.79329 
L 122.997359 146.363871 
L 125.608741 146.363871 
L 125.608741 110.059355 
L 128.220882 110.059355 
L 128.220882 172.684645 
L 130.833098 172.684645 
L 130.833098 157.255226 
L 133.445288 157.255226 
L 133.445288 182.668387 
L 136.057573 182.668387 
L 136.057573 198.097806 
L 138.669704 198.097806 
L 138.669704 213.527226 
L 141.281676 213.527226 
L 141.281676 220.788129 
L 143.89359 220.788129 
L 143.89359 221.695742 
L 146.505774 221.695742 
L 146.505774 223.510968 
L 149.118039 223.510968 
L 149.118039 226.233806 
L 151.730108 226.233806 
L 151.730108 228.049032 
L 154.342095 228.049032 
L 154.342095 230.771871 
L 156.954112 230.771871 
L 156.954112 238.032774 
L 159.56619 238.032774 
L 159.56619 238.940387 
L 162.178269 238.940387 
L 162.178269 238.940387 
L 164.79035 238.940387 
L 164.79035 238.940387 
L 167.402458 238.940387 
L 167.402458 238.940387 
L 170.014562 238.940387 
L 170.014562 238.032774 
L 172.626666 238.032774 
L 172.626666 239.848 
L 175.238766 239.848 
L 175.238766 239.848 
L 177.850843 239.848 
L 177.850843 239.848 
L 180.462917 239.848 
L 180.462917 239.848 
L 183.075009 239.848 
L 183.075009 239.848 
L 185.687102 239.848 
L 185.687102 239.848 
L 188.299201 239.848 
L 188.299201 239.848 
L 190.911301 239.848 
L 190.911301 239.848 
L 193.523389 239.848 
L 193.523389 239.848 
L 196.135481 239.848 
L 196.135481 239.848 
L 198.747577 239.848 
L 198.747577 239.848 
L 201.359668 239.848 
L 201.359668 239.848 
L 203.971757 239.848 
L 203.971757 239.848 
L 206.583847 239.848 
L 206.583847 239.848 
" clip-path="url(#p4c2cd3dda4)" style="fill: none; stroke-dasharray: 5.55,2.4; stroke-dashoffset: 0; stroke: #1f77b4; stroke-width: 1.5"/>
   </g>
   <g id="line2d_94">
    <path d="M 52.284945 239.848 
L 55.11442 239.848 
L 55.11442 239.848 
L 57.69606 239.848 
L 57.69606 239.848 
L 60.287991 239.848 
L 60.287991 239.848 
L 62.907242 239.848 
L 62.907242 239.848 
L 65.513943 239.848 
L 65.513943 239.848 
L 68.131395 239.848 
L 68.131395 239.848 
L 70.749649 239.848 
L 70.749649 239.848 
L 73.356199 239.848 
L 73.356199 239.848 
L 75.970412 239.848 
L 75.970412 239.848 
L 78.585886 239.848 
L 78.585886 239.848 
L 81.199837 239.848 
L 81.199837 239.848 
L 83.817321 239.848 
L 83.817321 239.848 
L 86.433685 239.848 
L 86.433685 223.363863 
L 89.044433 223.363863 
L 89.044433 216.747919 
L 91.653411 216.747919 
L 91.653411 218.321242 
L 94.263183 218.321242 
L 94.263183 223.352623 
L 96.874328 223.352623 
L 96.874328 229.008866 
L 99.488059 229.008866 
L 99.488059 233.766736 
L 102.100068 233.766736 
L 102.100068 237.037266 
L 104.711034 237.037266 
L 104.711034 238.868651 
L 107.324564 238.868651 
L 107.324564 239.635192 
L 109.938248 239.635192 
L 109.938248 239.603795 
L 112.549967 239.603795 
L 112.549967 224.912824 
L 115.161354 224.912824 
L 115.161354 188.422297 
L 117.773644 188.422297 
L 117.773644 148.444263 
L 120.385905 148.444263 
L 120.385905 126.375021 
L 122.997359 126.375021 
L 122.997359 122.0426 
L 125.608741 122.0426 
L 125.608741 131.470661 
L 128.220882 131.470661 
L 128.220882 149.402703 
L 130.833098 149.402703 
L 130.833098 170.561534 
L 133.445288 170.561534 
L 133.445288 190.979351 
L 136.057573 190.979351 
L 136.057573 208.093185 
L 138.669704 208.093185 
L 138.669704 220.761939 
L 141.281676 220.761939 
L 141.281676 229.023454 
L 143.89359 229.023454 
L 143.89359 233.665446 
L 146.505774 233.665446 
L 146.505774 235.789145 
L 149.118039 235.789145 
L 149.118039 236.462166 
L 151.730108 236.462166 
L 151.730108 236.513236 
L 154.342095 236.513236 
L 154.342095 236.482919 
L 156.954112 236.482919 
L 156.954112 236.643855 
L 159.56619 236.643855 
L 159.56619 237.055175 
L 162.178269 237.055175 
L 162.178269 237.642953 
L 164.79035 237.642953 
L 164.79035 238.278508 
L 167.402458 238.278508 
L 167.402458 238.843747 
L 170.014562 238.843747 
L 170.014562 239.266702 
L 172.626666 239.266702 
L 172.626666 239.528548 
L 175.238766 239.528548 
L 175.238766 239.652231 
L 177.850843 239.652231 
L 177.850843 239.68148 
L 180.462917 239.68148 
L 180.462917 239.661384 
L 183.075009 239.661384 
L 183.075009 239.628895 
L 185.687102 239.628895 
L 185.687102 239.608944 
L 188.299201 239.608944 
L 188.299201 239.612655 
L 190.911301 239.612655 
L 190.911301 239.639315 
L 193.523389 239.639315 
L 193.523389 239.680968 
L 196.135481 239.680968 
L 196.135481 239.727432 
L 198.747577 239.727432 
L 198.747577 239.770111 
L 201.359668 239.770111 
L 201.359668 239.803875 
L 203.971757 239.803875 
L 203.971757 239.827189 
L 206.583847 239.827189 
L 206.583847 239.841139 
" clip-path="url(#p4c2cd3dda4)" style="fill: none; stroke: #ff7f0e; stroke-width: 1.5; stroke-linecap: square"/>
   </g>
   <g id="patch_3">
    <path d="M 44.57 239.848 
L 44.57 14.76 
" style="fill: none; stroke: #000000; stroke-width: 0.8; stroke-linejoin: miter; stroke-linecap: square"/>
   </g>
   <g id="patch_4">
    <path d="M 214.298792 239.848 
L 214.298792 14.76 
" style="fill: none; stroke: #000000; stroke-width: 0.8; stroke-linejoin: miter; stroke-linecap: square"/>
   </g>
   <g id="patch_5">
    <path d="M 44.57 239.848 
L 214.298792 239.848 
" style="fill: none; stroke: #000000; stroke-width: 0.8; stroke-linejoin: miter; stroke-linecap: square"/>
   </g>
   <g id="patch_6">
    <path d="M 44.57 14.76 
L 214.298792 14.76 
" style="fill: none; stroke: #000000; stroke-width: 0.8; stroke-linejoin: miter; stroke-linecap: square"/>
   </g>
   <g id="text_14">
    <!-- a. -->
    <g transform="translate(52.37024 43.404852) scale(0.14 -0.14)">
     <defs>
      <path id="DejaVuSans-Bold-61" d="M 2106 1575 
Q 1756 1575 1579 1456 
Q 1403 1338 1403 1106 
Q 1403 894 1545 773 
Q 1688 653 1941 653 
Q 2256 653 2472 879 
Q 2688 1106 2688 1447 
L 2688 1575 
L 2106 1575 
z
M 3816 1997 
L 3816 0 
L 2688 0 
L 2688 519 
Q 2463 200 2181 54 
Q 1900 -91 1497 -91 
Q 953 -91 614 226 
Q 275 544 275 1050 
Q 275 1666 698 1953 
Q 1122 2241 2028 2241 
L 2688 2241 
L 2688 2328 
Q 2688 2594 2478 2717 
Q 2269 2841 1825 2841 
Q 1466 2841 1156 2769 
Q 847 2697 581 2553 
L 581 3406 
Q 941 3494 1303 3539 
Q 1666 3584 2028 3584 
Q 2975 3584 3395 3211 
Q 3816 2838 3816 1997 
z
" transform="scale(0.015625)"/>
      <path id="DejaVuSans-Bold-2e" d="M 653 1209 
L 1778 1209 
L 1778 0 
L 653 0 
L 653 1209 
z
" transform="scale(0.015625)"/>
     </defs>
     <use xlink:href="#DejaVuSans-Bold-61"/>
     <use xlink:href="#DejaVuSans-Bold-2e" transform="translate(67.480469 0)"/>
    </g>
   </g>
   <g id="text_15">
    <!-- a. -->
    <g transform="translate(52.37024 43.404852) scale(0.14 -0.14)">
     <use xlink:href="#DejaVuSans-Bold-61"/>
     <use xlink:href="#DejaVuSans-Bold-2e" transform="translate(67.480469 0)"/>
    </g>
   </g>
  </g>
  <g id="axes_2">
   <g id="patch_7">
    <path d="M 247.075 239.848 
L 416.803792 239.848 
L 416.803792 14.76 
L 247.075 14.76 
z
" style="fill: #ffffff"/>
   </g>
   <g id="matplotlib.axis_3">
    <g id="xtick_41">
     <g id="line2d_95">
      <path d="M 254.87524 239.848 
L 254.87524 14.76 
" clip-path="url(#pf3da0b866e)" style="fill: none; stroke-dasharray: 1.85,0.8; stroke-dashoffset: 0; stroke: #b0b0b0; stroke-width: 0.5"/>
     </g>
     <g id="line2d_96">
      <g>
       <use xlink:href="#m149273a808" x="254.87524" y="239.848" style="stroke: #000000; stroke-width: 0.8"/>
      </g>
     </g>
     <g id="text_16">
      <!-- $\mathdefault{10^{-1}}$ -->
      <g transform="translate(243.12524 254.446438) scale(0.1 -0.1)">
       <use xlink:href="#DejaVuSans-31" transform="translate(0 0.684375)"/>
       <use xlink:href="#DejaVuSans-30" transform="translate(63.623047 0.684375)"/>
       <use xlink:href="#DejaVuSans-2212" transform="translate(128.203125 38.965625) scale(0.7)"/>
       <use xlink:href="#DejaVuSans-31" transform="translate(186.855469 38.965625) scale(0.7)"/>
      </g>
     </g>
    </g>
    <g id="xtick_42">
     <g id="line2d_97">
      <path d="M 294.056619 239.848 
L 294.056619 14.76 
" clip-path="url(#pf3da0b866e)" style="fill: none; stroke-dasharray: 1.85,0.8; stroke-dashoffset: 0; stroke: #b0b0b0; stroke-width: 0.5"/>
     </g>
     <g id="line2d_98">
      <g>
       <use xlink:href="#m149273a808" x="294.056619" y="239.848" style="stroke: #000000; stroke-width: 0.8"/>
      </g>
     </g>
     <g id="text_17">
      <!-- $\mathdefault{10^{0}}$ -->
      <g transform="translate(285.256619 254.446438) scale(0.1 -0.1)">
       <use xlink:href="#DejaVuSans-31" transform="translate(0 0.765625)"/>
       <use xlink:href="#DejaVuSans-30" transform="translate(63.623047 0.765625)"/>
       <use xlink:href="#DejaVuSans-30" transform="translate(128.203125 39.046875) scale(0.7)"/>
      </g>
     </g>
    </g>
    <g id="xtick_43">
     <g id="line2d_99">
      <path d="M 333.237997 239.848 
L 333.237997 14.76 
" clip-path="url(#pf3da0b866e)" style="fill: none; stroke-dasharray: 1.85,0.8; stroke-dashoffset: 0; stroke: #b0b0b0; stroke-width: 0.5"/>
     </g>
     <g id="line2d_100">
      <g>
       <use xlink:href="#m149273a808" x="333.237997" y="239.848" style="stroke: #000000; stroke-width: 0.8"/>
      </g>
     </g>
     <g id="text_18">
      <!-- $\mathdefault{10^{1}}$ -->
      <g transform="translate(324.437997 254.446438) scale(0.1 -0.1)">
       <use xlink:href="#DejaVuSans-31" transform="translate(0 0.684375)"/>
       <use xlink:href="#DejaVuSans-30" transform="translate(63.623047 0.684375)"/>
       <use xlink:href="#DejaVuSans-31" transform="translate(128.203125 38.965625) scale(0.7)"/>
      </g>
     </g>
    </g>
    <g id="xtick_44">
     <g id="line2d_101">
      <path d="M 372.419376 239.848 
L 372.419376 14.76 
" clip-path="url(#pf3da0b866e)" style="fill: none; stroke-dasharray: 1.85,0.8; stroke-dashoffset: 0; stroke: #b0b0b0; stroke-width: 0.5"/>
     </g>
     <g id="line2d_102">
      <g>
       <use xlink:href="#m149273a808" x="372.419376" y="239.848" style="stroke: #000000; stroke-width: 0.8"/>
      </g>
     </g>
     <g id="text_19">
      <!-- $\mathdefault{10^{2}}$ -->
      <g transform="translate(363.619376 254.446438) scale(0.1 -0.1)">
       <use xlink:href="#DejaVuSans-31" transform="translate(0 0.765625)"/>
       <use xlink:href="#DejaVuSans-30" transform="translate(63.623047 0.765625)"/>
       <use xlink:href="#DejaVuSans-32" transform="translate(128.203125 39.046875) scale(0.7)"/>
      </g>
     </g>
    </g>
    <g id="xtick_45">
     <g id="line2d_103">
      <path d="M 411.600755 239.848 
L 411.600755 14.76 
" clip-path="url(#pf3da0b866e)" style="fill: none; stroke-dasharray: 1.85,0.8; stroke-dashoffset: 0; stroke: #b0b0b0; stroke-width: 0.5"/>
     </g>
     <g id="line2d_104">
      <g>
       <use xlink:href="#m149273a808" x="411.600755" y="239.848" style="stroke: #000000; stroke-width: 0.8"/>
      </g>
     </g>
     <g id="text_20">
      <!-- $\mathdefault{10^{3}}$ -->
      <g transform="translate(402.800755 254.446438) scale(0.1 -0.1)">
       <use xlink:href="#DejaVuSans-31" transform="translate(0 0.765625)"/>
       <use xlink:href="#DejaVuSans-30" transform="translate(63.623047 0.765625)"/>
       <use xlink:href="#DejaVuSans-33" transform="translate(128.203125 39.046875) scale(0.7)"/>
      </g>
     </g>
    </g>
    <g id="xtick_46">
     <g id="line2d_105">
      <path d="M 248.805967 239.848 
L 248.805967 14.76 
" clip-path="url(#pf3da0b866e)" style="fill: none; stroke-dasharray: 1.85,0.8; stroke-dashoffset: 0; stroke: #b0b0b0; stroke-width: 0.5"/>
     </g>
     <g id="line2d_106">
      <g>
       <use xlink:href="#m79532e5739" x="248.805967" y="239.848" style="stroke: #000000; stroke-width: 0.6"/>
      </g>
     </g>
    </g>
    <g id="xtick_47">
     <g id="line2d_107">
      <path d="M 251.078172 239.848 
L 251.078172 14.76 
" clip-path="url(#pf3da0b866e)" style="fill: none; stroke-dasharray: 1.85,0.8; stroke-dashoffset: 0; stroke: #b0b0b0; stroke-width: 0.5"/>
     </g>
     <g id="line2d_108">
      <g>
       <use xlink:href="#m79532e5739" x="251.078172" y="239.848" style="stroke: #000000; stroke-width: 0.6"/>
      </g>
     </g>
    </g>
    <g id="xtick_48">
     <g id="line2d_109">
      <path d="M 253.082398 239.848 
L 253.082398 14.76 
" clip-path="url(#pf3da0b866e)" style="fill: none; stroke-dasharray: 1.85,0.8; stroke-dashoffset: 0; stroke: #b0b0b0; stroke-width: 0.5"/>
     </g>
     <g id="line2d_110">
      <g>
       <use xlink:href="#m79532e5739" x="253.082398" y="239.848" style="stroke: #000000; stroke-width: 0.6"/>
      </g>
     </g>
    </g>
    <g id="xtick_49">
     <g id="line2d_111">
      <path d="M 266.67001 239.848 
L 266.67001 14.76 
" clip-path="url(#pf3da0b866e)" style="fill: none; stroke-dasharray: 1.85,0.8; stroke-dashoffset: 0; stroke: #b0b0b0; stroke-width: 0.5"/>
     </g>
     <g id="line2d_112">
      <g>
       <use xlink:href="#m79532e5739" x="266.67001" y="239.848" style="stroke: #000000; stroke-width: 0.6"/>
      </g>
     </g>
    </g>
    <g id="xtick_50">
     <g id="line2d_113">
      <path d="M 273.569508 239.848 
L 273.569508 14.76 
" clip-path="url(#pf3da0b866e)" style="fill: none; stroke-dasharray: 1.85,0.8; stroke-dashoffset: 0; stroke: #b0b0b0; stroke-width: 0.5"/>
     </g>
     <g id="line2d_114">
      <g>
       <use xlink:href="#m79532e5739" x="273.569508" y="239.848" style="stroke: #000000; stroke-width: 0.6"/>
      </g>
     </g>
    </g>
    <g id="xtick_51">
     <g id="line2d_115">
      <path d="M 278.46478 239.848 
L 278.46478 14.76 
" clip-path="url(#pf3da0b866e)" style="fill: none; stroke-dasharray: 1.85,0.8; stroke-dashoffset: 0; stroke: #b0b0b0; stroke-width: 0.5"/>
     </g>
     <g id="line2d_116">
      <g>
       <use xlink:href="#m79532e5739" x="278.46478" y="239.848" style="stroke: #000000; stroke-width: 0.6"/>
      </g>
     </g>
    </g>
    <g id="xtick_52">
     <g id="line2d_117">
      <path d="M 282.261848 239.848 
L 282.261848 14.76 
" clip-path="url(#pf3da0b866e)" style="fill: none; stroke-dasharray: 1.85,0.8; stroke-dashoffset: 0; stroke: #b0b0b0; stroke-width: 0.5"/>
     </g>
     <g id="line2d_118">
      <g>
       <use xlink:href="#m79532e5739" x="282.261848" y="239.848" style="stroke: #000000; stroke-width: 0.6"/>
      </g>
     </g>
    </g>
    <g id="xtick_53">
     <g id="line2d_119">
      <path d="M 285.364279 239.848 
L 285.364279 14.76 
" clip-path="url(#pf3da0b866e)" style="fill: none; stroke-dasharray: 1.85,0.8; stroke-dashoffset: 0; stroke: #b0b0b0; stroke-width: 0.5"/>
     </g>
     <g id="line2d_120">
      <g>
       <use xlink:href="#m79532e5739" x="285.364279" y="239.848" style="stroke: #000000; stroke-width: 0.6"/>
      </g>
     </g>
    </g>
    <g id="xtick_54">
     <g id="line2d_121">
      <path d="M 287.987346 239.848 
L 287.987346 14.76 
" clip-path="url(#pf3da0b866e)" style="fill: none; stroke-dasharray: 1.85,0.8; stroke-dashoffset: 0; stroke: #b0b0b0; stroke-width: 0.5"/>
     </g>
     <g id="line2d_122">
      <g>
       <use xlink:href="#m79532e5739" x="287.987346" y="239.848" style="stroke: #000000; stroke-width: 0.6"/>
      </g>
     </g>
    </g>
    <g id="xtick_55">
     <g id="line2d_123">
      <path d="M 290.259551 239.848 
L 290.259551 14.76 
" clip-path="url(#pf3da0b866e)" style="fill: none; stroke-dasharray: 1.85,0.8; stroke-dashoffset: 0; stroke: #b0b0b0; stroke-width: 0.5"/>
     </g>
     <g id="line2d_124">
      <g>
       <use xlink:href="#m79532e5739" x="290.259551" y="239.848" style="stroke: #000000; stroke-width: 0.6"/>
      </g>
     </g>
    </g>
    <g id="xtick_56">
     <g id="line2d_125">
      <path d="M 292.263777 239.848 
L 292.263777 14.76 
" clip-path="url(#pf3da0b866e)" style="fill: none; stroke-dasharray: 1.85,0.8; stroke-dashoffset: 0; stroke: #b0b0b0; stroke-width: 0.5"/>
     </g>
     <g id="line2d_126">
      <g>
       <use xlink:href="#m79532e5739" x="292.263777" y="239.848" style="stroke: #000000; stroke-width: 0.6"/>
      </g>
     </g>
    </g>
    <g id="xtick_57">
     <g id="line2d_127">
      <path d="M 305.851389 239.848 
L 305.851389 14.76 
" clip-path="url(#pf3da0b866e)" style="fill: none; stroke-dasharray: 1.85,0.8; stroke-dashoffset: 0; stroke: #b0b0b0; stroke-width: 0.5"/>
     </g>
     <g id="line2d_128">
      <g>
       <use xlink:href="#m79532e5739" x="305.851389" y="239.848" style="stroke: #000000; stroke-width: 0.6"/>
      </g>
     </g>
    </g>
    <g id="xtick_58">
     <g id="line2d_129">
      <path d="M 312.750887 239.848 
L 312.750887 14.76 
" clip-path="url(#pf3da0b866e)" style="fill: none; stroke-dasharray: 1.85,0.8; stroke-dashoffset: 0; stroke: #b0b0b0; stroke-width: 0.5"/>
     </g>
     <g id="line2d_130">
      <g>
       <use xlink:href="#m79532e5739" x="312.750887" y="239.848" style="stroke: #000000; stroke-width: 0.6"/>
      </g>
     </g>
    </g>
    <g id="xtick_59">
     <g id="line2d_131">
      <path d="M 317.646159 239.848 
L 317.646159 14.76 
" clip-path="url(#pf3da0b866e)" style="fill: none; stroke-dasharray: 1.85,0.8; stroke-dashoffset: 0; stroke: #b0b0b0; stroke-width: 0.5"/>
     </g>
     <g id="line2d_132">
      <g>
       <use xlink:href="#m79532e5739" x="317.646159" y="239.848" style="stroke: #000000; stroke-width: 0.6"/>
      </g>
     </g>
    </g>
    <g id="xtick_60">
     <g id="line2d_133">
      <path d="M 321.443227 239.848 
L 321.443227 14.76 
" clip-path="url(#pf3da0b866e)" style="fill: none; stroke-dasharray: 1.85,0.8; stroke-dashoffset: 0; stroke: #b0b0b0; stroke-width: 0.5"/>
     </g>
     <g id="line2d_134">
      <g>
       <use xlink:href="#m79532e5739" x="321.443227" y="239.848" style="stroke: #000000; stroke-width: 0.6"/>
      </g>
     </g>
    </g>
    <g id="xtick_61">
     <g id="line2d_135">
      <path d="M 324.545658 239.848 
L 324.545658 14.76 
" clip-path="url(#pf3da0b866e)" style="fill: none; stroke-dasharray: 1.85,0.8; stroke-dashoffset: 0; stroke: #b0b0b0; stroke-width: 0.5"/>
     </g>
     <g id="line2d_136">
      <g>
       <use xlink:href="#m79532e5739" x="324.545658" y="239.848" style="stroke: #000000; stroke-width: 0.6"/>
      </g>
     </g>
    </g>
    <g id="xtick_62">
     <g id="line2d_137">
      <path d="M 327.168725 239.848 
L 327.168725 14.76 
" clip-path="url(#pf3da0b866e)" style="fill: none; stroke-dasharray: 1.85,0.8; stroke-dashoffset: 0; stroke: #b0b0b0; stroke-width: 0.5"/>
     </g>
     <g id="line2d_138">
      <g>
       <use xlink:href="#m79532e5739" x="327.168725" y="239.848" style="stroke: #000000; stroke-width: 0.6"/>
      </g>
     </g>
    </g>
    <g id="xtick_63">
     <g id="line2d_139">
      <path d="M 329.440929 239.848 
L 329.440929 14.76 
" clip-path="url(#pf3da0b866e)" style="fill: none; stroke-dasharray: 1.85,0.8; stroke-dashoffset: 0; stroke: #b0b0b0; stroke-width: 0.5"/>
     </g>
     <g id="line2d_140">
      <g>
       <use xlink:href="#m79532e5739" x="329.440929" y="239.848" style="stroke: #000000; stroke-width: 0.6"/>
      </g>
     </g>
    </g>
    <g id="xtick_64">
     <g id="line2d_141">
      <path d="M 331.445156 239.848 
L 331.445156 14.76 
" clip-path="url(#pf3da0b866e)" style="fill: none; stroke-dasharray: 1.85,0.8; stroke-dashoffset: 0; stroke: #b0b0b0; stroke-width: 0.5"/>
     </g>
     <g id="line2d_142">
      <g>
       <use xlink:href="#m79532e5739" x="331.445156" y="239.848" style="stroke: #000000; stroke-width: 0.6"/>
      </g>
     </g>
    </g>
    <g id="xtick_65">
     <g id="line2d_143">
      <path d="M 345.032768 239.848 
L 345.032768 14.76 
" clip-path="url(#pf3da0b866e)" style="fill: none; stroke-dasharray: 1.85,0.8; stroke-dashoffset: 0; stroke: #b0b0b0; stroke-width: 0.5"/>
     </g>
     <g id="line2d_144">
      <g>
       <use xlink:href="#m79532e5739" x="345.032768" y="239.848" style="stroke: #000000; stroke-width: 0.6"/>
      </g>
     </g>
    </g>
    <g id="xtick_66">
     <g id="line2d_145">
      <path d="M 351.932266 239.848 
L 351.932266 14.76 
" clip-path="url(#pf3da0b866e)" style="fill: none; stroke-dasharray: 1.85,0.8; stroke-dashoffset: 0; stroke: #b0b0b0; stroke-width: 0.5"/>
     </g>
     <g id="line2d_146">
      <g>
       <use xlink:href="#m79532e5739" x="351.932266" y="239.848" style="stroke: #000000; stroke-width: 0.6"/>
      </g>
     </g>
    </g>
    <g id="xtick_67">
     <g id="line2d_147">
      <path d="M 356.827538 239.848 
L 356.827538 14.76 
" clip-path="url(#pf3da0b866e)" style="fill: none; stroke-dasharray: 1.85,0.8; stroke-dashoffset: 0; stroke: #b0b0b0; stroke-width: 0.5"/>
     </g>
     <g id="line2d_148">
      <g>
       <use xlink:href="#m79532e5739" x="356.827538" y="239.848" style="stroke: #000000; stroke-width: 0.6"/>
      </g>
     </g>
    </g>
    <g id="xtick_68">
     <g id="line2d_149">
      <path d="M 360.624606 239.848 
L 360.624606 14.76 
" clip-path="url(#pf3da0b866e)" style="fill: none; stroke-dasharray: 1.85,0.8; stroke-dashoffset: 0; stroke: #b0b0b0; stroke-width: 0.5"/>
     </g>
     <g id="line2d_150">
      <g>
       <use xlink:href="#m79532e5739" x="360.624606" y="239.848" style="stroke: #000000; stroke-width: 0.6"/>
      </g>
     </g>
    </g>
    <g id="xtick_69">
     <g id="line2d_151">
      <path d="M 363.727036 239.848 
L 363.727036 14.76 
" clip-path="url(#pf3da0b866e)" style="fill: none; stroke-dasharray: 1.85,0.8; stroke-dashoffset: 0; stroke: #b0b0b0; stroke-width: 0.5"/>
     </g>
     <g id="line2d_152">
      <g>
       <use xlink:href="#m79532e5739" x="363.727036" y="239.848" style="stroke: #000000; stroke-width: 0.6"/>
      </g>
     </g>
    </g>
    <g id="xtick_70">
     <g id="line2d_153">
      <path d="M 366.350104 239.848 
L 366.350104 14.76 
" clip-path="url(#pf3da0b866e)" style="fill: none; stroke-dasharray: 1.85,0.8; stroke-dashoffset: 0; stroke: #b0b0b0; stroke-width: 0.5"/>
     </g>
     <g id="line2d_154">
      <g>
       <use xlink:href="#m79532e5739" x="366.350104" y="239.848" style="stroke: #000000; stroke-width: 0.6"/>
      </g>
     </g>
    </g>
    <g id="xtick_71">
     <g id="line2d_155">
      <path d="M 368.622308 239.848 
L 368.622308 14.76 
" clip-path="url(#pf3da0b866e)" style="fill: none; stroke-dasharray: 1.85,0.8; stroke-dashoffset: 0; stroke: #b0b0b0; stroke-width: 0.5"/>
     </g>
     <g id="line2d_156">
      <g>
       <use xlink:href="#m79532e5739" x="368.622308" y="239.848" style="stroke: #000000; stroke-width: 0.6"/>
      </g>
     </g>
    </g>
    <g id="xtick_72">
     <g id="line2d_157">
      <path d="M 370.626535 239.848 
L 370.626535 14.76 
" clip-path="url(#pf3da0b866e)" style="fill: none; stroke-dasharray: 1.85,0.8; stroke-dashoffset: 0; stroke: #b0b0b0; stroke-width: 0.5"/>
     </g>
     <g id="line2d_158">
      <g>
       <use xlink:href="#m79532e5739" x="370.626535" y="239.848" style="stroke: #000000; stroke-width: 0.6"/>
      </g>
     </g>
    </g>
    <g id="xtick_73">
     <g id="line2d_159">
      <path d="M 384.214147 239.848 
L 384.214147 14.76 
" clip-path="url(#pf3da0b866e)" style="fill: none; stroke-dasharray: 1.85,0.8; stroke-dashoffset: 0; stroke: #b0b0b0; stroke-width: 0.5"/>
     </g>
     <g id="line2d_160">
      <g>
       <use xlink:href="#m79532e5739" x="384.214147" y="239.848" style="stroke: #000000; stroke-width: 0.6"/>
      </g>
     </g>
    </g>
    <g id="xtick_74">
     <g id="line2d_161">
      <path d="M 391.113645 239.848 
L 391.113645 14.76 
" clip-path="url(#pf3da0b866e)" style="fill: none; stroke-dasharray: 1.85,0.8; stroke-dashoffset: 0; stroke: #b0b0b0; stroke-width: 0.5"/>
     </g>
     <g id="line2d_162">
      <g>
       <use xlink:href="#m79532e5739" x="391.113645" y="239.848" style="stroke: #000000; stroke-width: 0.6"/>
      </g>
     </g>
    </g>
    <g id="xtick_75">
     <g id="line2d_163">
      <path d="M 396.008917 239.848 
L 396.008917 14.76 
" clip-path="url(#pf3da0b866e)" style="fill: none; stroke-dasharray: 1.85,0.8; stroke-dashoffset: 0; stroke: #b0b0b0; stroke-width: 0.5"/>
     </g>
     <g id="line2d_164">
      <g>
       <use xlink:href="#m79532e5739" x="396.008917" y="239.848" style="stroke: #000000; stroke-width: 0.6"/>
      </g>
     </g>
    </g>
    <g id="xtick_76">
     <g id="line2d_165">
      <path d="M 399.805985 239.848 
L 399.805985 14.76 
" clip-path="url(#pf3da0b866e)" style="fill: none; stroke-dasharray: 1.85,0.8; stroke-dashoffset: 0; stroke: #b0b0b0; stroke-width: 0.5"/>
     </g>
     <g id="line2d_166">
      <g>
       <use xlink:href="#m79532e5739" x="399.805985" y="239.848" style="stroke: #000000; stroke-width: 0.6"/>
      </g>
     </g>
    </g>
    <g id="xtick_77">
     <g id="line2d_167">
      <path d="M 402.908415 239.848 
L 402.908415 14.76 
" clip-path="url(#pf3da0b866e)" style="fill: none; stroke-dasharray: 1.85,0.8; stroke-dashoffset: 0; stroke: #b0b0b0; stroke-width: 0.5"/>
     </g>
     <g id="line2d_168">
      <g>
       <use xlink:href="#m79532e5739" x="402.908415" y="239.848" style="stroke: #000000; stroke-width: 0.6"/>
      </g>
     </g>
    </g>
    <g id="xtick_78">
     <g id="line2d_169">
      <path d="M 405.531483 239.848 
L 405.531483 14.76 
" clip-path="url(#pf3da0b866e)" style="fill: none; stroke-dasharray: 1.85,0.8; stroke-dashoffset: 0; stroke: #b0b0b0; stroke-width: 0.5"/>
     </g>
     <g id="line2d_170">
      <g>
       <use xlink:href="#m79532e5739" x="405.531483" y="239.848" style="stroke: #000000; stroke-width: 0.6"/>
      </g>
     </g>
    </g>
    <g id="xtick_79">
     <g id="line2d_171">
      <path d="M 407.803687 239.848 
L 407.803687 14.76 
" clip-path="url(#pf3da0b866e)" style="fill: none; stroke-dasharray: 1.85,0.8; stroke-dashoffset: 0; stroke: #b0b0b0; stroke-width: 0.5"/>
     </g>
     <g id="line2d_172">
      <g>
       <use xlink:href="#m79532e5739" x="407.803687" y="239.848" style="stroke: #000000; stroke-width: 0.6"/>
      </g>
     </g>
    </g>
    <g id="xtick_80">
     <g id="line2d_173">
      <path d="M 409.807913 239.848 
L 409.807913 14.76 
" clip-path="url(#pf3da0b866e)" style="fill: none; stroke-dasharray: 1.85,0.8; stroke-dashoffset: 0; stroke: #b0b0b0; stroke-width: 0.5"/>
     </g>
     <g id="line2d_174">
      <g>
       <use xlink:href="#m79532e5739" x="409.807913" y="239.848" style="stroke: #000000; stroke-width: 0.6"/>
      </g>
     </g>
    </g>
    <g id="text_21">
     <!-- Diameter ($\mu$m) -->
     <g transform="translate(295.039396 268.126125) scale(0.1 -0.1)">
      <use xlink:href="#DejaVuSans-44" transform="translate(0 0.015625)"/>
      <use xlink:href="#DejaVuSans-69" transform="translate(77.001953 0.015625)"/>
      <use xlink:href="#DejaVuSans-61" transform="translate(104.785156 0.015625)"/>
      <use xlink:href="#DejaVuSans-6d" transform="translate(166.064453 0.015625)"/>
      <use xlink:href="#DejaVuSans-65" transform="translate(263.476562 0.015625)"/>
      <use xlink:href="#DejaVuSans-74" transform="translate(325 0.015625)"/>
      <use xlink:href="#DejaVuSans-65" transform="translate(364.208984 0.015625)"/>
      <use xlink:href="#DejaVuSans-72" transform="translate(425.732422 0.015625)"/>
      <use xlink:href="#DejaVuSans-20" transform="translate(466.845703 0.015625)"/>
      <use xlink:href="#DejaVuSans-28" transform="translate(498.632812 0.015625)"/>
      <use xlink:href="#DejaVuSans-Oblique-3bc" transform="translate(537.646484 0.015625)"/>
      <use xlink:href="#DejaVuSans-6d" transform="translate(601.269531 0.015625)"/>
      <use xlink:href="#DejaVuSans-29" transform="translate(698.681641 0.015625)"/>
     </g>
    </g>
   </g>
   <g id="matplotlib.axis_4">
    <g id="ytick_7">
     <g id="line2d_175">
      <path d="M 247.075 239.848 
L 416.803792 239.848 
" clip-path="url(#pf3da0b866e)" style="fill: none; stroke-dasharray: 1.85,0.8; stroke-dashoffset: 0; stroke: #b0b0b0; stroke-width: 0.5"/>
     </g>
     <g id="line2d_176">
      <g>
       <use xlink:href="#mab78101ed7" x="247.075" y="239.848" style="stroke: #000000; stroke-width: 0.8"/>
      </g>
     </g>
    </g>
    <g id="ytick_8">
     <g id="line2d_177">
      <path d="M 247.075 194.8304 
L 416.803792 194.8304 
" clip-path="url(#pf3da0b866e)" style="fill: none; stroke-dasharray: 1.85,0.8; stroke-dashoffset: 0; stroke: #b0b0b0; stroke-width: 0.5"/>
     </g>
     <g id="line2d_178">
      <g>
       <use xlink:href="#mab78101ed7" x="247.075" y="194.8304" style="stroke: #000000; stroke-width: 0.8"/>
      </g>
     </g>
    </g>
    <g id="ytick_9">
     <g id="line2d_179">
      <path d="M 247.075 149.8128 
L 416.803792 149.8128 
" clip-path="url(#pf3da0b866e)" style="fill: none; stroke-dasharray: 1.85,0.8; stroke-dashoffset: 0; stroke: #b0b0b0; stroke-width: 0.5"/>
     </g>
     <g id="line2d_180">
      <g>
       <use xlink:href="#mab78101ed7" x="247.075" y="149.8128" style="stroke: #000000; stroke-width: 0.8"/>
      </g>
     </g>
    </g>
    <g id="ytick_10">
     <g id="line2d_181">
      <path d="M 247.075 104.7952 
L 416.803792 104.7952 
" clip-path="url(#pf3da0b866e)" style="fill: none; stroke-dasharray: 1.85,0.8; stroke-dashoffset: 0; stroke: #b0b0b0; stroke-width: 0.5"/>
     </g>
     <g id="line2d_182">
      <g>
       <use xlink:href="#mab78101ed7" x="247.075" y="104.7952" style="stroke: #000000; stroke-width: 0.8"/>
      </g>
     </g>
    </g>
    <g id="ytick_11">
     <g id="line2d_183">
      <path d="M 247.075 59.7776 
L 416.803792 59.7776 
" clip-path="url(#pf3da0b866e)" style="fill: none; stroke-dasharray: 1.85,0.8; stroke-dashoffset: 0; stroke: #b0b0b0; stroke-width: 0.5"/>
     </g>
     <g id="line2d_184">
      <g>
       <use xlink:href="#mab78101ed7" x="247.075" y="59.7776" style="stroke: #000000; stroke-width: 0.8"/>
      </g>
     </g>
    </g>
    <g id="ytick_12">
     <g id="line2d_185">
      <path d="M 247.075 14.76 
L 416.803792 14.76 
" clip-path="url(#pf3da0b866e)" style="fill: none; stroke-dasharray: 1.85,0.8; stroke-dashoffset: 0; stroke: #b0b0b0; stroke-width: 0.5"/>
     </g>
     <g id="line2d_186">
      <g>
       <use xlink:href="#mab78101ed7" x="247.075" y="14.76" style="stroke: #000000; stroke-width: 0.8"/>
      </g>
     </g>
    </g>
    <g id="text_22">
     <!-- Number distribution (%) -->
     <g transform="translate(237.495312 187.713375) rotate(-90) scale(0.1 -0.1)">
      <use xlink:href="#DejaVuSans-4e"/>
      <use xlink:href="#DejaVuSans-75" transform="translate(74.804688 0)"/>
      <use xlink:href="#DejaVuSans-6d" transform="translate(138.183594 0)"/>
      <use xlink:href="#DejaVuSans-62" transform="translate(235.595703 0)"/>
      <use xlink:href="#DejaVuSans-65" transform="translate(299.072266 0)"/>
      <use xlink:href="#DejaVuSans-72" transform="translate(360.595703 0)"/>
      <use xlink:href="#DejaVuSans-20" transform="translate(401.708984 0)"/>
      <use xlink:href="#DejaVuSans-64" transform="translate(433.496094 0)"/>
      <use xlink:href="#DejaVuSans-69" transform="translate(496.972656 0)"/>
      <use xlink:href="#DejaVuSans-73" transform="translate(524.755859 0)"/>
      <use xlink:href="#DejaVuSans-74" transform="translate(576.855469 0)"/>
      <use xlink:href="#DejaVuSans-72" transform="translate(616.064453 0)"/>
      <use xlink:href="#DejaVuSans-69" transform="translate(657.177734 0)"/>
      <use xlink:href="#DejaVuSans-62" transform="translate(684.960938 0)"/>
      <use xlink:href="#DejaVuSans-75" transform="translate(748.4375 0)"/>
      <use xlink:href="#DejaVuSans-74" transform="translate(811.816406 0)"/>
      <use xlink:href="#DejaVuSans-69" transform="translate(851.025391 0)"/>
      <use xlink:href="#DejaVuSans-6f" transform="translate(878.808594 0)"/>
      <use xlink:href="#DejaVuSans-6e" transform="translate(939.990234 0)"/>
      <use xlink:href="#DejaVuSans-20" transform="translate(1003.369141 0)"/>
      <use xlink:href="#DejaVuSans-28" transform="translate(1035.15625 0)"/>
      <use xlink:href="#DejaVuSans-25" transform="translate(1074.169922 0)"/>
      <use xlink:href="#DejaVuSans-29" transform="translate(1169.189453 0)"/>
     </g>
    </g>
   </g>
   <g id="line2d_187">
    <path d="M 254.789945 239.848 
L 257.61942 239.848 
L 257.61942 239.848 
L 260.20106 239.848 
L 260.20106 239.848 
L 262.792991 239.848 
L 262.792991 239.848 
L 265.412242 239.848 
L 265.412242 239.848 
L 268.018943 239.848 
L 268.018943 239.523666 
L 270.636395 239.523666 
L 270.636395 239.848 
L 273.254649 239.848 
L 273.254649 239.848 
L 275.861199 239.848 
L 275.861199 239.848 
L 278.475412 239.848 
L 278.475412 239.848 
L 281.090886 239.848 
L 281.090886 239.848 
L 283.704837 239.848 
L 283.704837 239.848 
L 286.322321 239.848 
L 286.322321 239.848 
L 288.938685 239.848 
L 288.938685 239.848 
L 291.549433 239.848 
L 291.549433 239.848 
L 294.158411 239.848 
L 294.158411 239.848 
L 296.768183 239.848 
L 296.768183 239.848 
L 299.379328 239.848 
L 299.379328 239.848 
L 301.993059 239.848 
L 301.993059 239.848 
L 304.605068 239.848 
L 304.605068 239.848 
L 307.216034 239.848 
L 307.216034 239.848 
L 309.829564 239.848 
L 309.829564 239.848 
L 312.443248 239.848 
L 312.443248 238.874997 
L 315.054967 238.874997 
L 315.054967 235.631654 
L 317.666354 235.631654 
L 317.666354 231.739643 
L 320.278644 231.739643 
L 320.278644 225.901625 
L 322.890905 225.901625 
L 322.890905 218.441937 
L 325.502359 218.441937 
L 325.502359 204.819896 
L 328.113741 204.819896 
L 328.113741 187.305844 
L 330.725882 187.305844 
L 330.725882 186.98151 
L 333.338098 186.98151 
L 333.338098 168.170121 
L 335.950288 168.170121 
L 335.950288 174.008138 
L 338.562573 174.008138 
L 338.562573 166.872784 
L 341.174704 166.872784 
L 341.174704 158.440092 
L 343.786676 158.440092 
L 343.786676 154.872415 
L 346.39859 154.872415 
L 346.39859 161.683435 
L 349.010774 161.683435 
L 349.010774 169.791793 
L 351.623039 169.791793 
L 351.623039 173.035135 
L 354.235108 173.035135 
L 354.235108 176.927147 
L 356.847095 176.927147 
L 356.847095 200.60355 
L 359.459112 200.60355 
L 359.459112 230.442305 
L 362.07119 230.442305 
L 362.07119 235.955988 
L 364.683269 235.955988 
L 364.683269 238.226329 
L 367.29535 238.226329 
L 367.29535 239.199331 
L 369.907458 239.199331 
L 369.907458 239.848 
L 372.519562 239.848 
L 372.519562 238.874997 
L 375.131666 238.874997 
L 375.131666 239.523666 
L 377.743766 239.523666 
L 377.743766 239.848 
L 380.355843 239.848 
L 380.355843 239.848 
L 382.967917 239.848 
L 382.967917 239.848 
L 385.580009 239.848 
L 385.580009 239.848 
L 388.192102 239.848 
L 388.192102 239.848 
L 390.804201 239.848 
L 390.804201 239.848 
L 393.416301 239.848 
L 393.416301 239.848 
L 396.028389 239.848 
L 396.028389 239.848 
L 398.640481 239.848 
L 398.640481 239.848 
L 401.252577 239.848 
L 401.252577 239.848 
L 403.864668 239.848 
L 403.864668 239.848 
L 406.476757 239.848 
L 406.476757 239.848 
L 409.088847 239.848 
L 409.088847 239.848 
" clip-path="url(#pf3da0b866e)" style="fill: none; stroke-dasharray: 5.55,2.4; stroke-dashoffset: 0; stroke: #1f77b4; stroke-width: 1.5"/>
   </g>
   <g id="line2d_188">
    <path d="M 254.789945 223.619861 
L 257.61942 223.619861 
L 257.61942 219.210421 
L 260.20106 219.210421 
L 260.20106 219.979372 
L 262.792991 219.979372 
L 262.792991 223.055204 
L 265.412242 223.055204 
L 265.412242 226.532611 
L 268.018943 226.532611 
L 268.018943 229.686858 
L 270.636395 229.686858 
L 270.636395 232.359246 
L 273.254649 232.359246 
L 273.254649 234.417066 
L 275.861199 234.417066 
L 275.861199 232.213632 
L 278.475412 232.213632 
L 278.475412 228.078062 
L 281.090886 228.078062 
L 281.090886 226.355789 
L 283.704837 226.355789 
L 283.704837 226.1632 
L 286.322321 226.1632 
L 286.322321 226.852282 
L 288.938685 226.852282 
L 288.938685 227.974895 
L 291.549433 227.974895 
L 291.549433 229.268993 
L 294.158411 229.268993 
L 294.158411 230.609084 
L 296.768183 230.609084 
L 296.768183 231.92314 
L 299.379328 231.92314 
L 299.379328 233.190889 
L 301.993059 233.190889 
L 301.993059 234.400934 
L 304.605068 234.400934 
L 304.605068 235.532382 
L 307.216034 235.532382 
L 307.216034 236.565121 
L 309.829564 236.565121 
L 309.829564 237.461087 
L 312.443248 237.461087 
L 312.443248 238.190361 
L 315.054967 238.190361 
L 315.054967 238.749957 
L 317.666354 238.749957 
L 317.666354 239.153507 
L 320.278644 239.153507 
L 320.278644 234.190179 
L 322.890905 234.190179 
L 322.890905 213.905124 
L 325.502359 213.905124 
L 325.502359 182.236477 
L 328.113741 182.236477 
L 328.113741 165.03897 
L 330.725882 165.03897 
L 330.725882 161.46251 
L 333.338098 161.46251 
L 333.338098 167.138972 
L 335.950288 167.138972 
L 335.950288 177.739624 
L 338.562573 177.739624 
L 338.562573 189.597458 
L 341.174704 189.597458 
L 341.174704 200.194636 
L 343.786676 200.194636 
L 343.786676 208.309266 
L 346.39859 208.309266 
L 346.39859 213.799911 
L 349.010774 213.799911 
L 349.010774 217.227003 
L 351.623039 217.227003 
L 351.623039 219.448287 
L 354.235108 219.448287 
L 354.235108 221.267091 
L 356.847095 221.267091 
L 356.847095 223.213572 
L 359.459112 223.213572 
L 359.459112 225.489688 
L 362.07119 225.489688 
L 362.07119 228.030941 
L 364.683269 228.030941 
L 364.683269 230.622103 
L 367.29535 230.622103 
L 367.29535 233.009318 
L 369.907458 233.009318 
L 369.907458 234.993869 
L 372.519562 234.993869 
L 372.519562 236.479764 
L 375.131666 236.479764 
L 375.131666 237.475734 
L 377.743766 237.475734 
L 377.743766 238.068753 
L 380.355843 238.068753 
L 380.355843 238.384018 
L 382.967917 238.384018 
L 382.967917 238.547198 
L 385.580009 238.547198 
L 385.580009 238.657411 
L 388.192102 238.657411 
L 388.192102 238.77532 
L 390.804201 238.77532 
L 390.804201 238.924295 
L 393.416301 238.924295 
L 393.416301 239.100218 
L 396.028389 239.100218 
L 396.028389 239.28463 
L 398.640481 239.28463 
L 398.640481 239.456535 
L 401.252577 239.456535 
L 401.252577 239.6002 
L 403.864668 239.6002 
L 403.864668 239.708299 
L 406.476757 239.708299 
L 406.476757 239.781386 
L 409.088847 239.781386 
L 409.088847 239.825285 
" clip-path="url(#pf3da0b866e)" style="fill: none; stroke: #ff7f0e; stroke-width: 1.5; stroke-linecap: square"/>
   </g>
   <g id="patch_8">
    <path d="M 247.075 239.848 
L 247.075 14.76 
" style="fill: none; stroke: #000000; stroke-width: 0.8; stroke-linejoin: miter; stroke-linecap: square"/>
   </g>
   <g id="patch_9">
    <path d="M 416.803792 239.848 
L 416.803792 14.76 
" style="fill: none; stroke: #000000; stroke-width: 0.8; stroke-linejoin: miter; stroke-linecap: square"/>
   </g>
   <g id="patch_10">
    <path d="M 247.075 239.848 
L 416.803792 239.848 
" style="fill: none; stroke: #000000; stroke-width: 0.8; stroke-linejoin: miter; stroke-linecap: square"/>
   </g>
   <g id="patch_11">
    <path d="M 247.075 14.76 
L 416.803792 14.76 
" style="fill: none; stroke: #000000; stroke-width: 0.8; stroke-linejoin: miter; stroke-linecap: square"/>
   </g>
   <g id="text_23">
    <!-- b. -->
    <g transform="translate(254.87524 43.404852) scale(0.14 -0.14)">
     <defs>
      <path id="DejaVuSans-Bold-62" d="M 2400 722 
Q 2759 722 2948 984 
Q 3138 1247 3138 1747 
Q 3138 2247 2948 2509 
Q 2759 2772 2400 2772 
Q 2041 2772 1848 2508 
Q 1656 2244 1656 1747 
Q 1656 1250 1848 986 
Q 2041 722 2400 722 
z
M 1656 2988 
Q 1888 3294 2169 3439 
Q 2450 3584 2816 3584 
Q 3463 3584 3878 3070 
Q 4294 2556 4294 1747 
Q 4294 938 3878 423 
Q 3463 -91 2816 -91 
Q 2450 -91 2169 54 
Q 1888 200 1656 506 
L 1656 0 
L 538 0 
L 538 4863 
L 1656 4863 
L 1656 2988 
z
" transform="scale(0.015625)"/>
     </defs>
     <use xlink:href="#DejaVuSans-Bold-62"/>
     <use xlink:href="#DejaVuSans-Bold-2e" transform="translate(71.582031 0)"/>
    </g>
   </g>
   <g id="text_24">
    <!-- b. -->
    <g transform="translate(254.87524 43.404852) scale(0.14 -0.14)">
     <use xlink:href="#DejaVuSans-Bold-62"/>
     <use xlink:href="#DejaVuSans-Bold-2e" transform="translate(71.582031 0)"/>
    </g>
   </g>
  </g>
 </g>
 <defs>
  <clipPath id="p4c2cd3dda4">
   <rect x="44.57" y="14.76" width="169.728792" height="225.088"/>
  </clipPath>
  <clipPath id="pf3da0b866e">
   <rect x="247.075" y="14.76" width="169.728792" height="225.088"/>
  </clipPath>
 </defs>
</svg>
