<?xml version="1.0" encoding="utf-8" standalone="no"?>
<!DOCTYPE svg PUBLIC "-//W3C//DTD SVG 1.1//EN"
  "http://www.w3.org/Graphics/SVG/1.1/DTD/svg11.dtd">
<svg xmlns:xlink="http://www.w3.org/1999/xlink" width="432pt" height="288pt" viewBox="0 0 432 288" xmlns="http://www.w3.org/2000/svg" version="1.1">
 <metadata>
  <rdf:RDF xmlns:dc="http://purl.org/dc/elements/1.1/" xmlns:cc="http://creativecommons.org/ns#" xmlns:rdf="http://www.w3.org/1999/02/22-rdf-syntax-ns#">
   <cc:Work>
    <dc:type rdf:resource="http://purl.org/dc/dcmitype/StillImage"/>
    <dc:date>2025-09-16T15:51:25.727227</dc:date>
    <dc:format>image/svg+xml</dc:format>
    <dc:creator>
     <cc:Agent>
      <dc:title>Matplotlib v3.10.0, https://matplotlib.org/</dc:title>
     </cc:Agent>
    </dc:creator>
   </cc:Work>
  </rdf:RDF>
 </metadata>
 <defs>
  <style type="text/css">*{stroke-linejoin: round; stroke-linecap: butt}</style>
 </defs>
 <g id="figure_1">
  <g id="patch_1">
   <path d="M 0 288 
L 432 288 
L 432 0 
L 0 0 
z
" style="fill: #ffffff"/>
  </g>
  <g id="axes_1">
   <g id="patch_2">
    <path d="M 69.608 226.17625 
L 416.88 226.17625 
L 416.88 33.36 
L 69.608 33.36 
z
" style="fill: #ffffff"/>
   </g>
   <g id="matplotlib.axis_1">
    <g id="xtick_1">
     <g id="line2d_1">
      <path d="M 74.083384 226.17625 
L 74.083384 33.36 
" clip-path="url(#p0e5b0c7936)" style="fill: none; stroke-dasharray: 1.85,0.8; stroke-dashoffset: 0; stroke: #b0b0b0; stroke-width: 0.5"/>
     </g>
     <g id="line2d_2">
      <defs>
       <path id="m1378c3582c" d="M 0 0 
L 0 3.5 
" style="stroke: #000000; stroke-width: 0.8"/>
      </defs>
      <g>
       <use xlink:href="#m1378c3582c" x="74.083384" y="226.17625" style="stroke: #000000; stroke-width: 0.8"/>
      </g>
     </g>
     <g id="text_1">
      <!-- $\mathdefault{10^{0}}$ -->
      <g transform="translate(64.213384 245.581562) scale(0.14 -0.14)">
       <defs>
        <path id="TimesNewRomanPSMT-31" d="M 750 3822 
L 1781 4325 
L 1884 4325 
L 1884 747 
Q 1884 391 1914 303 
Q 1944 216 2037 169 
Q 2131 122 2419 116 
L 2419 0 
L 825 0 
L 825 116 
Q 1125 122 1212 167 
Q 1300 213 1334 289 
Q 1369 366 1369 747 
L 1369 3034 
Q 1369 3497 1338 3628 
Q 1316 3728 1258 3775 
Q 1200 3822 1119 3822 
Q 1003 3822 797 3725 
L 750 3822 
z
" transform="scale(0.015625)"/>
        <path id="TimesNewRomanPSMT-30" d="M 231 2094 
Q 231 2819 450 3342 
Q 669 3866 1031 4122 
Q 1313 4325 1613 4325 
Q 2100 4325 2488 3828 
Q 2972 3213 2972 2159 
Q 2972 1422 2759 906 
Q 2547 391 2217 158 
Q 1888 -75 1581 -75 
Q 975 -75 572 641 
Q 231 1244 231 2094 
z
M 844 2016 
Q 844 1141 1059 588 
Q 1238 122 1591 122 
Q 1759 122 1940 273 
Q 2122 425 2216 781 
Q 2359 1319 2359 2297 
Q 2359 3022 2209 3506 
Q 2097 3866 1919 4016 
Q 1791 4119 1609 4119 
Q 1397 4119 1231 3928 
Q 1006 3669 925 3112 
Q 844 2556 844 2016 
z
" transform="scale(0.015625)"/>
       </defs>
       <use xlink:href="#TimesNewRomanPSMT-31" transform="translate(0 0.582813)"/>
       <use xlink:href="#TimesNewRomanPSMT-30" transform="translate(50 0.582813)"/>
       <use xlink:href="#TimesNewRomanPSMT-30" transform="translate(101.502813 60.695312) scale(0.7)"/>
      </g>
     </g>
    </g>
    <g id="xtick_2">
     <g id="line2d_3">
      <path d="M 235.623451 226.17625 
L 235.623451 33.36 
" clip-path="url(#p0e5b0c7936)" style="fill: none; stroke-dasharray: 1.85,0.8; stroke-dashoffset: 0; stroke: #b0b0b0; stroke-width: 0.5"/>
     </g>
     <g id="line2d_4">
      <g>
       <use xlink:href="#m1378c3582c" x="235.623451" y="226.17625" style="stroke: #000000; stroke-width: 0.8"/>
      </g>
     </g>
     <g id="text_2">
      <!-- $\mathdefault{10^{1}}$ -->
      <g transform="translate(225.753451 245.581562) scale(0.14 -0.14)">
       <use xlink:href="#TimesNewRomanPSMT-31" transform="translate(0 0.582813)"/>
       <use xlink:href="#TimesNewRomanPSMT-30" transform="translate(50 0.582813)"/>
       <use xlink:href="#TimesNewRomanPSMT-31" transform="translate(101.502813 60.695312) scale(0.7)"/>
      </g>
     </g>
    </g>
    <g id="xtick_3">
     <g id="line2d_5">
      <path d="M 397.163518 226.17625 
L 397.163518 33.36 
" clip-path="url(#p0e5b0c7936)" style="fill: none; stroke-dasharray: 1.85,0.8; stroke-dashoffset: 0; stroke: #b0b0b0; stroke-width: 0.5"/>
     </g>
     <g id="line2d_6">
      <g>
       <use xlink:href="#m1378c3582c" x="397.163518" y="226.17625" style="stroke: #000000; stroke-width: 0.8"/>
      </g>
     </g>
     <g id="text_3">
      <!-- $\mathdefault{10^{2}}$ -->
      <g transform="translate(387.293518 245.581562) scale(0.14 -0.14)">
       <defs>
        <path id="TimesNewRomanPSMT-32" d="M 2934 816 
L 2638 0 
L 138 0 
L 138 116 
Q 1241 1122 1691 1759 
Q 2141 2397 2141 2925 
Q 2141 3328 1894 3587 
Q 1647 3847 1303 3847 
Q 991 3847 742 3664 
Q 494 3481 375 3128 
L 259 3128 
Q 338 3706 661 4015 
Q 984 4325 1469 4325 
Q 1984 4325 2329 3994 
Q 2675 3663 2675 3213 
Q 2675 2891 2525 2569 
Q 2294 2063 1775 1497 
Q 997 647 803 472 
L 1909 472 
Q 2247 472 2383 497 
Q 2519 522 2628 598 
Q 2738 675 2819 816 
L 2934 816 
z
" transform="scale(0.015625)"/>
       </defs>
       <use xlink:href="#TimesNewRomanPSMT-31" transform="translate(0 0.582813)"/>
       <use xlink:href="#TimesNewRomanPSMT-30" transform="translate(50 0.582813)"/>
       <use xlink:href="#TimesNewRomanPSMT-32" transform="translate(101.502813 60.695312) scale(0.7)"/>
      </g>
     </g>
    </g>
    <g id="xtick_4">
     <g id="line2d_7">
      <path d="M 122.71179 226.17625 
L 122.71179 33.36 
" clip-path="url(#p0e5b0c7936)" style="fill: none; stroke-dasharray: 1.85,0.8; stroke-dashoffset: 0; stroke: #b0b0b0; stroke-width: 0.5"/>
     </g>
     <g id="line2d_8">
      <defs>
       <path id="m7dc4dec422" d="M 0 0 
L 0 2 
" style="stroke: #000000; stroke-width: 0.6"/>
      </defs>
      <g>
       <use xlink:href="#m7dc4dec422" x="122.71179" y="226.17625" style="stroke: #000000; stroke-width: 0.6"/>
      </g>
     </g>
    </g>
    <g id="xtick_5">
     <g id="line2d_9">
      <path d="M 151.157584 226.17625 
L 151.157584 33.36 
" clip-path="url(#p0e5b0c7936)" style="fill: none; stroke-dasharray: 1.85,0.8; stroke-dashoffset: 0; stroke: #b0b0b0; stroke-width: 0.5"/>
     </g>
     <g id="line2d_10">
      <g>
       <use xlink:href="#m7dc4dec422" x="151.157584" y="226.17625" style="stroke: #000000; stroke-width: 0.6"/>
      </g>
     </g>
    </g>
    <g id="xtick_6">
     <g id="line2d_11">
      <path d="M 171.340196 226.17625 
L 171.340196 33.36 
" clip-path="url(#p0e5b0c7936)" style="fill: none; stroke-dasharray: 1.85,0.8; stroke-dashoffset: 0; stroke: #b0b0b0; stroke-width: 0.5"/>
     </g>
     <g id="line2d_12">
      <g>
       <use xlink:href="#m7dc4dec422" x="171.340196" y="226.17625" style="stroke: #000000; stroke-width: 0.6"/>
      </g>
     </g>
    </g>
    <g id="xtick_7">
     <g id="line2d_13">
      <path d="M 186.995046 226.17625 
L 186.995046 33.36 
" clip-path="url(#p0e5b0c7936)" style="fill: none; stroke-dasharray: 1.85,0.8; stroke-dashoffset: 0; stroke: #b0b0b0; stroke-width: 0.5"/>
     </g>
     <g id="line2d_14">
      <g>
       <use xlink:href="#m7dc4dec422" x="186.995046" y="226.17625" style="stroke: #000000; stroke-width: 0.6"/>
      </g>
     </g>
    </g>
    <g id="xtick_8">
     <g id="line2d_15">
      <path d="M 199.785989 226.17625 
L 199.785989 33.36 
" clip-path="url(#p0e5b0c7936)" style="fill: none; stroke-dasharray: 1.85,0.8; stroke-dashoffset: 0; stroke: #b0b0b0; stroke-width: 0.5"/>
     </g>
     <g id="line2d_16">
      <g>
       <use xlink:href="#m7dc4dec422" x="199.785989" y="226.17625" style="stroke: #000000; stroke-width: 0.6"/>
      </g>
     </g>
    </g>
    <g id="xtick_9">
     <g id="line2d_17">
      <path d="M 210.600578 226.17625 
L 210.600578 33.36 
" clip-path="url(#p0e5b0c7936)" style="fill: none; stroke-dasharray: 1.85,0.8; stroke-dashoffset: 0; stroke: #b0b0b0; stroke-width: 0.5"/>
     </g>
     <g id="line2d_18">
      <g>
       <use xlink:href="#m7dc4dec422" x="210.600578" y="226.17625" style="stroke: #000000; stroke-width: 0.6"/>
      </g>
     </g>
    </g>
    <g id="xtick_10">
     <g id="line2d_19">
      <path d="M 219.968601 226.17625 
L 219.968601 33.36 
" clip-path="url(#p0e5b0c7936)" style="fill: none; stroke-dasharray: 1.85,0.8; stroke-dashoffset: 0; stroke: #b0b0b0; stroke-width: 0.5"/>
     </g>
     <g id="line2d_20">
      <g>
       <use xlink:href="#m7dc4dec422" x="219.968601" y="226.17625" style="stroke: #000000; stroke-width: 0.6"/>
      </g>
     </g>
    </g>
    <g id="xtick_11">
     <g id="line2d_21">
      <path d="M 228.231783 226.17625 
L 228.231783 33.36 
" clip-path="url(#p0e5b0c7936)" style="fill: none; stroke-dasharray: 1.85,0.8; stroke-dashoffset: 0; stroke: #b0b0b0; stroke-width: 0.5"/>
     </g>
     <g id="line2d_22">
      <g>
       <use xlink:href="#m7dc4dec422" x="228.231783" y="226.17625" style="stroke: #000000; stroke-width: 0.6"/>
      </g>
     </g>
    </g>
    <g id="xtick_12">
     <g id="line2d_23">
      <path d="M 284.251857 226.17625 
L 284.251857 33.36 
" clip-path="url(#p0e5b0c7936)" style="fill: none; stroke-dasharray: 1.85,0.8; stroke-dashoffset: 0; stroke: #b0b0b0; stroke-width: 0.5"/>
     </g>
     <g id="line2d_24">
      <g>
       <use xlink:href="#m7dc4dec422" x="284.251857" y="226.17625" style="stroke: #000000; stroke-width: 0.6"/>
      </g>
     </g>
    </g>
    <g id="xtick_13">
     <g id="line2d_25">
      <path d="M 312.697651 226.17625 
L 312.697651 33.36 
" clip-path="url(#p0e5b0c7936)" style="fill: none; stroke-dasharray: 1.85,0.8; stroke-dashoffset: 0; stroke: #b0b0b0; stroke-width: 0.5"/>
     </g>
     <g id="line2d_26">
      <g>
       <use xlink:href="#m7dc4dec422" x="312.697651" y="226.17625" style="stroke: #000000; stroke-width: 0.6"/>
      </g>
     </g>
    </g>
    <g id="xtick_14">
     <g id="line2d_27">
      <path d="M 332.880262 226.17625 
L 332.880262 33.36 
" clip-path="url(#p0e5b0c7936)" style="fill: none; stroke-dasharray: 1.85,0.8; stroke-dashoffset: 0; stroke: #b0b0b0; stroke-width: 0.5"/>
     </g>
     <g id="line2d_28">
      <g>
       <use xlink:href="#m7dc4dec422" x="332.880262" y="226.17625" style="stroke: #000000; stroke-width: 0.6"/>
      </g>
     </g>
    </g>
    <g id="xtick_15">
     <g id="line2d_29">
      <path d="M 348.535112 226.17625 
L 348.535112 33.36 
" clip-path="url(#p0e5b0c7936)" style="fill: none; stroke-dasharray: 1.85,0.8; stroke-dashoffset: 0; stroke: #b0b0b0; stroke-width: 0.5"/>
     </g>
     <g id="line2d_30">
      <g>
       <use xlink:href="#m7dc4dec422" x="348.535112" y="226.17625" style="stroke: #000000; stroke-width: 0.6"/>
      </g>
     </g>
    </g>
    <g id="xtick_16">
     <g id="line2d_31">
      <path d="M 361.326056 226.17625 
L 361.326056 33.36 
" clip-path="url(#p0e5b0c7936)" style="fill: none; stroke-dasharray: 1.85,0.8; stroke-dashoffset: 0; stroke: #b0b0b0; stroke-width: 0.5"/>
     </g>
     <g id="line2d_32">
      <g>
       <use xlink:href="#m7dc4dec422" x="361.326056" y="226.17625" style="stroke: #000000; stroke-width: 0.6"/>
      </g>
     </g>
    </g>
    <g id="xtick_17">
     <g id="line2d_33">
      <path d="M 372.140645 226.17625 
L 372.140645 33.36 
" clip-path="url(#p0e5b0c7936)" style="fill: none; stroke-dasharray: 1.85,0.8; stroke-dashoffset: 0; stroke: #b0b0b0; stroke-width: 0.5"/>
     </g>
     <g id="line2d_34">
      <g>
       <use xlink:href="#m7dc4dec422" x="372.140645" y="226.17625" style="stroke: #000000; stroke-width: 0.6"/>
      </g>
     </g>
    </g>
    <g id="xtick_18">
     <g id="line2d_35">
      <path d="M 381.508668 226.17625 
L 381.508668 33.36 
" clip-path="url(#p0e5b0c7936)" style="fill: none; stroke-dasharray: 1.85,0.8; stroke-dashoffset: 0; stroke: #b0b0b0; stroke-width: 0.5"/>
     </g>
     <g id="line2d_36">
      <g>
       <use xlink:href="#m7dc4dec422" x="381.508668" y="226.17625" style="stroke: #000000; stroke-width: 0.6"/>
      </g>
     </g>
    </g>
    <g id="xtick_19">
     <g id="line2d_37">
      <path d="M 389.77185 226.17625 
L 389.77185 33.36 
" clip-path="url(#p0e5b0c7936)" style="fill: none; stroke-dasharray: 1.85,0.8; stroke-dashoffset: 0; stroke: #b0b0b0; stroke-width: 0.5"/>
     </g>
     <g id="line2d_38">
      <g>
       <use xlink:href="#m7dc4dec422" x="389.77185" y="226.17625" style="stroke: #000000; stroke-width: 0.6"/>
      </g>
     </g>
    </g>
    <g id="text_4">
     <!-- $d$ [$\mu$m] -->
     <g transform="translate(222.454 263.161563) scale(0.14 -0.14)">
      <defs>
       <path id="DejaVuSans-Oblique-64" d="M 2675 525 
Q 2444 222 2128 65 
Q 1813 -91 1428 -91 
Q 903 -91 598 267 
Q 294 625 294 1247 
Q 294 1766 478 2236 
Q 663 2706 1013 3078 
Q 1244 3325 1534 3454 
Q 1825 3584 2144 3584 
Q 2481 3584 2739 3421 
Q 2997 3259 3138 2956 
L 3513 4863 
L 4091 4863 
L 3144 0 
L 2566 0 
L 2675 525 
z
M 891 1350 
Q 891 897 1095 644 
Q 1300 391 1663 391 
Q 1931 391 2161 520 
Q 2391 650 2566 903 
Q 2750 1166 2856 1509 
Q 2963 1853 2963 2188 
Q 2963 2622 2758 2865 
Q 2553 3109 2194 3109 
Q 1922 3109 1687 2981 
Q 1453 2853 1288 2613 
Q 1106 2353 998 2009 
Q 891 1666 891 1350 
z
" transform="scale(0.015625)"/>
       <path id="TimesNewRomanPSMT-20" transform="scale(0.015625)"/>
       <path id="TimesNewRomanPSMT-5b" d="M 1900 -1269 
L 525 -1269 
L 525 4334 
L 1900 4334 
L 1900 4088 
L 994 4088 
L 994 -1025 
L 1900 -1025 
L 1900 -1269 
z
" transform="scale(0.015625)"/>
       <path id="DejaVuSans-Oblique-3bc" d="M -84 -1331 
L 856 3500 
L 1434 3500 
L 1009 1322 
Q 997 1256 987 1175 
Q 978 1094 978 1013 
Q 978 722 1161 565 
Q 1344 409 1684 409 
Q 2147 409 2431 671 
Q 2716 934 2816 1459 
L 3213 3500 
L 3788 3500 
L 3266 809 
Q 3253 750 3248 706 
Q 3244 663 3244 628 
Q 3244 531 3283 486 
Q 3322 441 3406 441 
Q 3438 441 3492 456 
Q 3547 472 3647 513 
L 3559 50 
Q 3422 -19 3297 -55 
Q 3172 -91 3053 -91 
Q 2847 -91 2730 40 
Q 2613 172 2613 403 
Q 2438 153 2195 31 
Q 1953 -91 1625 -91 
Q 1334 -91 1117 43 
Q 900 178 831 397 
L 494 -1331 
L -84 -1331 
z
" transform="scale(0.015625)"/>
       <path id="TimesNewRomanPSMT-6d" d="M 1050 2338 
Q 1363 2650 1419 2697 
Q 1559 2816 1721 2881 
Q 1884 2947 2044 2947 
Q 2313 2947 2506 2790 
Q 2700 2634 2766 2338 
Q 3088 2713 3309 2830 
Q 3531 2947 3766 2947 
Q 3994 2947 4170 2830 
Q 4347 2713 4450 2447 
Q 4519 2266 4519 1878 
L 4519 647 
Q 4519 378 4559 278 
Q 4591 209 4675 161 
Q 4759 113 4950 113 
L 4950 0 
L 3538 0 
L 3538 113 
L 3597 113 
Q 3781 113 3884 184 
Q 3956 234 3988 344 
Q 4000 397 4000 647 
L 4000 1878 
Q 4000 2228 3916 2372 
Q 3794 2572 3525 2572 
Q 3359 2572 3192 2489 
Q 3025 2406 2788 2181 
L 2781 2147 
L 2788 2013 
L 2788 647 
Q 2788 353 2820 281 
Q 2853 209 2943 161 
Q 3034 113 3253 113 
L 3253 0 
L 1806 0 
L 1806 113 
Q 2044 113 2133 169 
Q 2222 225 2256 338 
Q 2272 391 2272 647 
L 2272 1878 
Q 2272 2228 2169 2381 
Q 2031 2581 1784 2581 
Q 1616 2581 1450 2491 
Q 1191 2353 1050 2181 
L 1050 647 
Q 1050 366 1089 281 
Q 1128 197 1204 155 
Q 1281 113 1516 113 
L 1516 0 
L 100 0 
L 100 113 
Q 297 113 375 155 
Q 453 197 493 289 
Q 534 381 534 647 
L 534 1741 
Q 534 2213 506 2350 
Q 484 2453 437 2492 
Q 391 2531 309 2531 
Q 222 2531 100 2484 
L 53 2597 
L 916 2947 
L 1050 2947 
L 1050 2338 
z
" transform="scale(0.015625)"/>
       <path id="TimesNewRomanPSMT-5d" d="M 234 4334 
L 1609 4334 
L 1609 -1272 
L 234 -1272 
L 234 -1025 
L 1141 -1025 
L 1141 4088 
L 234 4088 
L 234 4334 
z
" transform="scale(0.015625)"/>
      </defs>
      <use xlink:href="#DejaVuSans-Oblique-64" transform="translate(0 0.015625)"/>
      <use xlink:href="#TimesNewRomanPSMT-20" transform="translate(63.476562 0.015625)"/>
      <use xlink:href="#TimesNewRomanPSMT-5b" transform="translate(88.476562 0.015625)"/>
      <use xlink:href="#DejaVuSans-Oblique-3bc" transform="translate(121.777344 0.015625)"/>
      <use xlink:href="#TimesNewRomanPSMT-6d" transform="translate(185.400391 0.015625)"/>
      <use xlink:href="#TimesNewRomanPSMT-5d" transform="translate(263.183594 0.015625)"/>
     </g>
    </g>
   </g>
   <g id="matplotlib.axis_2">
    <g id="ytick_1">
     <g id="line2d_39">
      <path d="M 69.608 217.411875 
L 416.88 217.411875 
" clip-path="url(#p0e5b0c7936)" style="fill: none; stroke-dasharray: 1.85,0.8; stroke-dashoffset: 0; stroke: #b0b0b0; stroke-width: 0.5"/>
     </g>
     <g id="line2d_40">
      <defs>
       <path id="mdcd793b3fb" d="M 0 0 
L -3.5 0 
" style="stroke: #000000; stroke-width: 0.8"/>
      </defs>
      <g>
       <use xlink:href="#mdcd793b3fb" x="69.608" y="217.411875" style="stroke: #000000; stroke-width: 0.8"/>
      </g>
     </g>
     <g id="text_5">
      <!-- 0.00 -->
      <g transform="translate(38.108 222.2725) scale(0.14 -0.14)">
       <defs>
        <path id="TimesNewRomanPSMT-2e" d="M 800 606 
Q 947 606 1047 504 
Q 1147 403 1147 259 
Q 1147 116 1045 14 
Q 944 -88 800 -88 
Q 656 -88 554 14 
Q 453 116 453 259 
Q 453 406 554 506 
Q 656 606 800 606 
z
" transform="scale(0.015625)"/>
       </defs>
       <use xlink:href="#TimesNewRomanPSMT-30"/>
       <use xlink:href="#TimesNewRomanPSMT-2e" transform="translate(50 0)"/>
       <use xlink:href="#TimesNewRomanPSMT-30" transform="translate(75 0)"/>
       <use xlink:href="#TimesNewRomanPSMT-30" transform="translate(125 0)"/>
      </g>
     </g>
    </g>
    <g id="ytick_2">
     <g id="line2d_41">
      <path d="M 69.608 179.272631 
L 416.88 179.272631 
" clip-path="url(#p0e5b0c7936)" style="fill: none; stroke-dasharray: 1.85,0.8; stroke-dashoffset: 0; stroke: #b0b0b0; stroke-width: 0.5"/>
     </g>
     <g id="line2d_42">
      <g>
       <use xlink:href="#mdcd793b3fb" x="69.608" y="179.272631" style="stroke: #000000; stroke-width: 0.8"/>
      </g>
     </g>
     <g id="text_6">
      <!-- 0.02 -->
      <g transform="translate(38.108 184.133256) scale(0.14 -0.14)">
       <use xlink:href="#TimesNewRomanPSMT-30"/>
       <use xlink:href="#TimesNewRomanPSMT-2e" transform="translate(50 0)"/>
       <use xlink:href="#TimesNewRomanPSMT-30" transform="translate(75 0)"/>
       <use xlink:href="#TimesNewRomanPSMT-32" transform="translate(125 0)"/>
      </g>
     </g>
    </g>
    <g id="ytick_3">
     <g id="line2d_43">
      <path d="M 69.608 141.133386 
L 416.88 141.133386 
" clip-path="url(#p0e5b0c7936)" style="fill: none; stroke-dasharray: 1.85,0.8; stroke-dashoffset: 0; stroke: #b0b0b0; stroke-width: 0.5"/>
     </g>
     <g id="line2d_44">
      <g>
       <use xlink:href="#mdcd793b3fb" x="69.608" y="141.133386" style="stroke: #000000; stroke-width: 0.8"/>
      </g>
     </g>
     <g id="text_7">
      <!-- 0.04 -->
      <g transform="translate(38.108 145.994011) scale(0.14 -0.14)">
       <defs>
        <path id="TimesNewRomanPSMT-34" d="M 2978 1563 
L 2978 1119 
L 2409 1119 
L 2409 0 
L 1894 0 
L 1894 1119 
L 100 1119 
L 100 1519 
L 2066 4325 
L 2409 4325 
L 2409 1563 
L 2978 1563 
z
M 1894 1563 
L 1894 3666 
L 406 1563 
L 1894 1563 
z
" transform="scale(0.015625)"/>
       </defs>
       <use xlink:href="#TimesNewRomanPSMT-30"/>
       <use xlink:href="#TimesNewRomanPSMT-2e" transform="translate(50 0)"/>
       <use xlink:href="#TimesNewRomanPSMT-30" transform="translate(75 0)"/>
       <use xlink:href="#TimesNewRomanPSMT-34" transform="translate(125 0)"/>
      </g>
     </g>
    </g>
    <g id="ytick_4">
     <g id="line2d_45">
      <path d="M 69.608 102.994142 
L 416.88 102.994142 
" clip-path="url(#p0e5b0c7936)" style="fill: none; stroke-dasharray: 1.85,0.8; stroke-dashoffset: 0; stroke: #b0b0b0; stroke-width: 0.5"/>
     </g>
     <g id="line2d_46">
      <g>
       <use xlink:href="#mdcd793b3fb" x="69.608" y="102.994142" style="stroke: #000000; stroke-width: 0.8"/>
      </g>
     </g>
     <g id="text_8">
      <!-- 0.06 -->
      <g transform="translate(38.108 107.854767) scale(0.14 -0.14)">
       <defs>
        <path id="TimesNewRomanPSMT-36" d="M 2869 4325 
L 2869 4209 
Q 2456 4169 2195 4045 
Q 1934 3922 1679 3669 
Q 1425 3416 1258 3105 
Q 1091 2794 978 2366 
Q 1428 2675 1881 2675 
Q 2316 2675 2634 2325 
Q 2953 1975 2953 1425 
Q 2953 894 2631 456 
Q 2244 -75 1606 -75 
Q 1172 -75 869 213 
Q 275 772 275 1663 
Q 275 2231 503 2743 
Q 731 3256 1154 3653 
Q 1578 4050 1965 4187 
Q 2353 4325 2688 4325 
L 2869 4325 
z
M 925 2138 
Q 869 1716 869 1456 
Q 869 1156 980 804 
Q 1091 453 1309 247 
Q 1469 100 1697 100 
Q 1969 100 2183 356 
Q 2397 613 2397 1088 
Q 2397 1622 2184 2012 
Q 1972 2403 1581 2403 
Q 1463 2403 1327 2353 
Q 1191 2303 925 2138 
z
" transform="scale(0.015625)"/>
       </defs>
       <use xlink:href="#TimesNewRomanPSMT-30"/>
       <use xlink:href="#TimesNewRomanPSMT-2e" transform="translate(50 0)"/>
       <use xlink:href="#TimesNewRomanPSMT-30" transform="translate(75 0)"/>
       <use xlink:href="#TimesNewRomanPSMT-36" transform="translate(125 0)"/>
      </g>
     </g>
    </g>
    <g id="ytick_5">
     <g id="line2d_47">
      <path d="M 69.608 64.854897 
L 416.88 64.854897 
" clip-path="url(#p0e5b0c7936)" style="fill: none; stroke-dasharray: 1.85,0.8; stroke-dashoffset: 0; stroke: #b0b0b0; stroke-width: 0.5"/>
     </g>
     <g id="line2d_48">
      <g>
       <use xlink:href="#mdcd793b3fb" x="69.608" y="64.854897" style="stroke: #000000; stroke-width: 0.8"/>
      </g>
     </g>
     <g id="text_9">
      <!-- 0.08 -->
      <g transform="translate(38.108 69.715522) scale(0.14 -0.14)">
       <defs>
        <path id="TimesNewRomanPSMT-38" d="M 1228 2134 
Q 725 2547 579 2797 
Q 434 3047 434 3316 
Q 434 3728 753 4026 
Q 1072 4325 1600 4325 
Q 2113 4325 2425 4047 
Q 2738 3769 2738 3413 
Q 2738 3175 2569 2928 
Q 2400 2681 1866 2347 
Q 2416 1922 2594 1678 
Q 2831 1359 2831 1006 
Q 2831 559 2490 242 
Q 2150 -75 1597 -75 
Q 994 -75 656 303 
Q 388 606 388 966 
Q 388 1247 577 1523 
Q 766 1800 1228 2134 
z
M 1719 2469 
Q 2094 2806 2194 3001 
Q 2294 3197 2294 3444 
Q 2294 3772 2109 3958 
Q 1925 4144 1606 4144 
Q 1288 4144 1088 3959 
Q 888 3775 888 3528 
Q 888 3366 970 3203 
Q 1053 3041 1206 2894 
L 1719 2469 
z
M 1375 2016 
Q 1116 1797 991 1539 
Q 866 1281 866 981 
Q 866 578 1086 336 
Q 1306 94 1647 94 
Q 1984 94 2187 284 
Q 2391 475 2391 747 
Q 2391 972 2272 1150 
Q 2050 1481 1375 2016 
z
" transform="scale(0.015625)"/>
       </defs>
       <use xlink:href="#TimesNewRomanPSMT-30"/>
       <use xlink:href="#TimesNewRomanPSMT-2e" transform="translate(50 0)"/>
       <use xlink:href="#TimesNewRomanPSMT-30" transform="translate(75 0)"/>
       <use xlink:href="#TimesNewRomanPSMT-38" transform="translate(125 0)"/>
      </g>
     </g>
    </g>
    <g id="text_10">
     <!-- p.d.f. [$\mu$m$^{-1}$] -->
     <g transform="translate(31.028 168.198125) rotate(-90) scale(0.14 -0.14)">
      <defs>
       <path id="TimesNewRomanPSMT-70" d="M -6 2578 
L 875 2934 
L 994 2934 
L 994 2266 
Q 1216 2644 1439 2795 
Q 1663 2947 1909 2947 
Q 2341 2947 2628 2609 
Q 2981 2197 2981 1534 
Q 2981 794 2556 309 
Q 2206 -88 1675 -88 
Q 1444 -88 1275 -22 
Q 1150 25 994 166 
L 994 -706 
Q 994 -1000 1030 -1079 
Q 1066 -1159 1155 -1206 
Q 1244 -1253 1478 -1253 
L 1478 -1369 
L -22 -1369 
L -22 -1253 
L 56 -1253 
Q 228 -1256 350 -1188 
Q 409 -1153 442 -1076 
Q 475 -1000 475 -688 
L 475 2019 
Q 475 2297 450 2372 
Q 425 2447 370 2484 
Q 316 2522 222 2522 
Q 147 2522 31 2478 
L -6 2578 
z
M 994 2081 
L 994 1013 
Q 994 666 1022 556 
Q 1066 375 1236 237 
Q 1406 100 1666 100 
Q 1978 100 2172 344 
Q 2425 663 2425 1241 
Q 2425 1897 2138 2250 
Q 1938 2494 1663 2494 
Q 1513 2494 1366 2419 
Q 1253 2363 994 2081 
z
" transform="scale(0.015625)"/>
       <path id="TimesNewRomanPSMT-64" d="M 2222 322 
Q 2013 103 1813 7 
Q 1613 -88 1381 -88 
Q 913 -88 563 304 
Q 213 697 213 1313 
Q 213 1928 600 2439 
Q 988 2950 1597 2950 
Q 1975 2950 2222 2709 
L 2222 3238 
Q 2222 3728 2198 3840 
Q 2175 3953 2125 3993 
Q 2075 4034 2000 4034 
Q 1919 4034 1784 3984 
L 1744 4094 
L 2597 4444 
L 2738 4444 
L 2738 1134 
Q 2738 631 2761 520 
Q 2784 409 2836 365 
Q 2888 322 2956 322 
Q 3041 322 3181 375 
L 3216 266 
L 2366 -88 
L 2222 -88 
L 2222 322 
z
M 2222 541 
L 2222 2016 
Q 2203 2228 2109 2403 
Q 2016 2578 1861 2667 
Q 1706 2756 1559 2756 
Q 1284 2756 1069 2509 
Q 784 2184 784 1559 
Q 784 928 1059 592 
Q 1334 256 1672 256 
Q 1956 256 2222 541 
z
" transform="scale(0.015625)"/>
       <path id="TimesNewRomanPSMT-66" d="M 1319 2638 
L 1319 756 
Q 1319 356 1406 250 
Q 1522 113 1716 113 
L 1975 113 
L 1975 0 
L 266 0 
L 266 113 
L 394 113 
Q 519 113 622 175 
Q 725 238 764 344 
Q 803 450 803 756 
L 803 2638 
L 247 2638 
L 247 2863 
L 803 2863 
L 803 3050 
Q 803 3478 940 3775 
Q 1078 4072 1361 4255 
Q 1644 4438 1997 4438 
Q 2325 4438 2600 4225 
Q 2781 4084 2781 3909 
Q 2781 3816 2700 3733 
Q 2619 3650 2525 3650 
Q 2453 3650 2373 3701 
Q 2294 3753 2178 3923 
Q 2063 4094 1966 4153 
Q 1869 4213 1750 4213 
Q 1606 4213 1506 4136 
Q 1406 4059 1362 3898 
Q 1319 3738 1319 3069 
L 1319 2863 
L 2056 2863 
L 2056 2638 
L 1319 2638 
z
" transform="scale(0.015625)"/>
       <path id="DejaVuSans-2212" d="M 678 2272 
L 4684 2272 
L 4684 1741 
L 678 1741 
L 678 2272 
z
" transform="scale(0.015625)"/>
       <path id="DejaVuSans-31" d="M 794 531 
L 1825 531 
L 1825 4091 
L 703 3866 
L 703 4441 
L 1819 4666 
L 2450 4666 
L 2450 531 
L 3481 531 
L 3481 0 
L 794 0 
L 794 531 
z
" transform="scale(0.015625)"/>
      </defs>
      <use xlink:href="#TimesNewRomanPSMT-70" transform="translate(0 0.684375)"/>
      <use xlink:href="#TimesNewRomanPSMT-2e" transform="translate(50 0.684375)"/>
      <use xlink:href="#TimesNewRomanPSMT-64" transform="translate(75 0.684375)"/>
      <use xlink:href="#TimesNewRomanPSMT-2e" transform="translate(125 0.684375)"/>
      <use xlink:href="#TimesNewRomanPSMT-66" transform="translate(150 0.684375)"/>
      <use xlink:href="#TimesNewRomanPSMT-2e" transform="translate(183.300781 0.684375)"/>
      <use xlink:href="#TimesNewRomanPSMT-20" transform="translate(208.300781 0.684375)"/>
      <use xlink:href="#TimesNewRomanPSMT-5b" transform="translate(233.300781 0.684375)"/>
      <use xlink:href="#DejaVuSans-Oblique-3bc" transform="translate(266.601562 0.684375)"/>
      <use xlink:href="#TimesNewRomanPSMT-6d" transform="translate(330.224609 0.684375)"/>
      <use xlink:href="#DejaVuSans-2212" transform="translate(408.964844 38.965625) scale(0.7)"/>
      <use xlink:href="#DejaVuSans-31" transform="translate(467.617188 38.965625) scale(0.7)"/>
      <use xlink:href="#TimesNewRomanPSMT-5d" transform="translate(514.887695 0.684375)"/>
     </g>
    </g>
   </g>
   <g id="line2d_49">
    <path d="M 85.393091 216.801673 
L 96.702797 216.801673 
L 96.702797 216.801673 
L 117.749585 216.801673 
L 117.749585 213.750666 
L 138.796373 213.750666 
L 138.796373 201.546635 
L 159.843161 201.546635 
L 159.843161 158.222325 
L 180.889949 158.222325 
L 180.889949 113.677613 
L 201.936737 113.677613 
L 201.936737 68.522699 
L 222.983525 68.522699 
L 222.983525 111.236807 
L 244.030312 111.236807 
L 244.030312 146.018295 
L 265.0771 146.018295 
L 265.0771 179.579379 
L 286.123888 179.579379 
L 286.123888 196.665023 
L 307.170676 196.665023 
L 307.170676 197.885426 
L 328.217464 197.885426 
L 328.217464 206.428247 
L 349.264252 206.428247 
L 349.264252 216.801673 
L 370.31104 216.801673 
L 370.31104 216.191472 
L 391.357828 216.191472 
L 391.357828 215.58127 
L 401.094909 215.58127 
" clip-path="url(#p0e5b0c7936)" style="fill: none; stroke: #1f77b4; stroke-width: 1.5; stroke-linecap: square"/>
   </g>
   <g id="line2d_50">
    <path d="M 85.393091 216.509521 
L 106.439879 213.601932 
L 127.486667 204.823523 
L 148.533455 184.863602 
L 169.580242 151.555811 
L 190.62703 113.138765 
L 211.673818 88.213333 
L 232.720606 92.140561 
L 253.767394 122.361379 
L 274.814182 160.974621 
L 295.86097 191.18865 
L 316.907758 207.876999 
L 337.954545 214.698857 
L 359.001333 216.807788 
L 380.048121 217.306617 
L 401.094909 217.397523 
" clip-path="url(#p0e5b0c7936)" style="fill: none; stroke-dasharray: 5.55,2.4; stroke-dashoffset: 0; stroke: #1f77b4; stroke-width: 1.5"/>
   </g>
   <g id="line2d_51">
    <path d="M 85.393091 207.236638 
L 106.439879 189.727436 
L 127.486667 156.710019 
L 148.533455 110.150527 
L 169.580242 64.669486 
L 190.62703 42.124375 
L 211.673818 55.299056 
L 232.720606 96.586316 
L 253.767394 144.838836 
L 274.814182 182.282789 
L 295.86097 203.708314 
L 316.907758 213.103881 
L 337.954545 216.320455 
L 359.001333 217.18904 
L 380.048121 217.37521 
L 401.094909 217.407013 
" clip-path="url(#p0e5b0c7936)" style="fill: none; stroke-dasharray: 1.5,2.475; stroke-dashoffset: 0; stroke: #1f77b4; stroke-width: 1.5"/>
   </g>
   <g id="line2d_52">
    <path d="M 85.393091 217.411875 
L 96.702797 217.411875 
L 96.702797 217.411875 
L 117.749585 217.411875 
L 117.749585 217.411875 
L 138.796373 217.411875 
L 138.796373 217.071386 
L 159.843161 217.071386 
L 159.843161 214.233978 
L 180.889949 214.233978 
L 180.889949 207.764687 
L 201.936737 207.764687 
L 201.936737 189.378282 
L 222.983525 189.378282 
L 222.983525 178.142145 
L 244.030312 178.142145 
L 244.030312 168.494957 
L 265.0771 168.494957 
L 265.0771 162.706645 
L 286.123888 162.706645 
L 286.123888 165.090068 
L 307.170676 165.090068 
L 307.170676 170.083906 
L 328.217464 170.083906 
L 328.217464 190.740238 
L 349.264252 190.740238 
L 349.264252 213.893489 
L 370.31104 213.893489 
L 370.31104 216.844393 
L 391.357828 216.844393 
L 391.357828 217.071386 
L 401.094909 217.071386 
" clip-path="url(#p0e5b0c7936)" style="fill: none; stroke: #ff7f0e; stroke-width: 1.5; stroke-linecap: square"/>
   </g>
   <g id="line2d_53">
    <path d="M 85.393091 217.404658 
L 106.439879 217.363915 
L 127.486667 217.157172 
L 148.533455 216.330858 
L 169.580242 213.745162 
L 190.62703 207.472309 
L 211.673818 195.878894 
L 232.720606 180.130917 
L 253.767394 165.827741 
L 274.814182 160.370317 
L 295.86097 167.002328 
L 316.907758 181.809385 
L 337.954545 197.316592 
L 359.001333 208.347162 
L 380.048121 214.14404 
L 401.094909 216.470392 
" clip-path="url(#p0e5b0c7936)" style="fill: none; stroke-dasharray: 5.55,2.4; stroke-dashoffset: 0; stroke: #ff7f0e; stroke-width: 1.5"/>
   </g>
   <g id="line2d_54">
    <path d="M 85.393091 217.349999 
L 106.439879 217.047131 
L 127.486667 215.732707 
L 148.533455 211.374571 
L 169.580242 200.459333 
L 190.62703 180.235291 
L 211.673818 153.740094 
L 232.720606 132.245653 
L 253.767394 128.444529 
L 274.814182 144.828568 
L 295.86097 171.164644 
L 316.907758 194.398644 
L 337.954545 208.468276 
L 359.001333 214.697375 
L 380.048121 216.768432 
L 401.094909 217.292758 
" clip-path="url(#p0e5b0c7936)" style="fill: none; stroke-dasharray: 1.5,2.475; stroke-dashoffset: 0; stroke: #ff7f0e; stroke-width: 1.5"/>
   </g>
   <g id="patch_3">
    <path d="M 69.608 226.17625 
L 69.608 33.36 
" style="fill: none; stroke: #000000; stroke-width: 0.8; stroke-linejoin: miter; stroke-linecap: square"/>
   </g>
   <g id="patch_4">
    <path d="M 416.88 226.17625 
L 416.88 33.36 
" style="fill: none; stroke: #000000; stroke-width: 0.8; stroke-linejoin: miter; stroke-linecap: square"/>
   </g>
   <g id="patch_5">
    <path d="M 69.608 226.17625 
L 416.88 226.17625 
" style="fill: none; stroke: #000000; stroke-width: 0.8; stroke-linejoin: miter; stroke-linecap: square"/>
   </g>
   <g id="patch_6">
    <path d="M 69.608 33.36 
L 416.88 33.36 
" style="fill: none; stroke: #000000; stroke-width: 0.8; stroke-linejoin: miter; stroke-linecap: square"/>
   </g>
   <g id="text_11">
    <!-- all -->
    <g transform="translate(234.847938 27.36) scale(0.168 -0.168)">
     <defs>
      <path id="TimesNewRomanPSMT-61" d="M 1822 413 
Q 1381 72 1269 19 
Q 1100 -59 909 -59 
Q 613 -59 420 144 
Q 228 347 228 678 
Q 228 888 322 1041 
Q 450 1253 767 1440 
Q 1084 1628 1822 1897 
L 1822 2009 
Q 1822 2438 1686 2597 
Q 1550 2756 1291 2756 
Q 1094 2756 978 2650 
Q 859 2544 859 2406 
L 866 2225 
Q 866 2081 792 2003 
Q 719 1925 600 1925 
Q 484 1925 411 2006 
Q 338 2088 338 2228 
Q 338 2497 613 2722 
Q 888 2947 1384 2947 
Q 1766 2947 2009 2819 
Q 2194 2722 2281 2516 
Q 2338 2381 2338 1966 
L 2338 994 
Q 2338 584 2353 492 
Q 2369 400 2405 369 
Q 2441 338 2488 338 
Q 2538 338 2575 359 
Q 2641 400 2828 588 
L 2828 413 
Q 2478 -56 2159 -56 
Q 2006 -56 1915 50 
Q 1825 156 1822 413 
z
M 1822 616 
L 1822 1706 
Q 1350 1519 1213 1441 
Q 966 1303 859 1153 
Q 753 1003 753 825 
Q 753 600 887 451 
Q 1022 303 1197 303 
Q 1434 303 1822 616 
z
" transform="scale(0.015625)"/>
      <path id="TimesNewRomanPSMT-6c" d="M 1184 4444 
L 1184 647 
Q 1184 378 1223 290 
Q 1263 203 1344 158 
Q 1425 113 1647 113 
L 1647 0 
L 244 0 
L 244 113 
Q 441 113 512 153 
Q 584 194 625 287 
Q 666 381 666 647 
L 666 3247 
Q 666 3731 644 3842 
Q 622 3953 573 3993 
Q 525 4034 450 4034 
Q 369 4034 244 3984 
L 191 4094 
L 1044 4444 
L 1184 4444 
z
" transform="scale(0.015625)"/>
     </defs>
     <use xlink:href="#TimesNewRomanPSMT-61"/>
     <use xlink:href="#TimesNewRomanPSMT-6c" transform="translate(44.384766 0)"/>
     <use xlink:href="#TimesNewRomanPSMT-6c" transform="translate(72.167969 0)"/>
    </g>
   </g>
   <g id="legend_1">
    <g id="line2d_55">
     <path d="M 208.129063 50.86 
L 222.129063 50.86 
L 236.129063 50.86 
" style="fill: none; stroke-dasharray: 5.55,2.4; stroke-dashoffset: 0; stroke: #1f77b4; stroke-width: 1.5"/>
    </g>
    <g id="text_12">
     <!-- fit: mu=2.440, sigma=0.606 -->
     <g transform="translate(247.329063 55.76) scale(0.14 -0.14)">
      <defs>
       <path id="TimesNewRomanPSMT-69" d="M 928 4444 
Q 1059 4444 1151 4351 
Q 1244 4259 1244 4128 
Q 1244 3997 1151 3903 
Q 1059 3809 928 3809 
Q 797 3809 703 3903 
Q 609 3997 609 4128 
Q 609 4259 701 4351 
Q 794 4444 928 4444 
z
M 1188 2947 
L 1188 647 
Q 1188 378 1227 289 
Q 1266 200 1342 156 
Q 1419 113 1622 113 
L 1622 0 
L 231 0 
L 231 113 
Q 441 113 512 153 
Q 584 194 626 287 
Q 669 381 669 647 
L 669 1750 
Q 669 2216 641 2353 
Q 619 2453 572 2492 
Q 525 2531 444 2531 
Q 356 2531 231 2484 
L 188 2597 
L 1050 2947 
L 1188 2947 
z
" transform="scale(0.015625)"/>
       <path id="TimesNewRomanPSMT-74" d="M 1031 3803 
L 1031 2863 
L 1700 2863 
L 1700 2644 
L 1031 2644 
L 1031 788 
Q 1031 509 1111 412 
Q 1191 316 1316 316 
Q 1419 316 1516 380 
Q 1613 444 1666 569 
L 1788 569 
Q 1678 263 1478 108 
Q 1278 -47 1066 -47 
Q 922 -47 784 33 
Q 647 113 581 261 
Q 516 409 516 719 
L 516 2644 
L 63 2644 
L 63 2747 
Q 234 2816 414 2980 
Q 594 3144 734 3369 
Q 806 3488 934 3803 
L 1031 3803 
z
" transform="scale(0.015625)"/>
       <path id="TimesNewRomanPSMT-3a" d="M 903 2950 
Q 1047 2950 1148 2848 
Q 1250 2747 1250 2603 
Q 1250 2459 1148 2357 
Q 1047 2256 903 2256 
Q 759 2256 657 2357 
Q 556 2459 556 2603 
Q 556 2747 657 2848 
Q 759 2950 903 2950 
z
M 897 609 
Q 1044 609 1145 506 
Q 1247 403 1247 259 
Q 1247 116 1144 14 
Q 1041 -88 897 -88 
Q 753 -88 651 14 
Q 550 116 550 259 
Q 550 403 651 506 
Q 753 609 897 609 
z
" transform="scale(0.015625)"/>
       <path id="TimesNewRomanPSMT-75" d="M 2709 2863 
L 2709 1128 
Q 2709 631 2732 520 
Q 2756 409 2807 365 
Q 2859 322 2928 322 
Q 3025 322 3147 375 
L 3191 266 
L 2334 -88 
L 2194 -88 
L 2194 519 
Q 1825 119 1631 15 
Q 1438 -88 1222 -88 
Q 981 -88 804 51 
Q 628 191 559 409 
Q 491 628 491 1028 
L 491 2306 
Q 491 2509 447 2587 
Q 403 2666 317 2708 
Q 231 2750 6 2747 
L 6 2863 
L 1009 2863 
L 1009 947 
Q 1009 547 1148 422 
Q 1288 297 1484 297 
Q 1619 297 1789 381 
Q 1959 466 2194 703 
L 2194 2325 
Q 2194 2569 2105 2655 
Q 2016 2741 1734 2747 
L 1734 2863 
L 2709 2863 
z
" transform="scale(0.015625)"/>
       <path id="TimesNewRomanPSMT-3d" d="M 116 2759 
L 3488 2759 
L 3488 2503 
L 116 2503 
L 116 2759 
z
M 116 1741 
L 3488 1741 
L 3488 1484 
L 116 1484 
L 116 1741 
z
" transform="scale(0.015625)"/>
       <path id="TimesNewRomanPSMT-2c" d="M 344 -1066 
L 344 -928 
Q 666 -822 842 -598 
Q 1019 -375 1019 -125 
Q 1019 -66 991 -25 
Q 969 3 947 3 
Q 913 3 797 -59 
Q 741 -88 678 -88 
Q 525 -88 434 3 
Q 344 94 344 253 
Q 344 406 461 515 
Q 578 625 747 625 
Q 953 625 1114 445 
Q 1275 266 1275 -31 
Q 1275 -353 1051 -629 
Q 828 -906 344 -1066 
z
" transform="scale(0.015625)"/>
       <path id="TimesNewRomanPSMT-73" d="M 2050 2947 
L 2050 1972 
L 1947 1972 
Q 1828 2431 1642 2597 
Q 1456 2763 1169 2763 
Q 950 2763 815 2647 
Q 681 2531 681 2391 
Q 681 2216 781 2091 
Q 878 1963 1175 1819 
L 1631 1597 
Q 2266 1288 2266 781 
Q 2266 391 1970 151 
Q 1675 -88 1309 -88 
Q 1047 -88 709 6 
Q 606 38 541 38 
Q 469 38 428 -44 
L 325 -44 
L 325 978 
L 428 978 
Q 516 541 762 319 
Q 1009 97 1316 97 
Q 1531 97 1667 223 
Q 1803 350 1803 528 
Q 1803 744 1651 891 
Q 1500 1038 1047 1263 
Q 594 1488 453 1669 
Q 313 1847 313 2119 
Q 313 2472 555 2709 
Q 797 2947 1181 2947 
Q 1350 2947 1591 2875 
Q 1750 2828 1803 2828 
Q 1853 2828 1881 2850 
Q 1909 2872 1947 2947 
L 2050 2947 
z
" transform="scale(0.015625)"/>
       <path id="TimesNewRomanPSMT-67" d="M 966 1044 
Q 703 1172 562 1401 
Q 422 1631 422 1909 
Q 422 2334 742 2640 
Q 1063 2947 1563 2947 
Q 1972 2947 2272 2747 
L 2878 2747 
Q 3013 2747 3034 2739 
Q 3056 2731 3066 2713 
Q 3084 2684 3084 2613 
Q 3084 2531 3069 2500 
Q 3059 2484 3036 2475 
Q 3013 2466 2878 2466 
L 2506 2466 
Q 2681 2241 2681 1891 
Q 2681 1491 2375 1206 
Q 2069 922 1553 922 
Q 1341 922 1119 984 
Q 981 866 932 777 
Q 884 688 884 625 
Q 884 572 936 522 
Q 988 472 1138 450 
Q 1225 438 1575 428 
Q 2219 413 2409 384 
Q 2700 344 2873 169 
Q 3047 -6 3047 -263 
Q 3047 -616 2716 -925 
Q 2228 -1381 1444 -1381 
Q 841 -1381 425 -1109 
Q 191 -953 191 -784 
Q 191 -709 225 -634 
Q 278 -519 444 -313 
Q 466 -284 763 25 
Q 600 122 533 198 
Q 466 275 466 372 
Q 466 481 555 628 
Q 644 775 966 1044 
z
M 1509 2797 
Q 1278 2797 1122 2612 
Q 966 2428 966 2047 
Q 966 1553 1178 1281 
Q 1341 1075 1591 1075 
Q 1828 1075 1981 1253 
Q 2134 1431 2134 1813 
Q 2134 2309 1919 2591 
Q 1759 2797 1509 2797 
z
M 934 0 
Q 788 -159 713 -296 
Q 638 -434 638 -550 
Q 638 -700 819 -813 
Q 1131 -1006 1722 -1006 
Q 2284 -1006 2551 -807 
Q 2819 -609 2819 -384 
Q 2819 -222 2659 -153 
Q 2497 -84 2016 -72 
Q 1313 -53 934 0 
z
" transform="scale(0.015625)"/>
      </defs>
      <use xlink:href="#TimesNewRomanPSMT-66"/>
      <use xlink:href="#TimesNewRomanPSMT-69" transform="translate(33.300781 0)"/>
      <use xlink:href="#TimesNewRomanPSMT-74" transform="translate(61.083984 0)"/>
      <use xlink:href="#TimesNewRomanPSMT-3a" transform="translate(88.867188 0)"/>
      <use xlink:href="#TimesNewRomanPSMT-20" transform="translate(116.650391 0)"/>
      <use xlink:href="#TimesNewRomanPSMT-6d" transform="translate(141.650391 0)"/>
      <use xlink:href="#TimesNewRomanPSMT-75" transform="translate(219.433594 0)"/>
      <use xlink:href="#TimesNewRomanPSMT-3d" transform="translate(269.433594 0)"/>
      <use xlink:href="#TimesNewRomanPSMT-32" transform="translate(325.830078 0)"/>
      <use xlink:href="#TimesNewRomanPSMT-2e" transform="translate(375.830078 0)"/>
      <use xlink:href="#TimesNewRomanPSMT-34" transform="translate(400.830078 0)"/>
      <use xlink:href="#TimesNewRomanPSMT-34" transform="translate(450.830078 0)"/>
      <use xlink:href="#TimesNewRomanPSMT-30" transform="translate(500.830078 0)"/>
      <use xlink:href="#TimesNewRomanPSMT-2c" transform="translate(550.830078 0)"/>
      <use xlink:href="#TimesNewRomanPSMT-20" transform="translate(575.830078 0)"/>
      <use xlink:href="#TimesNewRomanPSMT-73" transform="translate(600.830078 0)"/>
      <use xlink:href="#TimesNewRomanPSMT-69" transform="translate(639.746094 0)"/>
      <use xlink:href="#TimesNewRomanPSMT-67" transform="translate(667.529297 0)"/>
      <use xlink:href="#TimesNewRomanPSMT-6d" transform="translate(717.529297 0)"/>
      <use xlink:href="#TimesNewRomanPSMT-61" transform="translate(795.3125 0)"/>
      <use xlink:href="#TimesNewRomanPSMT-3d" transform="translate(839.697266 0)"/>
      <use xlink:href="#TimesNewRomanPSMT-30" transform="translate(896.09375 0)"/>
      <use xlink:href="#TimesNewRomanPSMT-2e" transform="translate(946.09375 0)"/>
      <use xlink:href="#TimesNewRomanPSMT-36" transform="translate(971.09375 0)"/>
      <use xlink:href="#TimesNewRomanPSMT-30" transform="translate(1021.09375 0)"/>
      <use xlink:href="#TimesNewRomanPSMT-36" transform="translate(1071.09375 0)"/>
     </g>
    </g>
    <g id="line2d_56">
     <path d="M 208.129063 86.785969 
L 222.129063 86.785969 
L 236.129063 86.785969 
" style="fill: none; stroke-dasharray: 1.5,2.475; stroke-dashoffset: 0; stroke: #1f77b4; stroke-width: 1.5"/>
    </g>
    <g id="text_13">
     <!-- Calculated 0.2%wt,  -->
     <g transform="translate(247.329063 75.502188) scale(0.14 -0.14)">
      <defs>
       <path id="TimesNewRomanPSMT-43" d="M 3853 4334 
L 3950 2894 
L 3853 2894 
Q 3659 3541 3300 3825 
Q 2941 4109 2438 4109 
Q 2016 4109 1675 3895 
Q 1334 3681 1139 3212 
Q 944 2744 944 2047 
Q 944 1472 1128 1050 
Q 1313 628 1683 403 
Q 2053 178 2528 178 
Q 2941 178 3256 354 
Q 3572 531 3950 1056 
L 4047 994 
Q 3728 428 3303 165 
Q 2878 -97 2294 -97 
Q 1241 -97 663 684 
Q 231 1266 231 2053 
Q 231 2688 515 3219 
Q 800 3750 1298 4042 
Q 1797 4334 2388 4334 
Q 2847 4334 3294 4109 
Q 3425 4041 3481 4041 
Q 3566 4041 3628 4100 
Q 3709 4184 3744 4334 
L 3853 4334 
z
" transform="scale(0.015625)"/>
       <path id="TimesNewRomanPSMT-63" d="M 2631 1088 
Q 2516 522 2178 217 
Q 1841 -88 1431 -88 
Q 944 -88 581 321 
Q 219 731 219 1428 
Q 219 2103 620 2525 
Q 1022 2947 1584 2947 
Q 2006 2947 2278 2723 
Q 2550 2500 2550 2259 
Q 2550 2141 2473 2067 
Q 2397 1994 2259 1994 
Q 2075 1994 1981 2113 
Q 1928 2178 1911 2362 
Q 1894 2547 1784 2644 
Q 1675 2738 1481 2738 
Q 1169 2738 978 2506 
Q 725 2200 725 1697 
Q 725 1184 976 792 
Q 1228 400 1656 400 
Q 1963 400 2206 609 
Q 2378 753 2541 1131 
L 2631 1088 
z
" transform="scale(0.015625)"/>
       <path id="TimesNewRomanPSMT-65" d="M 681 1784 
Q 678 1147 991 784 
Q 1303 422 1725 422 
Q 2006 422 2214 576 
Q 2422 731 2563 1106 
L 2659 1044 
Q 2594 616 2278 264 
Q 1963 -88 1488 -88 
Q 972 -88 605 314 
Q 238 716 238 1394 
Q 238 2128 614 2539 
Q 991 2950 1559 2950 
Q 2041 2950 2350 2633 
Q 2659 2316 2659 1784 
L 681 1784 
z
M 681 1966 
L 2006 1966 
Q 1991 2241 1941 2353 
Q 1863 2528 1708 2628 
Q 1553 2728 1384 2728 
Q 1125 2728 920 2526 
Q 716 2325 681 1966 
z
" transform="scale(0.015625)"/>
       <path id="TimesNewRomanPSMT-25" d="M 4350 4334 
L 1263 -175 
L 984 -175 
L 4072 4334 
L 4350 4334 
z
M 1138 4334 
Q 1559 4334 1792 3984 
Q 2025 3634 2025 3181 
Q 2025 2638 1762 2341 
Q 1500 2044 1131 2044 
Q 884 2044 678 2180 
Q 472 2316 348 2584 
Q 225 2853 225 3181 
Q 225 3509 350 3786 
Q 475 4063 692 4198 
Q 909 4334 1138 4334 
z
M 1128 4159 
Q 969 4159 845 3971 
Q 722 3784 722 3184 
Q 722 2750 791 2522 
Q 844 2350 956 2256 
Q 1022 2200 1119 2200 
Q 1269 2200 1375 2363 
Q 1531 2603 1531 3166 
Q 1531 3759 1378 4000 
Q 1278 4159 1128 4159 
z
M 4206 2103 
Q 4428 2103 4648 1962 
Q 4869 1822 4989 1553 
Q 5109 1284 5109 963 
Q 5109 409 4843 117 
Q 4578 -175 4216 -175 
Q 3988 -175 3773 -34 
Q 3559 106 3436 367 
Q 3313 628 3313 963 
Q 3313 1291 3436 1562 
Q 3559 1834 3773 1968 
Q 3988 2103 4206 2103 
z
M 4209 1938 
Q 4059 1938 3950 1769 
Q 3809 1550 3809 941 
Q 3809 381 3953 159 
Q 4059 0 4209 0 
Q 4353 0 4466 172 
Q 4616 400 4616 956 
Q 4616 1544 4466 1778 
Q 4363 1938 4209 1938 
z
" transform="scale(0.015625)"/>
       <path id="TimesNewRomanPSMT-77" d="M 41 2863 
L 1241 2863 
L 1241 2747 
Q 1075 2734 1023 2687 
Q 972 2641 972 2553 
Q 972 2456 1025 2319 
L 1638 672 
L 2253 2013 
L 2091 2434 
Q 2016 2622 1894 2694 
Q 1825 2738 1638 2747 
L 1638 2863 
L 3000 2863 
L 3000 2747 
Q 2775 2738 2681 2666 
Q 2619 2616 2619 2506 
Q 2619 2444 2644 2378 
L 3294 734 
L 3897 2319 
Q 3959 2488 3959 2588 
Q 3959 2647 3898 2694 
Q 3838 2741 3659 2747 
L 3659 2863 
L 4563 2863 
L 4563 2747 
Q 4291 2706 4163 2378 
L 3206 -88 
L 3078 -88 
L 2363 1741 
L 1528 -88 
L 1413 -88 
L 494 2319 
Q 403 2547 315 2626 
Q 228 2706 41 2747 
L 41 2863 
z
" transform="scale(0.015625)"/>
      </defs>
      <use xlink:href="#TimesNewRomanPSMT-43"/>
      <use xlink:href="#TimesNewRomanPSMT-61" transform="translate(66.699219 0)"/>
      <use xlink:href="#TimesNewRomanPSMT-6c" transform="translate(111.083984 0)"/>
      <use xlink:href="#TimesNewRomanPSMT-63" transform="translate(138.867188 0)"/>
      <use xlink:href="#TimesNewRomanPSMT-75" transform="translate(183.251953 0)"/>
      <use xlink:href="#TimesNewRomanPSMT-6c" transform="translate(233.251953 0)"/>
      <use xlink:href="#TimesNewRomanPSMT-61" transform="translate(261.035156 0)"/>
      <use xlink:href="#TimesNewRomanPSMT-74" transform="translate(305.419922 0)"/>
      <use xlink:href="#TimesNewRomanPSMT-65" transform="translate(333.203125 0)"/>
      <use xlink:href="#TimesNewRomanPSMT-64" transform="translate(377.587891 0)"/>
      <use xlink:href="#TimesNewRomanPSMT-20" transform="translate(427.587891 0)"/>
      <use xlink:href="#TimesNewRomanPSMT-30" transform="translate(452.587891 0)"/>
      <use xlink:href="#TimesNewRomanPSMT-2e" transform="translate(502.587891 0)"/>
      <use xlink:href="#TimesNewRomanPSMT-32" transform="translate(527.587891 0)"/>
      <use xlink:href="#TimesNewRomanPSMT-25" transform="translate(577.587891 0)"/>
      <use xlink:href="#TimesNewRomanPSMT-77" transform="translate(660.888672 0)"/>
      <use xlink:href="#TimesNewRomanPSMT-74" transform="translate(733.105469 0)"/>
      <use xlink:href="#TimesNewRomanPSMT-2c" transform="translate(760.888672 0)"/>
      <use xlink:href="#TimesNewRomanPSMT-20" transform="translate(785.888672 0)"/>
     </g>
     <!--  mu=2.1 μm,  -->
     <g transform="translate(247.329063 90.162375) scale(0.14 -0.14)">
      <defs>
       <path id="TimesNewRomanPSMT-3bc" d="M 2275 519 
Q 1709 -88 1291 -88 
Q 1022 -88 791 119 
L 791 -47 
Q 791 -334 878 -625 
Q 978 -947 978 -1050 
Q 978 -1194 887 -1287 
Q 797 -1381 663 -1381 
Q 525 -1381 444 -1272 
Q 363 -1163 363 -1009 
Q 363 -897 444 -603 
Q 538 -278 538 28 
L 538 2863 
L 1053 2863 
L 1053 1009 
Q 1053 728 1101 597 
Q 1150 466 1273 383 
Q 1397 300 1553 300 
Q 1831 300 2275 681 
L 2275 2863 
L 2794 2863 
L 2794 691 
Q 2794 416 2850 311 
Q 2906 206 3041 206 
Q 3253 206 3316 622 
L 3428 622 
Q 3369 -88 2828 -88 
Q 2594 -88 2439 70 
Q 2284 228 2275 519 
z
" transform="scale(0.015625)"/>
      </defs>
      <use xlink:href="#TimesNewRomanPSMT-20"/>
      <use xlink:href="#TimesNewRomanPSMT-6d" transform="translate(25 0)"/>
      <use xlink:href="#TimesNewRomanPSMT-75" transform="translate(102.783203 0)"/>
      <use xlink:href="#TimesNewRomanPSMT-3d" transform="translate(152.783203 0)"/>
      <use xlink:href="#TimesNewRomanPSMT-32" transform="translate(209.179688 0)"/>
      <use xlink:href="#TimesNewRomanPSMT-2e" transform="translate(259.179688 0)"/>
      <use xlink:href="#TimesNewRomanPSMT-31" transform="translate(284.179688 0)"/>
      <use xlink:href="#TimesNewRomanPSMT-20" transform="translate(334.179688 0)"/>
      <use xlink:href="#TimesNewRomanPSMT-3bc" transform="translate(359.179688 0)"/>
      <use xlink:href="#TimesNewRomanPSMT-6d" transform="translate(412.792969 0)"/>
      <use xlink:href="#TimesNewRomanPSMT-2c" transform="translate(490.576172 0)"/>
      <use xlink:href="#TimesNewRomanPSMT-20" transform="translate(515.576172 0)"/>
     </g>
     <!--  std=0.6 μm -->
     <g transform="translate(247.329063 104.848813) scale(0.14 -0.14)">
      <use xlink:href="#TimesNewRomanPSMT-20"/>
      <use xlink:href="#TimesNewRomanPSMT-73" transform="translate(25 0)"/>
      <use xlink:href="#TimesNewRomanPSMT-74" transform="translate(63.916016 0)"/>
      <use xlink:href="#TimesNewRomanPSMT-64" transform="translate(91.699219 0)"/>
      <use xlink:href="#TimesNewRomanPSMT-3d" transform="translate(141.699219 0)"/>
      <use xlink:href="#TimesNewRomanPSMT-30" transform="translate(198.095703 0)"/>
      <use xlink:href="#TimesNewRomanPSMT-2e" transform="translate(248.095703 0)"/>
      <use xlink:href="#TimesNewRomanPSMT-36" transform="translate(273.095703 0)"/>
      <use xlink:href="#TimesNewRomanPSMT-20" transform="translate(323.095703 0)"/>
      <use xlink:href="#TimesNewRomanPSMT-3bc" transform="translate(348.095703 0)"/>
      <use xlink:href="#TimesNewRomanPSMT-6d" transform="translate(401.708984 0)"/>
     </g>
    </g>
    <g id="line2d_57">
     <path d="M 208.129063 119.76975 
L 222.129063 119.76975 
L 236.129063 119.76975 
" style="fill: none; stroke-dasharray: 5.55,2.4; stroke-dashoffset: 0; stroke: #ff7f0e; stroke-width: 1.5"/>
    </g>
    <g id="text_14">
     <!-- fit: mu=3.247, sigma=0.634 -->
     <g transform="translate(247.329063 124.66975) scale(0.14 -0.14)">
      <defs>
       <path id="TimesNewRomanPSMT-33" d="M 325 3431 
Q 506 3859 782 4092 
Q 1059 4325 1472 4325 
Q 1981 4325 2253 3994 
Q 2459 3747 2459 3466 
Q 2459 3003 1878 2509 
Q 2269 2356 2469 2072 
Q 2669 1788 2669 1403 
Q 2669 853 2319 450 
Q 1863 -75 997 -75 
Q 569 -75 414 31 
Q 259 138 259 259 
Q 259 350 332 419 
Q 406 488 509 488 
Q 588 488 669 463 
Q 722 447 909 348 
Q 1097 250 1169 231 
Q 1284 197 1416 197 
Q 1734 197 1970 444 
Q 2206 691 2206 1028 
Q 2206 1275 2097 1509 
Q 2016 1684 1919 1775 
Q 1784 1900 1550 2001 
Q 1316 2103 1072 2103 
L 972 2103 
L 972 2197 
Q 1219 2228 1467 2375 
Q 1716 2522 1828 2728 
Q 1941 2934 1941 3181 
Q 1941 3503 1739 3701 
Q 1538 3900 1238 3900 
Q 753 3900 428 3381 
L 325 3431 
z
" transform="scale(0.015625)"/>
       <path id="TimesNewRomanPSMT-37" d="M 644 4238 
L 2916 4238 
L 2916 4119 
L 1503 -88 
L 1153 -88 
L 2419 3728 
L 1253 3728 
Q 900 3728 750 3644 
Q 488 3500 328 3200 
L 238 3234 
L 644 4238 
z
" transform="scale(0.015625)"/>
      </defs>
      <use xlink:href="#TimesNewRomanPSMT-66"/>
      <use xlink:href="#TimesNewRomanPSMT-69" transform="translate(33.300781 0)"/>
      <use xlink:href="#TimesNewRomanPSMT-74" transform="translate(61.083984 0)"/>
      <use xlink:href="#TimesNewRomanPSMT-3a" transform="translate(88.867188 0)"/>
      <use xlink:href="#TimesNewRomanPSMT-20" transform="translate(116.650391 0)"/>
      <use xlink:href="#TimesNewRomanPSMT-6d" transform="translate(141.650391 0)"/>
      <use xlink:href="#TimesNewRomanPSMT-75" transform="translate(219.433594 0)"/>
      <use xlink:href="#TimesNewRomanPSMT-3d" transform="translate(269.433594 0)"/>
      <use xlink:href="#TimesNewRomanPSMT-33" transform="translate(325.830078 0)"/>
      <use xlink:href="#TimesNewRomanPSMT-2e" transform="translate(375.830078 0)"/>
      <use xlink:href="#TimesNewRomanPSMT-32" transform="translate(400.830078 0)"/>
      <use xlink:href="#TimesNewRomanPSMT-34" transform="translate(450.830078 0)"/>
      <use xlink:href="#TimesNewRomanPSMT-37" transform="translate(500.830078 0)"/>
      <use xlink:href="#TimesNewRomanPSMT-2c" transform="translate(550.830078 0)"/>
      <use xlink:href="#TimesNewRomanPSMT-20" transform="translate(575.830078 0)"/>
      <use xlink:href="#TimesNewRomanPSMT-73" transform="translate(600.830078 0)"/>
      <use xlink:href="#TimesNewRomanPSMT-69" transform="translate(639.746094 0)"/>
      <use xlink:href="#TimesNewRomanPSMT-67" transform="translate(667.529297 0)"/>
      <use xlink:href="#TimesNewRomanPSMT-6d" transform="translate(717.529297 0)"/>
      <use xlink:href="#TimesNewRomanPSMT-61" transform="translate(795.3125 0)"/>
      <use xlink:href="#TimesNewRomanPSMT-3d" transform="translate(839.697266 0)"/>
      <use xlink:href="#TimesNewRomanPSMT-30" transform="translate(896.09375 0)"/>
      <use xlink:href="#TimesNewRomanPSMT-2e" transform="translate(946.09375 0)"/>
      <use xlink:href="#TimesNewRomanPSMT-36" transform="translate(971.09375 0)"/>
      <use xlink:href="#TimesNewRomanPSMT-33" transform="translate(1021.09375 0)"/>
      <use xlink:href="#TimesNewRomanPSMT-34" transform="translate(1071.09375 0)"/>
     </g>
    </g>
    <g id="line2d_58">
     <path d="M 208.129063 155.695719 
L 222.129063 155.695719 
L 236.129063 155.695719 
" style="fill: none; stroke-dasharray: 1.5,2.475; stroke-dashoffset: 0; stroke: #ff7f0e; stroke-width: 1.5"/>
    </g>
    <g id="text_15">
     <!-- Calculated Newtonian,  -->
     <g transform="translate(247.329063 144.411938) scale(0.14 -0.14)">
      <defs>
       <path id="TimesNewRomanPSMT-4e" d="M -84 4238 
L 1066 4238 
L 3656 1059 
L 3656 3503 
Q 3656 3894 3569 3991 
Q 3453 4122 3203 4122 
L 3056 4122 
L 3056 4238 
L 4531 4238 
L 4531 4122 
L 4381 4122 
Q 4113 4122 4000 3959 
Q 3931 3859 3931 3503 
L 3931 -69 
L 3819 -69 
L 1025 3344 
L 1025 734 
Q 1025 344 1109 247 
Q 1228 116 1475 116 
L 1625 116 
L 1625 0 
L 150 0 
L 150 116 
L 297 116 
Q 569 116 681 278 
Q 750 378 750 734 
L 750 3681 
Q 566 3897 470 3965 
Q 375 4034 191 4094 
Q 100 4122 -84 4122 
L -84 4238 
z
" transform="scale(0.015625)"/>
       <path id="TimesNewRomanPSMT-6f" d="M 1600 2947 
Q 2250 2947 2644 2453 
Q 2978 2031 2978 1484 
Q 2978 1100 2793 706 
Q 2609 313 2286 112 
Q 1963 -88 1566 -88 
Q 919 -88 538 428 
Q 216 863 216 1403 
Q 216 1797 411 2186 
Q 606 2575 925 2761 
Q 1244 2947 1600 2947 
z
M 1503 2744 
Q 1338 2744 1170 2645 
Q 1003 2547 900 2300 
Q 797 2053 797 1666 
Q 797 1041 1045 587 
Q 1294 134 1700 134 
Q 2003 134 2200 384 
Q 2397 634 2397 1244 
Q 2397 2006 2069 2444 
Q 1847 2744 1503 2744 
z
" transform="scale(0.015625)"/>
       <path id="TimesNewRomanPSMT-6e" d="M 1034 2341 
Q 1538 2947 1994 2947 
Q 2228 2947 2397 2830 
Q 2566 2713 2666 2444 
Q 2734 2256 2734 1869 
L 2734 647 
Q 2734 375 2778 278 
Q 2813 200 2889 156 
Q 2966 113 3172 113 
L 3172 0 
L 1756 0 
L 1756 113 
L 1816 113 
Q 2016 113 2095 173 
Q 2175 234 2206 353 
Q 2219 400 2219 647 
L 2219 1819 
Q 2219 2209 2117 2386 
Q 2016 2563 1775 2563 
Q 1403 2563 1034 2156 
L 1034 647 
Q 1034 356 1069 288 
Q 1113 197 1189 155 
Q 1266 113 1500 113 
L 1500 0 
L 84 0 
L 84 113 
L 147 113 
Q 366 113 442 223 
Q 519 334 519 647 
L 519 1709 
Q 519 2225 495 2337 
Q 472 2450 423 2490 
Q 375 2531 294 2531 
Q 206 2531 84 2484 
L 38 2597 
L 900 2947 
L 1034 2947 
L 1034 2341 
z
" transform="scale(0.015625)"/>
      </defs>
      <use xlink:href="#TimesNewRomanPSMT-43"/>
      <use xlink:href="#TimesNewRomanPSMT-61" transform="translate(66.699219 0)"/>
      <use xlink:href="#TimesNewRomanPSMT-6c" transform="translate(111.083984 0)"/>
      <use xlink:href="#TimesNewRomanPSMT-63" transform="translate(138.867188 0)"/>
      <use xlink:href="#TimesNewRomanPSMT-75" transform="translate(183.251953 0)"/>
      <use xlink:href="#TimesNewRomanPSMT-6c" transform="translate(233.251953 0)"/>
      <use xlink:href="#TimesNewRomanPSMT-61" transform="translate(261.035156 0)"/>
      <use xlink:href="#TimesNewRomanPSMT-74" transform="translate(305.419922 0)"/>
      <use xlink:href="#TimesNewRomanPSMT-65" transform="translate(333.203125 0)"/>
      <use xlink:href="#TimesNewRomanPSMT-64" transform="translate(377.587891 0)"/>
      <use xlink:href="#TimesNewRomanPSMT-20" transform="translate(427.587891 0)"/>
      <use xlink:href="#TimesNewRomanPSMT-4e" transform="translate(452.587891 0)"/>
      <use xlink:href="#TimesNewRomanPSMT-65" transform="translate(524.804688 0)"/>
      <use xlink:href="#TimesNewRomanPSMT-77" transform="translate(569.189453 0)"/>
      <use xlink:href="#TimesNewRomanPSMT-74" transform="translate(641.40625 0)"/>
      <use xlink:href="#TimesNewRomanPSMT-6f" transform="translate(669.189453 0)"/>
      <use xlink:href="#TimesNewRomanPSMT-6e" transform="translate(719.189453 0)"/>
      <use xlink:href="#TimesNewRomanPSMT-69" transform="translate(769.189453 0)"/>
      <use xlink:href="#TimesNewRomanPSMT-61" transform="translate(796.972656 0)"/>
      <use xlink:href="#TimesNewRomanPSMT-6e" transform="translate(841.357422 0)"/>
      <use xlink:href="#TimesNewRomanPSMT-2c" transform="translate(891.357422 0)"/>
      <use xlink:href="#TimesNewRomanPSMT-20" transform="translate(916.357422 0)"/>
     </g>
     <!--  mu=2.8 μm,  -->
     <g transform="translate(247.329063 159.072125) scale(0.14 -0.14)">
      <use xlink:href="#TimesNewRomanPSMT-20"/>
      <use xlink:href="#TimesNewRomanPSMT-6d" transform="translate(25 0)"/>
      <use xlink:href="#TimesNewRomanPSMT-75" transform="translate(102.783203 0)"/>
      <use xlink:href="#TimesNewRomanPSMT-3d" transform="translate(152.783203 0)"/>
      <use xlink:href="#TimesNewRomanPSMT-32" transform="translate(209.179688 0)"/>
      <use xlink:href="#TimesNewRomanPSMT-2e" transform="translate(259.179688 0)"/>
      <use xlink:href="#TimesNewRomanPSMT-38" transform="translate(284.179688 0)"/>
      <use xlink:href="#TimesNewRomanPSMT-20" transform="translate(334.179688 0)"/>
      <use xlink:href="#TimesNewRomanPSMT-3bc" transform="translate(359.179688 0)"/>
      <use xlink:href="#TimesNewRomanPSMT-6d" transform="translate(412.792969 0)"/>
      <use xlink:href="#TimesNewRomanPSMT-2c" transform="translate(490.576172 0)"/>
      <use xlink:href="#TimesNewRomanPSMT-20" transform="translate(515.576172 0)"/>
     </g>
     <!--  std=0.6 μm -->
     <g transform="translate(247.329063 173.758563) scale(0.14 -0.14)">
      <use xlink:href="#TimesNewRomanPSMT-20"/>
      <use xlink:href="#TimesNewRomanPSMT-73" transform="translate(25 0)"/>
      <use xlink:href="#TimesNewRomanPSMT-74" transform="translate(63.916016 0)"/>
      <use xlink:href="#TimesNewRomanPSMT-64" transform="translate(91.699219 0)"/>
      <use xlink:href="#TimesNewRomanPSMT-3d" transform="translate(141.699219 0)"/>
      <use xlink:href="#TimesNewRomanPSMT-30" transform="translate(198.095703 0)"/>
      <use xlink:href="#TimesNewRomanPSMT-2e" transform="translate(248.095703 0)"/>
      <use xlink:href="#TimesNewRomanPSMT-36" transform="translate(273.095703 0)"/>
      <use xlink:href="#TimesNewRomanPSMT-20" transform="translate(323.095703 0)"/>
      <use xlink:href="#TimesNewRomanPSMT-3bc" transform="translate(348.095703 0)"/>
      <use xlink:href="#TimesNewRomanPSMT-6d" transform="translate(401.708984 0)"/>
     </g>
    </g>
   </g>
  </g>
 </g>
 <defs>
  <clipPath id="p0e5b0c7936">
   <rect x="69.608" y="33.36" width="347.272" height="192.81625"/>
  </clipPath>
 </defs>
</svg>
